<svg width="32" height="32" viewBox="0 0 32 32" fill="none" xmlns="http://www.w3.org/2000/svg">
<path fill-rule="evenodd" clip-rule="evenodd" d="M31.6384 1.34561C31.852 0.836268 31.6068 0.263726 31.0908 0.0667979C30.5748 -0.130131 29.9834 0.123127 29.7699 0.632465L27.9155 5.0559C27.6201 4.95818 27.3021 4.90481 26.968 4.90481H3.0024C0.943635 4.90481 -0.503372 6.93111 0.164784 8.87844L3.88603 19.7239C4.30196 20.9362 5.44204 21.7503 6.72364 21.7503H23.2467C24.5283 21.7503 25.6684 20.9362 26.0843 19.7239L29.8056 8.87844C30.1114 7.98706 29.9741 7.07913 29.5377 6.35657L31.6384 1.34561ZM27.1347 6.91843L26.7183 7.91169C26.5048 8.42103 26.7499 8.99357 27.2659 9.1905C27.3629 9.22752 27.4626 9.24863 27.5619 9.25512L24.1926 19.0748C24.054 19.4789 23.6739 19.7503 23.2467 19.7503H6.72364C6.29644 19.7503 5.91642 19.4789 5.77777 19.0748L2.05653 8.22935C1.83381 7.58025 2.31614 6.90481 3.0024 6.90481H26.968C27.025 6.90481 27.0807 6.90949 27.1347 6.91843ZM23.7429 27.0841C23.7429 28.6056 22.4224 29.9973 20.5935 29.9973C18.7646 29.9973 17.4441 28.6056 17.4441 27.0841C17.4441 25.5626 18.7646 24.1708 20.5935 24.1708C22.4224 24.1708 23.7429 25.5626 23.7429 27.0841ZM25.7429 27.0841C25.7429 29.7976 23.4374 31.9973 20.5935 31.9973C17.7496 31.9973 15.4441 29.7976 15.4441 27.0841C15.4441 24.3706 17.7496 22.1708 20.5935 22.1708C23.4374 22.1708 25.7429 24.3706 25.7429 27.0841ZM11.9728 27.0841C11.9728 28.6056 10.6523 29.9974 8.82341 29.9974C6.99454 29.9974 5.67402 28.6056 5.67402 27.0841C5.67402 25.5626 6.99454 24.1709 8.82341 24.1709C10.6523 24.1709 11.9728 25.5626 11.9728 27.0841ZM13.9728 27.0841C13.9728 29.7976 11.6673 31.9974 8.82341 31.9974C5.97948 31.9974 3.67402 29.7976 3.67402 27.0841C3.67402 24.3706 5.97948 22.1709 8.82341 22.1709C11.6673 22.1709 13.9728 24.3706 13.9728 27.0841Z" fill="#373D2F"/>
</svg>
