<svg width="20" height="20" viewBox="0 0 27 27" fill="none" xmlns="http://www.w3.org/2000/svg">
<path d="M26.22 13.11C26.22 20.3505 20.3505 26.22 13.11 26.22C5.86953 26.22 0 20.3505 0 13.11C0 5.86953 5.86953 0 13.11 0C20.3505 0 26.22 5.86953 26.22 13.11ZM11.5936 20.0516L21.3203 10.3249C21.6506 9.99458 21.6506 9.45902 21.3203 9.12874L20.1242 7.93261C19.7939 7.60227 19.2584 7.60227 18.928 7.93261L10.9955 15.8651L7.29196 12.1616C6.96167 11.8313 6.42612 11.8313 6.09578 12.1616L4.89965 13.3577C4.56936 13.688 4.56936 14.2236 4.89965 14.5538L10.3974 20.0516C10.7277 20.3819 11.2632 20.3819 11.5936 20.0516Z" fill="#373D2F"/>
</svg>
