<svg width="75" height="64" viewBox="0 0 395 384" fill="none" xmlns="http://www.w3.org/2000/svg">
<path d="M390.191 192C390.191 295.438 303.969 379.5 197.346 379.5C90.7227 379.5 4.5 295.438 4.5 192C4.5 88.5623 90.7227 4.5 197.346 4.5C303.969 4.5 390.191 88.5623 390.191 192Z" stroke="#373D2F" stroke-width="9"/>
<path d="M360.79 192.445C360.79 286.559 287.262 362.572 196.901 362.572C106.54 362.572 33.0107 286.559 33.0107 192.445C33.0107 98.3315 106.54 22.319 196.901 22.319C287.262 22.319 360.79 98.3315 360.79 192.445Z" fill="#373D2F" stroke="#373D2F" stroke-width="9"/>
<g clip-path="url(#clip0_408_153)">
<mask id="path-3-inside-1_408_153" fill="white">
<path d="M241.611 335.207H152.134C145.671 335.207 140.413 340.517 140.413 347.043V354.028C140.413 355.329 141.467 356.381 142.766 356.381H250.988C252.287 356.381 253.341 355.329 253.341 354.028V347.043C253.341 340.517 248.081 335.207 241.611 335.207ZM248.636 351.675H145.118V347.043C145.118 343.109 148.266 339.912 152.134 339.912H241.611C245.483 339.912 248.636 343.109 248.636 347.043V351.675Z"/>
</mask>
<path d="M241.611 335.207H152.134C145.671 335.207 140.413 340.517 140.413 347.043V354.028C140.413 355.329 141.467 356.381 142.766 356.381H250.988C252.287 356.381 253.341 355.329 253.341 354.028V347.043C253.341 340.517 248.081 335.207 241.611 335.207ZM248.636 351.675H145.118V347.043C145.118 343.109 148.266 339.912 152.134 339.912H241.611C245.483 339.912 248.636 343.109 248.636 347.043V351.675Z" fill="#EEEBE4"/>
<path d="M248.636 351.675V357.675H254.636V351.675H248.636ZM145.118 351.675H139.118V357.675H145.118V351.675ZM241.611 329.207H152.134V341.207H241.611V329.207ZM152.134 329.207C142.302 329.207 134.413 337.258 134.413 347.043H146.413C146.413 343.775 149.04 341.207 152.134 341.207V329.207ZM134.413 347.043V354.028H146.413V347.043H134.413ZM134.413 354.028C134.413 358.647 138.157 362.381 142.766 362.381V350.381C144.777 350.381 146.413 352.011 146.413 354.028H134.413ZM142.766 362.381H250.988V350.381H142.766V362.381ZM250.988 362.381C255.597 362.381 259.341 358.647 259.341 354.028H247.341C247.341 352.011 248.977 350.381 250.988 350.381V362.381ZM259.341 354.028V347.043H247.341V354.028H259.341ZM259.341 347.043C259.341 337.255 251.447 329.207 241.611 329.207V341.207C244.716 341.207 247.341 343.778 247.341 347.043H259.341ZM248.636 345.675H145.118V357.675H248.636V345.675ZM151.118 351.675V347.043H139.118V351.675H151.118ZM151.118 347.043C151.118 346.332 151.671 345.912 152.134 345.912V333.912C144.862 333.912 139.118 339.887 139.118 347.043H151.118ZM152.134 345.912H241.611V333.912H152.134V345.912ZM241.611 345.912C242.087 345.912 242.636 346.339 242.636 347.043H254.636C254.636 339.879 248.88 333.912 241.611 333.912V345.912ZM242.636 347.043V351.675H254.636V347.043H242.636Z" fill="#EEEBE4" mask="url(#path-3-inside-1_408_153)"/>
<mask id="path-5-inside-2_408_153" fill="white">
<path d="M274.507 188.374L244.504 57.067C244.259 55.9966 243.306 55.239 242.21 55.239H151.55C150.453 55.239 149.5 55.9966 149.256 57.067L119.146 188.816C118.986 189.515 119.153 190.249 119.6 190.807C120.047 191.367 120.725 191.694 121.44 191.694H272.314C272.331 191.694 272.347 191.694 272.361 191.694C273.663 191.694 274.714 190.642 274.714 189.341C274.714 188.998 274.641 188.668 274.507 188.374ZM124.39 186.988L153.425 59.9444H240.332L269.364 186.988H124.39Z"/>
</mask>
<path d="M274.507 188.374L244.504 57.067C244.259 55.9966 243.306 55.239 242.21 55.239H151.55C150.453 55.239 149.5 55.9966 149.256 57.067L119.146 188.816C118.986 189.515 119.153 190.249 119.6 190.807C120.047 191.367 120.725 191.694 121.44 191.694H272.314C272.331 191.694 272.347 191.694 272.361 191.694C273.663 191.694 274.714 190.642 274.714 189.341C274.714 188.998 274.641 188.668 274.507 188.374ZM124.39 186.988L153.425 59.9444H240.332L269.364 186.988H124.39Z" fill="#EEEBE4"/>
<path d="M274.507 188.374L268.658 189.711L268.794 190.307L269.048 190.864L274.507 188.374ZM244.504 57.067L250.353 55.7305L250.353 55.7301L244.504 57.067ZM149.256 57.067L143.407 55.7301L143.407 55.7303L149.256 57.067ZM119.146 188.816L124.995 190.156L124.996 190.153L119.146 188.816ZM119.6 190.807L124.289 187.063L124.282 187.054L119.6 190.807ZM274.714 189.341L280.714 189.341L280.714 189.331L274.714 189.341ZM124.39 186.988L118.541 185.652L116.864 192.988H124.39V186.988ZM153.425 59.9444V53.9444H148.641L147.575 58.6076L153.425 59.9444ZM240.332 59.9444L246.181 58.6077L245.116 53.9444H240.332V59.9444ZM269.364 186.988V192.988H276.89L275.213 185.652L269.364 186.988ZM280.356 187.038L250.353 55.7305L238.654 58.4036L268.658 189.711L280.356 187.038ZM250.353 55.7301C249.483 51.9262 246.099 49.239 242.21 49.239V61.239C240.513 61.239 239.034 60.0669 238.654 58.404L250.353 55.7301ZM242.21 49.239H151.55V61.239H242.21V49.239ZM151.55 49.239C147.66 49.239 144.276 51.9262 143.407 55.7301L155.105 58.404C154.725 60.0669 153.247 61.239 151.55 61.239V49.239ZM143.407 55.7303L113.297 187.48L124.996 190.153L155.105 58.4038L143.407 55.7303ZM113.298 187.477C112.731 189.952 113.319 192.564 114.919 194.56L124.282 187.054C124.988 187.935 125.242 189.078 124.995 190.156L113.298 187.477ZM114.911 194.55C116.492 196.531 118.893 197.694 121.44 197.694V185.694C122.557 185.694 123.602 186.203 124.289 187.063L114.911 194.55ZM121.44 197.694H272.314V185.694H121.44V197.694ZM272.314 197.694C272.314 197.694 272.314 197.694 272.315 197.694C272.315 197.694 272.315 197.694 272.315 197.694C272.315 197.694 272.315 197.694 272.315 197.694C272.315 197.694 272.315 197.694 272.315 197.694C272.315 197.694 272.315 197.694 272.315 197.694C272.315 197.694 272.315 197.694 272.315 197.694C272.315 197.694 272.315 197.694 272.315 197.694C272.315 197.694 272.315 197.694 272.315 197.694C272.315 197.694 272.315 197.694 272.315 197.694C272.315 197.694 272.315 197.694 272.315 197.694C272.315 197.694 272.315 197.694 272.315 197.694C272.316 197.694 272.316 197.694 272.316 197.694C272.316 197.694 272.316 197.694 272.316 197.694C272.316 197.694 272.316 197.694 272.316 197.694C272.316 197.694 272.316 197.694 272.316 197.694C272.316 197.694 272.316 197.694 272.316 197.694C272.316 197.694 272.316 197.694 272.316 197.694C272.316 197.694 272.316 197.694 272.316 197.694C272.316 197.694 272.316 197.694 272.316 197.694C272.316 197.694 272.316 197.694 272.316 197.694C272.316 197.694 272.316 197.694 272.316 197.694C272.316 197.694 272.317 197.694 272.317 197.694C272.317 197.694 272.317 197.694 272.317 197.694C272.317 197.694 272.317 197.694 272.317 197.694C272.317 197.694 272.317 197.694 272.317 197.694C272.317 197.694 272.317 197.694 272.317 197.694C272.317 197.694 272.317 197.694 272.317 197.694C272.317 197.694 272.317 197.694 272.317 197.694C272.317 197.694 272.317 197.694 272.317 197.694C272.317 197.694 272.317 197.694 272.317 197.694C272.317 197.694 272.317 197.694 272.317 197.694C272.317 197.694 272.317 197.694 272.318 197.694C272.318 197.694 272.318 197.694 272.318 197.694C272.318 197.694 272.318 197.694 272.318 197.694C272.318 197.694 272.318 197.694 272.318 197.694C272.318 197.694 272.318 197.694 272.318 197.694C272.318 197.694 272.318 197.694 272.318 197.694C272.318 197.694 272.318 197.694 272.318 197.694C272.318 197.694 272.318 197.694 272.318 197.694C272.318 197.694 272.318 197.694 272.318 197.694C272.318 197.694 272.318 197.694 272.318 197.694C272.318 197.694 272.318 197.694 272.318 197.694C272.319 197.694 272.319 197.694 272.319 197.694C272.319 197.694 272.319 197.694 272.319 197.694C272.319 197.694 272.319 197.694 272.319 197.694C272.319 197.694 272.319 197.694 272.319 197.694C272.319 197.694 272.319 197.694 272.319 197.694C272.319 197.694 272.319 197.694 272.319 197.694C272.319 197.694 272.319 197.694 272.319 197.694C272.319 197.694 272.319 197.694 272.319 197.694C272.319 197.694 272.319 197.694 272.319 197.694C272.319 197.694 272.319 197.694 272.319 197.694C272.319 197.694 272.319 197.694 272.32 197.694C272.32 197.694 272.32 197.694 272.32 197.694C272.32 197.694 272.32 197.694 272.32 197.694C272.32 197.694 272.32 197.694 272.32 197.694C272.32 197.694 272.32 197.694 272.32 197.694C272.32 197.694 272.32 197.694 272.32 197.694C272.32 197.694 272.32 197.694 272.32 197.694C272.32 197.694 272.32 197.694 272.32 197.694C272.32 197.694 272.32 197.694 272.32 197.694C272.32 197.694 272.32 197.694 272.32 197.694C272.32 197.694 272.32 197.694 272.32 197.694C272.321 197.694 272.321 197.694 272.321 197.694C272.321 197.694 272.321 197.694 272.321 197.694C272.321 197.694 272.321 197.694 272.321 197.694C272.321 197.694 272.321 197.694 272.321 197.694C272.321 197.694 272.321 197.694 272.321 197.694C272.321 197.694 272.321 197.694 272.321 197.694C272.321 197.694 272.321 197.694 272.321 197.694C272.321 197.694 272.321 197.694 272.321 197.694C272.321 197.694 272.321 197.694 272.321 197.694C272.321 197.694 272.321 197.694 272.321 197.694C272.321 197.694 272.322 197.694 272.322 197.694C272.322 197.694 272.322 197.694 272.322 197.694C272.322 197.694 272.322 197.694 272.322 197.694C272.322 197.694 272.322 197.694 272.322 197.694C272.322 197.694 272.322 197.694 272.322 197.694C272.322 197.694 272.322 197.694 272.322 197.694C272.322 197.694 272.322 197.694 272.322 197.694C272.322 197.694 272.322 197.694 272.322 197.694C272.322 197.694 272.322 197.694 272.322 197.694C272.322 197.694 272.322 197.694 272.322 197.694C272.322 197.694 272.322 197.694 272.323 197.694C272.323 197.694 272.323 197.694 272.323 197.694C272.323 197.694 272.323 197.694 272.323 197.694C272.323 197.694 272.323 197.694 272.323 197.694C272.323 197.694 272.323 197.694 272.323 197.694C272.323 197.694 272.323 197.694 272.323 197.694C272.323 197.694 272.323 197.694 272.323 197.694C272.323 197.694 272.323 197.694 272.323 197.694C272.323 197.694 272.323 197.694 272.323 197.694C272.323 197.694 272.323 197.694 272.323 197.694C272.323 197.694 272.323 197.694 272.323 197.694C272.324 197.694 272.324 197.694 272.324 197.694C272.324 197.694 272.324 197.694 272.324 197.694C272.324 197.694 272.324 197.694 272.324 197.694C272.324 197.694 272.324 197.694 272.324 197.694C272.324 197.694 272.324 197.694 272.324 197.694C272.324 197.694 272.324 197.694 272.324 197.694C272.324 197.694 272.324 197.694 272.324 197.694C272.324 197.694 272.324 197.694 272.324 197.694C272.324 197.694 272.324 197.694 272.324 197.694C272.324 197.694 272.324 197.694 272.324 197.694C272.324 197.694 272.324 197.694 272.325 197.694C272.325 197.694 272.325 197.694 272.325 197.694C272.325 197.694 272.325 197.694 272.325 197.694C272.325 197.694 272.325 197.694 272.325 197.694C272.325 197.694 272.325 197.694 272.325 197.694C272.325 197.694 272.325 197.694 272.325 197.694C272.325 197.694 272.325 197.694 272.325 197.694C272.325 197.694 272.325 197.694 272.325 197.694C272.325 197.694 272.325 197.694 272.325 197.694C272.325 197.694 272.325 197.694 272.325 197.694C272.325 197.694 272.325 197.694 272.325 197.694C272.326 197.694 272.326 197.694 272.326 197.694C272.326 197.694 272.326 197.694 272.326 197.694C272.326 197.694 272.326 197.694 272.326 197.694C272.326 197.694 272.326 197.694 272.326 197.694C272.326 197.694 272.326 197.694 272.326 197.694C272.326 197.694 272.326 197.694 272.326 197.694C272.326 197.694 272.326 197.694 272.326 197.694C272.326 197.694 272.326 197.694 272.326 197.694C272.326 197.694 272.326 197.694 272.326 197.694C272.326 197.694 272.326 197.694 272.326 197.694C272.326 197.694 272.327 197.694 272.327 197.694C272.327 197.694 272.327 197.694 272.327 197.694C272.327 197.694 272.327 197.694 272.327 197.694C272.327 197.694 272.327 197.694 272.327 197.694C272.327 197.694 272.327 197.694 272.327 197.694C272.327 197.694 272.327 197.694 272.327 197.694C272.327 197.694 272.327 197.694 272.327 197.694C272.327 197.694 272.327 197.694 272.327 197.694C272.327 197.694 272.327 197.694 272.327 197.694C272.327 197.694 272.327 197.694 272.327 197.694C272.327 197.694 272.327 197.694 272.327 197.694C272.328 197.694 272.328 197.694 272.328 197.694C272.328 197.694 272.328 197.694 272.328 197.694C272.328 197.694 272.328 197.694 272.328 197.694C272.328 197.694 272.328 197.694 272.328 197.694C272.328 197.694 272.328 197.694 272.328 197.694C272.328 197.694 272.328 197.694 272.328 197.694C272.328 197.694 272.328 197.694 272.328 197.694C272.328 197.694 272.328 197.694 272.328 197.694C272.328 197.694 272.328 197.694 272.328 197.694C272.328 197.694 272.328 197.694 272.328 197.694C272.328 197.694 272.329 197.694 272.329 197.694C272.329 197.694 272.329 197.694 272.329 197.694C272.329 197.694 272.329 197.694 272.329 197.694C272.329 197.694 272.329 197.694 272.329 197.694C272.329 197.694 272.329 197.694 272.329 197.694C272.329 197.694 272.329 197.694 272.329 197.694C272.329 197.694 272.329 197.694 272.329 197.694C272.329 197.694 272.329 197.694 272.329 197.694C272.329 197.694 272.329 197.694 272.329 197.694C272.329 197.694 272.329 197.694 272.329 197.694C272.329 197.694 272.329 197.694 272.33 197.694C272.33 197.694 272.33 197.694 272.33 197.694C272.33 197.694 272.33 197.694 272.33 197.694C272.33 197.694 272.33 197.694 272.33 197.694C272.33 197.694 272.33 197.694 272.33 197.694C272.33 197.694 272.33 197.694 272.33 197.694C272.33 197.694 272.33 197.694 272.33 197.694C272.33 197.694 272.33 197.694 272.33 197.694C272.33 197.694 272.33 197.694 272.33 197.694C272.33 197.694 272.33 197.694 272.33 197.694C272.33 197.694 272.33 197.694 272.33 197.694C272.33 197.694 272.331 197.694 272.331 197.694C272.331 197.694 272.331 197.694 272.331 197.694C272.331 197.694 272.331 197.694 272.331 197.694C272.331 197.694 272.331 197.694 272.331 197.694C272.331 197.694 272.331 197.694 272.331 197.694C272.331 197.694 272.331 197.694 272.331 197.694C272.331 197.694 272.331 197.694 272.331 197.694C272.331 197.694 272.331 197.694 272.331 197.694C272.331 197.694 272.331 197.694 272.331 197.694C272.331 197.694 272.331 197.694 272.331 197.694C272.331 197.694 272.331 197.694 272.331 197.694C272.332 197.694 272.332 197.694 272.332 197.694C272.332 197.694 272.332 197.694 272.332 197.694C272.332 197.694 272.332 197.694 272.332 197.694C272.332 197.694 272.332 197.694 272.332 197.694C272.332 197.694 272.332 197.694 272.332 197.694C272.332 197.694 272.332 197.694 272.332 197.694C272.332 197.694 272.332 197.694 272.332 197.694C272.332 197.694 272.332 197.694 272.332 197.694C272.332 197.694 272.332 197.694 272.332 197.694C272.332 197.694 272.332 197.694 272.332 197.694C272.332 197.694 272.333 197.694 272.333 197.694C272.333 197.694 272.333 197.694 272.333 197.694C272.333 197.694 272.333 197.694 272.333 197.694C272.333 197.694 272.333 197.694 272.333 197.694C272.333 197.694 272.333 197.694 272.333 197.694C272.333 197.694 272.333 197.694 272.333 197.694C272.333 197.694 272.333 197.694 272.333 197.694C272.333 197.694 272.333 197.694 272.333 197.694C272.333 197.694 272.333 197.694 272.333 197.694C272.333 197.694 272.333 197.694 272.333 197.694C272.333 197.694 272.333 197.694 272.333 197.694C272.334 197.694 272.334 197.694 272.334 197.694C272.334 197.694 272.334 197.694 272.334 197.694C272.334 197.694 272.334 197.694 272.334 197.694C272.334 197.694 272.334 197.694 272.334 197.694C272.334 197.694 272.334 197.694 272.334 197.694C272.334 197.694 272.334 197.694 272.334 197.694C272.334 197.694 272.334 197.694 272.334 197.694C272.334 197.694 272.334 197.694 272.334 197.694C272.334 197.694 272.334 197.694 272.334 197.694C272.334 197.694 272.334 197.694 272.334 197.694C272.334 197.694 272.334 197.694 272.335 197.694C272.335 197.694 272.335 197.694 272.335 197.694C272.335 197.694 272.335 197.694 272.335 197.694C272.335 197.694 272.335 197.694 272.335 197.694C272.335 197.694 272.335 197.694 272.335 197.694C272.335 197.694 272.335 197.694 272.335 197.694C272.335 197.694 272.335 197.694 272.335 197.694C272.335 197.694 272.335 197.694 272.335 197.694C272.335 197.694 272.335 197.694 272.335 197.694C272.335 197.694 272.335 197.694 272.335 197.694C272.335 197.694 272.335 197.694 272.335 197.694C272.335 197.694 272.336 197.694 272.336 197.694C272.336 197.694 272.336 197.694 272.336 197.694C272.336 197.694 272.336 197.694 272.336 197.694C272.336 197.694 272.336 197.694 272.336 197.694C272.336 197.694 272.336 197.694 272.336 197.694C272.336 197.694 272.336 197.694 272.336 197.694C272.336 197.694 272.336 197.694 272.336 197.694C272.336 197.694 272.336 197.694 272.336 197.694C272.336 197.694 272.336 197.694 272.336 197.694C272.336 197.694 272.336 197.694 272.336 197.694C272.336 197.694 272.336 197.694 272.336 197.694C272.337 197.694 272.337 197.694 272.337 197.694C272.337 197.694 272.337 197.694 272.337 197.694C272.337 197.694 272.337 197.694 272.337 197.694C272.337 197.694 272.337 197.694 272.337 197.694C272.337 197.694 272.337 197.694 272.337 197.694C272.337 197.694 272.337 197.694 272.337 197.694C272.337 197.694 272.337 197.694 272.337 197.694C272.337 197.694 272.337 197.694 272.337 197.694C272.337 197.694 272.337 197.694 272.337 197.694C272.337 197.694 272.337 197.694 272.337 197.694C272.337 197.694 272.337 197.694 272.338 197.694C272.338 197.694 272.338 197.694 272.338 197.694C272.338 197.694 272.338 197.694 272.338 197.694C272.338 197.694 272.338 197.694 272.338 197.694C272.338 197.694 272.338 197.694 272.338 197.694C272.338 197.694 272.338 197.694 272.338 197.694C272.338 197.694 272.338 197.694 272.338 197.694C272.338 197.694 272.338 197.694 272.338 197.694C272.338 197.694 272.338 197.694 272.338 197.694C272.338 197.694 272.338 197.694 272.338 197.694C272.338 197.694 272.338 197.694 272.338 197.694C272.338 197.694 272.339 197.694 272.339 197.694C272.339 197.694 272.339 197.694 272.339 197.694C272.339 197.694 272.339 197.694 272.339 197.694C272.339 197.694 272.339 197.694 272.339 197.694C272.339 197.694 272.339 197.694 272.339 197.694C272.339 197.694 272.339 197.694 272.339 197.694C272.339 197.694 272.339 197.694 272.339 197.694C272.339 197.694 272.339 197.694 272.339 197.694C272.339 197.694 272.339 197.694 272.339 197.694C272.339 197.694 272.339 197.694 272.339 197.694C272.339 197.694 272.339 197.694 272.339 197.694C272.34 197.694 272.34 197.694 272.34 197.694C272.34 197.694 272.34 197.694 272.34 197.694C272.34 197.694 272.34 197.694 272.34 197.694C272.34 197.694 272.34 197.694 272.34 197.694C272.34 197.694 272.34 197.694 272.34 197.694C272.34 197.694 272.34 197.694 272.34 197.694C272.34 197.694 272.34 197.694 272.34 197.694C272.34 197.694 272.34 197.694 272.34 197.694C272.34 197.694 272.34 197.694 272.34 197.694C272.34 197.694 272.34 197.694 272.34 197.694C272.34 197.694 272.34 197.694 272.341 197.694C272.341 197.694 272.341 197.694 272.341 197.694C272.341 197.694 272.341 197.694 272.341 197.694C272.341 197.694 272.341 197.694 272.341 197.694C272.341 197.694 272.341 197.694 272.341 197.694C272.341 197.694 272.341 197.694 272.341 197.694C272.341 197.694 272.341 197.694 272.341 197.694C272.341 197.694 272.341 197.694 272.341 197.694C272.341 197.694 272.341 197.694 272.341 197.694C272.341 197.694 272.341 197.694 272.341 197.694C272.341 197.694 272.341 197.694 272.341 197.694C272.341 197.694 272.341 197.694 272.342 197.694C272.342 197.694 272.342 197.694 272.342 197.694C272.342 197.694 272.342 197.694 272.342 197.694C272.342 197.694 272.342 197.694 272.342 197.694C272.342 197.694 272.342 197.694 272.342 197.694C272.342 197.694 272.342 197.694 272.342 197.694C272.342 197.694 272.342 197.694 272.342 197.694C272.342 197.694 272.342 197.694 272.342 197.694C272.342 197.694 272.342 197.694 272.342 197.694C272.342 197.694 272.342 197.694 272.342 197.694C272.342 197.694 272.342 197.694 272.342 197.694C272.342 197.694 272.343 197.694 272.343 197.694C272.343 197.694 272.343 197.694 272.343 197.694C272.343 197.694 272.343 197.694 272.343 197.694C272.343 197.694 272.343 197.694 272.343 197.694C272.343 197.694 272.343 197.694 272.343 197.694C272.343 197.694 272.343 197.694 272.343 197.694C272.343 197.694 272.343 197.694 272.343 197.694C272.343 197.694 272.343 197.694 272.343 197.694C272.343 197.694 272.343 197.694 272.343 197.694C272.343 197.694 272.343 197.694 272.343 197.694C272.343 197.694 272.343 197.694 272.343 197.694C272.343 197.694 272.344 197.694 272.344 197.694C272.344 197.694 272.344 197.694 272.344 197.694C272.344 197.694 272.344 197.694 272.344 197.694C272.344 197.694 272.344 197.694 272.344 197.694C272.344 197.694 272.344 197.694 272.344 197.694C272.344 197.694 272.344 197.694 272.344 197.694C272.344 197.694 272.344 197.694 272.344 197.694C272.344 197.694 272.344 197.694 272.344 197.694C272.344 197.694 272.344 197.694 272.344 197.694C272.344 197.694 272.344 197.694 272.344 197.694C272.344 197.694 272.344 197.694 272.344 197.694C272.344 197.694 272.345 197.694 272.345 197.694C272.345 197.694 272.345 197.694 272.345 197.694C272.345 197.694 272.345 197.694 272.345 197.694C272.345 197.694 272.345 197.694 272.345 197.694C272.345 197.694 272.345 197.694 272.345 197.694C272.345 197.694 272.345 197.694 272.345 197.694C272.345 197.694 272.345 197.694 272.345 197.694C272.345 197.694 272.345 197.694 272.345 197.694C272.345 197.694 272.345 197.694 272.345 197.694C272.345 197.694 272.345 197.694 272.345 197.694C272.345 197.694 272.345 197.694 272.345 197.694C272.345 197.694 272.346 197.694 272.346 197.694C272.346 197.694 272.346 197.694 272.346 197.694C272.346 197.694 272.346 197.694 272.346 197.694C272.346 197.694 272.346 197.694 272.346 197.694C272.346 197.694 272.346 197.694 272.346 197.694C272.346 197.694 272.346 197.694 272.346 197.694C272.346 197.694 272.346 197.694 272.346 197.694C272.346 197.694 272.346 197.694 272.346 197.694C272.346 197.694 272.346 197.694 272.346 197.694C272.346 197.694 272.346 197.694 272.346 197.694C272.346 197.694 272.346 197.694 272.346 197.694C272.346 197.694 272.347 197.694 272.347 197.694C272.347 197.694 272.347 197.694 272.347 197.694C272.347 197.694 272.347 197.694 272.347 197.694C272.347 197.694 272.347 197.694 272.347 197.694C272.347 197.694 272.347 197.694 272.347 197.694C272.347 197.694 272.347 197.694 272.347 197.694C272.347 197.694 272.347 197.694 272.347 197.694C272.347 197.694 272.347 197.694 272.347 197.694C272.347 197.694 272.347 197.694 272.347 197.694C272.347 197.694 272.347 197.694 272.347 197.694C272.347 197.694 272.347 197.694 272.347 197.694C272.347 197.694 272.348 197.694 272.348 197.694C272.348 197.694 272.348 197.694 272.348 197.694C272.348 197.694 272.348 197.694 272.348 197.694C272.348 197.694 272.348 197.694 272.348 197.694C272.348 197.694 272.348 197.694 272.348 197.694C272.348 197.694 272.348 197.694 272.348 197.694C272.348 197.694 272.348 197.694 272.348 197.694C272.348 197.694 272.348 197.694 272.348 197.694C272.348 197.694 272.348 197.694 272.348 197.694C272.348 197.694 272.348 197.694 272.348 197.694C272.348 197.694 272.348 197.694 272.348 197.694C272.348 197.694 272.348 197.694 272.349 197.694C272.349 197.694 272.349 197.694 272.349 197.694C272.349 197.694 272.349 197.694 272.349 197.694C272.349 197.694 272.349 197.694 272.349 197.694C272.349 197.694 272.349 197.694 272.349 197.694C272.349 197.694 272.349 197.694 272.349 197.694C272.349 197.694 272.349 197.694 272.349 197.694C272.349 197.694 272.349 197.694 272.349 197.694C272.349 197.694 272.349 197.694 272.349 197.694C272.349 197.694 272.349 197.694 272.349 197.694C272.349 197.694 272.349 197.694 272.349 197.694C272.349 197.694 272.349 197.694 272.35 197.694C272.35 197.694 272.35 197.694 272.35 197.694C272.35 197.694 272.35 197.694 272.35 197.694C272.35 197.694 272.35 197.694 272.35 197.694C272.35 197.694 272.35 197.694 272.35 197.694C272.35 197.694 272.35 197.694 272.35 197.694C272.35 197.694 272.35 197.694 272.35 197.694C272.35 197.694 272.35 197.694 272.35 197.694C272.35 197.694 272.35 197.694 272.35 197.694C272.35 197.694 272.35 197.694 272.35 197.694C272.35 197.694 272.35 197.694 272.35 197.694C272.35 197.694 272.35 197.694 272.35 197.694C272.351 197.694 272.351 197.694 272.351 197.694C272.351 197.694 272.351 197.694 272.351 197.694C272.351 197.694 272.351 197.694 272.351 197.694C272.351 197.694 272.351 197.694 272.351 197.694C272.351 197.694 272.351 197.694 272.351 197.694C272.351 197.694 272.351 197.694 272.351 197.694C272.351 197.694 272.351 197.694 272.351 197.694C272.351 197.694 272.351 197.694 272.351 197.694C272.351 197.694 272.351 197.694 272.351 197.694C272.351 197.694 272.351 197.694 272.351 197.694C272.351 197.694 272.351 197.694 272.351 197.694C272.351 197.694 272.352 197.694 272.352 197.694C272.352 197.694 272.352 197.694 272.352 197.694C272.352 197.694 272.352 197.694 272.352 197.694C272.352 197.694 272.352 197.694 272.352 197.694C272.352 197.694 272.352 197.694 272.352 197.694C272.352 197.694 272.352 197.694 272.352 197.694C272.352 197.694 272.352 197.694 272.352 197.694C272.352 197.694 272.352 197.694 272.352 197.694C272.352 197.694 272.352 197.694 272.352 197.694C272.352 197.694 272.352 197.694 272.352 197.694C272.352 197.694 272.352 197.694 272.352 197.694C272.352 197.694 272.352 197.694 272.353 197.694C272.353 197.694 272.353 197.694 272.353 197.694C272.353 197.694 272.353 197.694 272.353 197.694C272.353 197.694 272.353 197.694 272.353 197.694C272.353 197.694 272.353 197.694 272.353 197.694C272.353 197.694 272.353 197.694 272.353 197.694C272.353 197.694 272.353 197.694 272.353 197.694C272.353 197.694 272.353 197.694 272.353 197.694C272.353 197.694 272.353 197.694 272.353 197.694C272.353 197.694 272.353 197.694 272.353 197.694C272.353 197.694 272.353 197.694 272.353 197.694C272.353 197.694 272.353 197.694 272.353 197.694C272.354 197.694 272.354 197.694 272.354 197.694C272.354 197.694 272.354 197.694 272.354 197.694C272.354 197.694 272.354 197.694 272.354 197.694C272.354 197.694 272.354 197.694 272.354 197.694C272.354 197.694 272.354 197.694 272.354 197.694C272.354 197.694 272.354 197.694 272.354 197.694C272.354 197.694 272.354 197.694 272.354 197.694C272.354 197.694 272.354 197.694 272.354 197.694C272.354 197.694 272.354 197.694 272.354 197.694C272.354 197.694 272.354 197.694 272.354 197.694C272.354 197.694 272.354 197.694 272.354 197.694C272.354 197.694 272.354 197.694 272.355 197.694C272.355 197.694 272.355 197.694 272.355 197.694C272.355 197.694 272.355 197.694 272.355 197.694C272.355 197.694 272.355 197.694 272.355 197.694C272.355 197.694 272.355 197.694 272.355 197.694C272.355 197.694 272.355 197.694 272.355 197.694C272.355 197.694 272.355 197.694 272.355 197.694C272.355 197.694 272.355 197.694 272.355 197.694C272.355 197.694 272.355 197.694 272.355 197.694C272.355 197.694 272.355 197.694 272.355 197.694C272.355 197.694 272.355 197.694 272.355 197.694C272.355 197.694 272.355 197.694 272.355 197.694C272.356 197.694 272.356 197.694 272.356 197.694C272.356 197.694 272.356 197.694 272.356 197.694C272.356 197.694 272.356 197.694 272.356 197.694C272.356 197.694 272.356 197.694 272.356 197.694C272.356 197.694 272.356 197.694 272.356 197.694C272.356 197.694 272.356 197.694 272.356 197.694C272.356 197.694 272.356 197.694 272.356 197.694C272.356 197.694 272.356 197.694 272.356 197.694C272.356 197.694 272.356 197.694 272.356 197.694C272.356 197.694 272.356 197.694 272.356 197.694C272.356 197.694 272.356 197.694 272.356 197.694C272.356 197.694 272.356 197.694 272.357 197.694C272.357 197.694 272.357 197.694 272.357 197.694C272.357 197.694 272.357 197.694 272.357 197.694C272.357 197.694 272.357 197.694 272.357 197.694C272.357 197.694 272.357 197.694 272.357 197.694C272.357 197.694 272.357 197.694 272.357 197.694C272.357 197.694 272.357 197.694 272.357 197.694C272.357 197.694 272.357 197.694 272.357 197.694C272.357 197.694 272.357 197.694 272.357 197.694C272.357 197.694 272.357 197.694 272.357 197.694C272.357 197.694 272.357 197.694 272.357 197.694C272.357 197.694 272.357 197.694 272.357 197.694C272.357 197.694 272.358 197.694 272.358 197.694C272.358 197.694 272.358 197.694 272.358 197.694C272.358 197.694 272.358 197.694 272.358 197.694C272.358 197.694 272.358 197.694 272.358 197.694C272.358 197.694 272.358 197.694 272.358 197.694C272.358 197.694 272.358 197.694 272.358 197.694C272.358 197.694 272.358 197.694 272.358 197.694C272.358 197.694 272.358 197.694 272.358 197.694C272.358 197.694 272.358 197.694 272.358 197.694C272.358 197.694 272.358 197.694 272.358 197.694C272.358 197.694 272.358 197.694 272.358 197.694C272.358 197.694 272.358 197.694 272.358 197.694C272.358 197.694 272.359 197.694 272.359 197.694C272.359 197.694 272.359 197.694 272.359 197.694C272.359 197.694 272.359 197.694 272.359 197.694C272.359 197.694 272.359 197.694 272.359 197.694C272.359 197.694 272.359 197.694 272.359 197.694C272.359 197.694 272.359 197.694 272.359 197.694C272.359 197.694 272.359 197.694 272.359 197.694C272.359 197.694 272.359 197.694 272.359 197.694C272.359 197.694 272.359 197.694 272.359 197.694C272.359 197.694 272.359 197.694 272.359 197.694C272.359 197.694 272.359 197.694 272.359 197.694C272.359 197.694 272.359 197.694 272.359 197.694C272.36 197.694 272.36 197.694 272.36 197.694C272.36 197.694 272.36 197.694 272.36 197.694C272.36 197.694 272.36 197.694 272.36 197.694C272.36 197.694 272.36 197.694 272.36 197.694C272.36 197.694 272.36 197.694 272.36 197.694C272.36 197.694 272.36 197.694 272.36 197.694C272.36 197.694 272.36 197.694 272.36 197.694C272.36 197.694 272.36 197.694 272.36 197.694C272.36 197.694 272.36 197.694 272.36 197.694C272.36 197.694 272.36 197.694 272.36 197.694C272.36 197.694 272.36 197.694 272.36 197.694C272.36 197.694 272.36 197.694 272.36 197.694C272.361 197.694 272.361 197.694 272.361 197.694C272.361 197.694 272.361 197.694 272.361 197.694C272.361 197.694 272.361 197.694 272.361 197.694C272.361 197.694 272.361 197.694 272.361 197.694C272.361 197.694 272.361 197.694 272.361 197.694C272.361 197.694 272.361 197.694 272.361 197.694C272.361 197.694 272.361 197.694 272.361 197.694C272.361 197.694 272.361 197.694 272.361 197.694C272.361 197.694 272.361 197.694 272.361 197.694C272.361 197.694 272.361 197.694 272.361 197.694C272.361 197.694 272.361 197.694 272.361 197.694C272.361 197.694 272.361 197.694 272.361 197.694V185.694C272.361 185.694 272.361 185.694 272.361 185.694C272.361 185.694 272.361 185.694 272.361 185.694C272.361 185.694 272.361 185.694 272.361 185.694C272.361 185.694 272.361 185.694 272.361 185.694C272.361 185.694 272.361 185.694 272.361 185.694C272.361 185.694 272.361 185.694 272.361 185.694C272.361 185.694 272.361 185.694 272.361 185.694C272.361 185.694 272.361 185.694 272.361 185.694C272.361 185.694 272.361 185.694 272.361 185.694C272.361 185.694 272.361 185.694 272.361 185.694C272.361 185.694 272.361 185.694 272.361 185.694C272.361 185.694 272.361 185.694 272.36 185.694C272.36 185.694 272.36 185.694 272.36 185.694C272.36 185.694 272.36 185.694 272.36 185.694C272.36 185.694 272.36 185.694 272.36 185.694C272.36 185.694 272.36 185.694 272.36 185.694C272.36 185.694 272.36 185.694 272.36 185.694C272.36 185.694 272.36 185.694 272.36 185.694C272.36 185.694 272.36 185.694 272.36 185.694C272.36 185.694 272.36 185.694 272.36 185.694C272.36 185.694 272.36 185.694 272.36 185.694C272.36 185.694 272.36 185.694 272.36 185.694C272.36 185.694 272.36 185.694 272.36 185.694C272.36 185.694 272.36 185.694 272.359 185.694C272.359 185.694 272.359 185.694 272.359 185.694C272.359 185.694 272.359 185.694 272.359 185.694C272.359 185.694 272.359 185.694 272.359 185.694C272.359 185.694 272.359 185.694 272.359 185.694C272.359 185.694 272.359 185.694 272.359 185.694C272.359 185.694 272.359 185.694 272.359 185.694C272.359 185.694 272.359 185.694 272.359 185.694C272.359 185.694 272.359 185.694 272.359 185.694C272.359 185.694 272.359 185.694 272.359 185.694C272.359 185.694 272.359 185.694 272.359 185.694C272.359 185.694 272.359 185.694 272.359 185.694C272.359 185.694 272.358 185.694 272.358 185.694C272.358 185.694 272.358 185.694 272.358 185.694C272.358 185.694 272.358 185.694 272.358 185.694C272.358 185.694 272.358 185.694 272.358 185.694C272.358 185.694 272.358 185.694 272.358 185.694C272.358 185.694 272.358 185.694 272.358 185.694C272.358 185.694 272.358 185.694 272.358 185.694C272.358 185.694 272.358 185.694 272.358 185.694C272.358 185.694 272.358 185.694 272.358 185.694C272.358 185.694 272.358 185.694 272.358 185.694C272.358 185.694 272.358 185.694 272.358 185.694C272.358 185.694 272.358 185.694 272.358 185.694C272.358 185.694 272.357 185.694 272.357 185.694C272.357 185.694 272.357 185.694 272.357 185.694C272.357 185.694 272.357 185.694 272.357 185.694C272.357 185.694 272.357 185.694 272.357 185.694C272.357 185.694 272.357 185.694 272.357 185.694C272.357 185.694 272.357 185.694 272.357 185.694C272.357 185.694 272.357 185.694 272.357 185.694C272.357 185.694 272.357 185.694 272.357 185.694C272.357 185.694 272.357 185.694 272.357 185.694C272.357 185.694 272.357 185.694 272.357 185.694C272.357 185.694 272.357 185.694 272.357 185.694C272.357 185.694 272.357 185.694 272.357 185.694C272.356 185.694 272.356 185.694 272.356 185.694C272.356 185.694 272.356 185.694 272.356 185.694C272.356 185.694 272.356 185.694 272.356 185.694C272.356 185.694 272.356 185.694 272.356 185.694C272.356 185.694 272.356 185.694 272.356 185.694C272.356 185.694 272.356 185.694 272.356 185.694C272.356 185.694 272.356 185.694 272.356 185.694C272.356 185.694 272.356 185.694 272.356 185.694C272.356 185.694 272.356 185.694 272.356 185.694C272.356 185.694 272.356 185.694 272.356 185.694C272.356 185.694 272.356 185.694 272.356 185.694C272.356 185.694 272.356 185.694 272.355 185.694C272.355 185.694 272.355 185.694 272.355 185.694C272.355 185.694 272.355 185.694 272.355 185.694C272.355 185.694 272.355 185.694 272.355 185.694C272.355 185.694 272.355 185.694 272.355 185.694C272.355 185.694 272.355 185.694 272.355 185.694C272.355 185.694 272.355 185.694 272.355 185.694C272.355 185.694 272.355 185.694 272.355 185.694C272.355 185.694 272.355 185.694 272.355 185.694C272.355 185.694 272.355 185.694 272.355 185.694C272.355 185.694 272.355 185.694 272.355 185.694C272.355 185.694 272.355 185.694 272.355 185.694C272.354 185.694 272.354 185.694 272.354 185.694C272.354 185.694 272.354 185.694 272.354 185.694C272.354 185.694 272.354 185.694 272.354 185.694C272.354 185.694 272.354 185.694 272.354 185.694C272.354 185.694 272.354 185.694 272.354 185.694C272.354 185.694 272.354 185.694 272.354 185.694C272.354 185.694 272.354 185.694 272.354 185.694C272.354 185.694 272.354 185.694 272.354 185.694C272.354 185.694 272.354 185.694 272.354 185.694C272.354 185.694 272.354 185.694 272.354 185.694C272.354 185.694 272.354 185.694 272.354 185.694C272.354 185.694 272.354 185.694 272.353 185.694C272.353 185.694 272.353 185.694 272.353 185.694C272.353 185.694 272.353 185.694 272.353 185.694C272.353 185.694 272.353 185.694 272.353 185.694C272.353 185.694 272.353 185.694 272.353 185.694C272.353 185.694 272.353 185.694 272.353 185.694C272.353 185.694 272.353 185.694 272.353 185.694C272.353 185.694 272.353 185.694 272.353 185.694C272.353 185.694 272.353 185.694 272.353 185.694C272.353 185.694 272.353 185.694 272.353 185.694C272.353 185.694 272.353 185.694 272.353 185.694C272.353 185.694 272.353 185.694 272.353 185.694C272.352 185.694 272.352 185.694 272.352 185.694C272.352 185.694 272.352 185.694 272.352 185.694C272.352 185.694 272.352 185.694 272.352 185.694C272.352 185.694 272.352 185.694 272.352 185.694C272.352 185.694 272.352 185.694 272.352 185.694C272.352 185.694 272.352 185.694 272.352 185.694C272.352 185.694 272.352 185.694 272.352 185.694C272.352 185.694 272.352 185.694 272.352 185.694C272.352 185.694 272.352 185.694 272.352 185.694C272.352 185.694 272.352 185.694 272.352 185.694C272.352 185.694 272.352 185.694 272.352 185.694C272.352 185.694 272.351 185.694 272.351 185.694C272.351 185.694 272.351 185.694 272.351 185.694C272.351 185.694 272.351 185.694 272.351 185.694C272.351 185.694 272.351 185.694 272.351 185.694C272.351 185.694 272.351 185.694 272.351 185.694C272.351 185.694 272.351 185.694 272.351 185.694C272.351 185.694 272.351 185.694 272.351 185.694C272.351 185.694 272.351 185.694 272.351 185.694C272.351 185.694 272.351 185.694 272.351 185.694C272.351 185.694 272.351 185.694 272.351 185.694C272.351 185.694 272.351 185.694 272.351 185.694C272.351 185.694 272.351 185.694 272.35 185.694C272.35 185.694 272.35 185.694 272.35 185.694C272.35 185.694 272.35 185.694 272.35 185.694C272.35 185.694 272.35 185.694 272.35 185.694C272.35 185.694 272.35 185.694 272.35 185.694C272.35 185.694 272.35 185.694 272.35 185.694C272.35 185.694 272.35 185.694 272.35 185.694C272.35 185.694 272.35 185.694 272.35 185.694C272.35 185.694 272.35 185.694 272.35 185.694C272.35 185.694 272.35 185.694 272.35 185.694C272.35 185.694 272.35 185.694 272.35 185.694C272.35 185.694 272.35 185.694 272.35 185.694C272.349 185.694 272.349 185.694 272.349 185.694C272.349 185.694 272.349 185.694 272.349 185.694C272.349 185.694 272.349 185.694 272.349 185.694C272.349 185.694 272.349 185.694 272.349 185.694C272.349 185.694 272.349 185.694 272.349 185.694C272.349 185.694 272.349 185.694 272.349 185.694C272.349 185.694 272.349 185.694 272.349 185.694C272.349 185.694 272.349 185.694 272.349 185.694C272.349 185.694 272.349 185.694 272.349 185.694C272.349 185.694 272.349 185.694 272.349 185.694C272.349 185.694 272.349 185.694 272.349 185.694C272.348 185.694 272.348 185.694 272.348 185.694C272.348 185.694 272.348 185.694 272.348 185.694C272.348 185.694 272.348 185.694 272.348 185.694C272.348 185.694 272.348 185.694 272.348 185.694C272.348 185.694 272.348 185.694 272.348 185.694C272.348 185.694 272.348 185.694 272.348 185.694C272.348 185.694 272.348 185.694 272.348 185.694C272.348 185.694 272.348 185.694 272.348 185.694C272.348 185.694 272.348 185.694 272.348 185.694C272.348 185.694 272.348 185.694 272.348 185.694C272.348 185.694 272.348 185.694 272.348 185.694C272.348 185.694 272.347 185.694 272.347 185.694C272.347 185.694 272.347 185.694 272.347 185.694C272.347 185.694 272.347 185.694 272.347 185.694C272.347 185.694 272.347 185.694 272.347 185.694C272.347 185.694 272.347 185.694 272.347 185.694C272.347 185.694 272.347 185.694 272.347 185.694C272.347 185.694 272.347 185.694 272.347 185.694C272.347 185.694 272.347 185.694 272.347 185.694C272.347 185.694 272.347 185.694 272.347 185.694C272.347 185.694 272.347 185.694 272.347 185.694C272.347 185.694 272.347 185.694 272.347 185.694C272.347 185.694 272.346 185.694 272.346 185.694C272.346 185.694 272.346 185.694 272.346 185.694C272.346 185.694 272.346 185.694 272.346 185.694C272.346 185.694 272.346 185.694 272.346 185.694C272.346 185.694 272.346 185.694 272.346 185.694C272.346 185.694 272.346 185.694 272.346 185.694C272.346 185.694 272.346 185.694 272.346 185.694C272.346 185.694 272.346 185.694 272.346 185.694C272.346 185.694 272.346 185.694 272.346 185.694C272.346 185.694 272.346 185.694 272.346 185.694C272.346 185.694 272.346 185.694 272.346 185.694C272.346 185.694 272.345 185.694 272.345 185.694C272.345 185.694 272.345 185.694 272.345 185.694C272.345 185.694 272.345 185.694 272.345 185.694C272.345 185.694 272.345 185.694 272.345 185.694C272.345 185.694 272.345 185.694 272.345 185.694C272.345 185.694 272.345 185.694 272.345 185.694C272.345 185.694 272.345 185.694 272.345 185.694C272.345 185.694 272.345 185.694 272.345 185.694C272.345 185.694 272.345 185.694 272.345 185.694C272.345 185.694 272.345 185.694 272.345 185.694C272.345 185.694 272.345 185.694 272.345 185.694C272.345 185.694 272.344 185.694 272.344 185.694C272.344 185.694 272.344 185.694 272.344 185.694C272.344 185.694 272.344 185.694 272.344 185.694C272.344 185.694 272.344 185.694 272.344 185.694C272.344 185.694 272.344 185.694 272.344 185.694C272.344 185.694 272.344 185.694 272.344 185.694C272.344 185.694 272.344 185.694 272.344 185.694C272.344 185.694 272.344 185.694 272.344 185.694C272.344 185.694 272.344 185.694 272.344 185.694C272.344 185.694 272.344 185.694 272.344 185.694C272.344 185.694 272.344 185.694 272.344 185.694C272.344 185.694 272.343 185.694 272.343 185.694C272.343 185.694 272.343 185.694 272.343 185.694C272.343 185.694 272.343 185.694 272.343 185.694C272.343 185.694 272.343 185.694 272.343 185.694C272.343 185.694 272.343 185.694 272.343 185.694C272.343 185.694 272.343 185.694 272.343 185.694C272.343 185.694 272.343 185.694 272.343 185.694C272.343 185.694 272.343 185.694 272.343 185.694C272.343 185.694 272.343 185.694 272.343 185.694C272.343 185.694 272.343 185.694 272.343 185.694C272.343 185.694 272.343 185.694 272.343 185.694C272.343 185.694 272.342 185.694 272.342 185.694C272.342 185.694 272.342 185.694 272.342 185.694C272.342 185.694 272.342 185.694 272.342 185.694C272.342 185.694 272.342 185.694 272.342 185.694C272.342 185.694 272.342 185.694 272.342 185.694C272.342 185.694 272.342 185.694 272.342 185.694C272.342 185.694 272.342 185.694 272.342 185.694C272.342 185.694 272.342 185.694 272.342 185.694C272.342 185.694 272.342 185.694 272.342 185.694C272.342 185.694 272.342 185.694 272.342 185.694C272.342 185.694 272.342 185.694 272.342 185.694C272.341 185.694 272.341 185.694 272.341 185.694C272.341 185.694 272.341 185.694 272.341 185.694C272.341 185.694 272.341 185.694 272.341 185.694C272.341 185.694 272.341 185.694 272.341 185.694C272.341 185.694 272.341 185.694 272.341 185.694C272.341 185.694 272.341 185.694 272.341 185.694C272.341 185.694 272.341 185.694 272.341 185.694C272.341 185.694 272.341 185.694 272.341 185.694C272.341 185.694 272.341 185.694 272.341 185.694C272.341 185.694 272.341 185.694 272.341 185.694C272.341 185.694 272.341 185.694 272.341 185.694C272.34 185.694 272.34 185.694 272.34 185.694C272.34 185.694 272.34 185.694 272.34 185.694C272.34 185.694 272.34 185.694 272.34 185.694C272.34 185.694 272.34 185.694 272.34 185.694C272.34 185.694 272.34 185.694 272.34 185.694C272.34 185.694 272.34 185.694 272.34 185.694C272.34 185.694 272.34 185.694 272.34 185.694C272.34 185.694 272.34 185.694 272.34 185.694C272.34 185.694 272.34 185.694 272.34 185.694C272.34 185.694 272.34 185.694 272.34 185.694C272.34 185.694 272.34 185.694 272.339 185.694C272.339 185.694 272.339 185.694 272.339 185.694C272.339 185.694 272.339 185.694 272.339 185.694C272.339 185.694 272.339 185.694 272.339 185.694C272.339 185.694 272.339 185.694 272.339 185.694C272.339 185.694 272.339 185.694 272.339 185.694C272.339 185.694 272.339 185.694 272.339 185.694C272.339 185.694 272.339 185.694 272.339 185.694C272.339 185.694 272.339 185.694 272.339 185.694C272.339 185.694 272.339 185.694 272.339 185.694C272.339 185.694 272.339 185.694 272.339 185.694C272.339 185.694 272.338 185.694 272.338 185.694C272.338 185.694 272.338 185.694 272.338 185.694C272.338 185.694 272.338 185.694 272.338 185.694C272.338 185.694 272.338 185.694 272.338 185.694C272.338 185.694 272.338 185.694 272.338 185.694C272.338 185.694 272.338 185.694 272.338 185.694C272.338 185.694 272.338 185.694 272.338 185.694C272.338 185.694 272.338 185.694 272.338 185.694C272.338 185.694 272.338 185.694 272.338 185.694C272.338 185.694 272.338 185.694 272.338 185.694C272.338 185.694 272.338 185.694 272.338 185.694C272.337 185.694 272.337 185.694 272.337 185.694C272.337 185.694 272.337 185.694 272.337 185.694C272.337 185.694 272.337 185.694 272.337 185.694C272.337 185.694 272.337 185.694 272.337 185.694C272.337 185.694 272.337 185.694 272.337 185.694C272.337 185.694 272.337 185.694 272.337 185.694C272.337 185.694 272.337 185.694 272.337 185.694C272.337 185.694 272.337 185.694 272.337 185.694C272.337 185.694 272.337 185.694 272.337 185.694C272.337 185.694 272.337 185.694 272.337 185.694C272.337 185.694 272.337 185.694 272.336 185.694C272.336 185.694 272.336 185.694 272.336 185.694C272.336 185.694 272.336 185.694 272.336 185.694C272.336 185.694 272.336 185.694 272.336 185.694C272.336 185.694 272.336 185.694 272.336 185.694C272.336 185.694 272.336 185.694 272.336 185.694C272.336 185.694 272.336 185.694 272.336 185.694C272.336 185.694 272.336 185.694 272.336 185.694C272.336 185.694 272.336 185.694 272.336 185.694C272.336 185.694 272.336 185.694 272.336 185.694C272.336 185.694 272.336 185.694 272.336 185.694C272.336 185.694 272.335 185.694 272.335 185.694C272.335 185.694 272.335 185.694 272.335 185.694C272.335 185.694 272.335 185.694 272.335 185.694C272.335 185.694 272.335 185.694 272.335 185.694C272.335 185.694 272.335 185.694 272.335 185.694C272.335 185.694 272.335 185.694 272.335 185.694C272.335 185.694 272.335 185.694 272.335 185.694C272.335 185.694 272.335 185.694 272.335 185.694C272.335 185.694 272.335 185.694 272.335 185.694C272.335 185.694 272.335 185.694 272.335 185.694C272.335 185.694 272.335 185.694 272.335 185.694C272.334 185.694 272.334 185.694 272.334 185.694C272.334 185.694 272.334 185.694 272.334 185.694C272.334 185.694 272.334 185.694 272.334 185.694C272.334 185.694 272.334 185.694 272.334 185.694C272.334 185.694 272.334 185.694 272.334 185.694C272.334 185.694 272.334 185.694 272.334 185.694C272.334 185.694 272.334 185.694 272.334 185.694C272.334 185.694 272.334 185.694 272.334 185.694C272.334 185.694 272.334 185.694 272.334 185.694C272.334 185.694 272.334 185.694 272.334 185.694C272.334 185.694 272.334 185.694 272.333 185.694C272.333 185.694 272.333 185.694 272.333 185.694C272.333 185.694 272.333 185.694 272.333 185.694C272.333 185.694 272.333 185.694 272.333 185.694C272.333 185.694 272.333 185.694 272.333 185.694C272.333 185.694 272.333 185.694 272.333 185.694C272.333 185.694 272.333 185.694 272.333 185.694C272.333 185.694 272.333 185.694 272.333 185.694C272.333 185.694 272.333 185.694 272.333 185.694C272.333 185.694 272.333 185.694 272.333 185.694C272.333 185.694 272.333 185.694 272.333 185.694C272.333 185.694 272.332 185.694 272.332 185.694C272.332 185.694 272.332 185.694 272.332 185.694C272.332 185.694 272.332 185.694 272.332 185.694C272.332 185.694 272.332 185.694 272.332 185.694C272.332 185.694 272.332 185.694 272.332 185.694C272.332 185.694 272.332 185.694 272.332 185.694C272.332 185.694 272.332 185.694 272.332 185.694C272.332 185.694 272.332 185.694 272.332 185.694C272.332 185.694 272.332 185.694 272.332 185.694C272.332 185.694 272.332 185.694 272.332 185.694C272.332 185.694 272.332 185.694 272.331 185.694C272.331 185.694 272.331 185.694 272.331 185.694C272.331 185.694 272.331 185.694 272.331 185.694C272.331 185.694 272.331 185.694 272.331 185.694C272.331 185.694 272.331 185.694 272.331 185.694C272.331 185.694 272.331 185.694 272.331 185.694C272.331 185.694 272.331 185.694 272.331 185.694C272.331 185.694 272.331 185.694 272.331 185.694C272.331 185.694 272.331 185.694 272.331 185.694C272.331 185.694 272.331 185.694 272.331 185.694C272.331 185.694 272.331 185.694 272.331 185.694C272.331 185.694 272.33 185.694 272.33 185.694C272.33 185.694 272.33 185.694 272.33 185.694C272.33 185.694 272.33 185.694 272.33 185.694C272.33 185.694 272.33 185.694 272.33 185.694C272.33 185.694 272.33 185.694 272.33 185.694C272.33 185.694 272.33 185.694 272.33 185.694C272.33 185.694 272.33 185.694 272.33 185.694C272.33 185.694 272.33 185.694 272.33 185.694C272.33 185.694 272.33 185.694 272.33 185.694C272.33 185.694 272.33 185.694 272.33 185.694C272.33 185.694 272.33 185.694 272.33 185.694C272.329 185.694 272.329 185.694 272.329 185.694C272.329 185.694 272.329 185.694 272.329 185.694C272.329 185.694 272.329 185.694 272.329 185.694C272.329 185.694 272.329 185.694 272.329 185.694C272.329 185.694 272.329 185.694 272.329 185.694C272.329 185.694 272.329 185.694 272.329 185.694C272.329 185.694 272.329 185.694 272.329 185.694C272.329 185.694 272.329 185.694 272.329 185.694C272.329 185.694 272.329 185.694 272.329 185.694C272.329 185.694 272.329 185.694 272.329 185.694C272.329 185.694 272.328 185.694 272.328 185.694C272.328 185.694 272.328 185.694 272.328 185.694C272.328 185.694 272.328 185.694 272.328 185.694C272.328 185.694 272.328 185.694 272.328 185.694C272.328 185.694 272.328 185.694 272.328 185.694C272.328 185.694 272.328 185.694 272.328 185.694C272.328 185.694 272.328 185.694 272.328 185.694C272.328 185.694 272.328 185.694 272.328 185.694C272.328 185.694 272.328 185.694 272.328 185.694C272.328 185.694 272.328 185.694 272.328 185.694C272.328 185.694 272.328 185.694 272.327 185.694C272.327 185.694 272.327 185.694 272.327 185.694C272.327 185.694 272.327 185.694 272.327 185.694C272.327 185.694 272.327 185.694 272.327 185.694C272.327 185.694 272.327 185.694 272.327 185.694C272.327 185.694 272.327 185.694 272.327 185.694C272.327 185.694 272.327 185.694 272.327 185.694C272.327 185.694 272.327 185.694 272.327 185.694C272.327 185.694 272.327 185.694 272.327 185.694C272.327 185.694 272.327 185.694 272.327 185.694C272.327 185.694 272.327 185.694 272.327 185.694C272.327 185.694 272.326 185.694 272.326 185.694C272.326 185.694 272.326 185.694 272.326 185.694C272.326 185.694 272.326 185.694 272.326 185.694C272.326 185.694 272.326 185.694 272.326 185.694C272.326 185.694 272.326 185.694 272.326 185.694C272.326 185.694 272.326 185.694 272.326 185.694C272.326 185.694 272.326 185.694 272.326 185.694C272.326 185.694 272.326 185.694 272.326 185.694C272.326 185.694 272.326 185.694 272.326 185.694C272.326 185.694 272.326 185.694 272.326 185.694C272.326 185.694 272.326 185.694 272.325 185.694C272.325 185.694 272.325 185.694 272.325 185.694C272.325 185.694 272.325 185.694 272.325 185.694C272.325 185.694 272.325 185.694 272.325 185.694C272.325 185.694 272.325 185.694 272.325 185.694C272.325 185.694 272.325 185.694 272.325 185.694C272.325 185.694 272.325 185.694 272.325 185.694C272.325 185.694 272.325 185.694 272.325 185.694C272.325 185.694 272.325 185.694 272.325 185.694C272.325 185.694 272.325 185.694 272.325 185.694C272.325 185.694 272.325 185.694 272.325 185.694C272.324 185.694 272.324 185.694 272.324 185.694C272.324 185.694 272.324 185.694 272.324 185.694C272.324 185.694 272.324 185.694 272.324 185.694C272.324 185.694 272.324 185.694 272.324 185.694C272.324 185.694 272.324 185.694 272.324 185.694C272.324 185.694 272.324 185.694 272.324 185.694C272.324 185.694 272.324 185.694 272.324 185.694C272.324 185.694 272.324 185.694 272.324 185.694C272.324 185.694 272.324 185.694 272.324 185.694C272.324 185.694 272.324 185.694 272.324 185.694C272.324 185.694 272.324 185.694 272.323 185.694C272.323 185.694 272.323 185.694 272.323 185.694C272.323 185.694 272.323 185.694 272.323 185.694C272.323 185.694 272.323 185.694 272.323 185.694C272.323 185.694 272.323 185.694 272.323 185.694C272.323 185.694 272.323 185.694 272.323 185.694C272.323 185.694 272.323 185.694 272.323 185.694C272.323 185.694 272.323 185.694 272.323 185.694C272.323 185.694 272.323 185.694 272.323 185.694C272.323 185.694 272.323 185.694 272.323 185.694C272.323 185.694 272.323 185.694 272.323 185.694C272.322 185.694 272.322 185.694 272.322 185.694C272.322 185.694 272.322 185.694 272.322 185.694C272.322 185.694 272.322 185.694 272.322 185.694C272.322 185.694 272.322 185.694 272.322 185.694C272.322 185.694 272.322 185.694 272.322 185.694C272.322 185.694 272.322 185.694 272.322 185.694C272.322 185.694 272.322 185.694 272.322 185.694C272.322 185.694 272.322 185.694 272.322 185.694C272.322 185.694 272.322 185.694 272.322 185.694C272.322 185.694 272.322 185.694 272.322 185.694C272.322 185.694 272.321 185.694 272.321 185.694C272.321 185.694 272.321 185.694 272.321 185.694C272.321 185.694 272.321 185.694 272.321 185.694C272.321 185.694 272.321 185.694 272.321 185.694C272.321 185.694 272.321 185.694 272.321 185.694C272.321 185.694 272.321 185.694 272.321 185.694C272.321 185.694 272.321 185.694 272.321 185.694C272.321 185.694 272.321 185.694 272.321 185.694C272.321 185.694 272.321 185.694 272.321 185.694C272.321 185.694 272.321 185.694 272.321 185.694C272.321 185.694 272.321 185.694 272.32 185.694C272.32 185.694 272.32 185.694 272.32 185.694C272.32 185.694 272.32 185.694 272.32 185.694C272.32 185.694 272.32 185.694 272.32 185.694C272.32 185.694 272.32 185.694 272.32 185.694C272.32 185.694 272.32 185.694 272.32 185.694C272.32 185.694 272.32 185.694 272.32 185.694C272.32 185.694 272.32 185.694 272.32 185.694C272.32 185.694 272.32 185.694 272.32 185.694C272.32 185.694 272.32 185.694 272.32 185.694C272.32 185.694 272.32 185.694 272.32 185.694C272.319 185.694 272.319 185.694 272.319 185.694C272.319 185.694 272.319 185.694 272.319 185.694C272.319 185.694 272.319 185.694 272.319 185.694C272.319 185.694 272.319 185.694 272.319 185.694C272.319 185.694 272.319 185.694 272.319 185.694C272.319 185.694 272.319 185.694 272.319 185.694C272.319 185.694 272.319 185.694 272.319 185.694C272.319 185.694 272.319 185.694 272.319 185.694C272.319 185.694 272.319 185.694 272.319 185.694C272.319 185.694 272.319 185.694 272.319 185.694C272.319 185.694 272.319 185.694 272.318 185.694C272.318 185.694 272.318 185.694 272.318 185.694C272.318 185.694 272.318 185.694 272.318 185.694C272.318 185.694 272.318 185.694 272.318 185.694C272.318 185.694 272.318 185.694 272.318 185.694C272.318 185.694 272.318 185.694 272.318 185.694C272.318 185.694 272.318 185.694 272.318 185.694C272.318 185.694 272.318 185.694 272.318 185.694C272.318 185.694 272.318 185.694 272.318 185.694C272.318 185.694 272.318 185.694 272.318 185.694C272.318 185.694 272.318 185.694 272.318 185.694C272.317 185.694 272.317 185.694 272.317 185.694C272.317 185.694 272.317 185.694 272.317 185.694C272.317 185.694 272.317 185.694 272.317 185.694C272.317 185.694 272.317 185.694 272.317 185.694C272.317 185.694 272.317 185.694 272.317 185.694C272.317 185.694 272.317 185.694 272.317 185.694C272.317 185.694 272.317 185.694 272.317 185.694C272.317 185.694 272.317 185.694 272.317 185.694C272.317 185.694 272.317 185.694 272.317 185.694C272.317 185.694 272.317 185.694 272.317 185.694C272.317 185.694 272.316 185.694 272.316 185.694C272.316 185.694 272.316 185.694 272.316 185.694C272.316 185.694 272.316 185.694 272.316 185.694C272.316 185.694 272.316 185.694 272.316 185.694C272.316 185.694 272.316 185.694 272.316 185.694C272.316 185.694 272.316 185.694 272.316 185.694C272.316 185.694 272.316 185.694 272.316 185.694C272.316 185.694 272.316 185.694 272.316 185.694C272.316 185.694 272.316 185.694 272.316 185.694C272.316 185.694 272.316 185.694 272.316 185.694C272.316 185.694 272.316 185.694 272.315 185.694C272.315 185.694 272.315 185.694 272.315 185.694C272.315 185.694 272.315 185.694 272.315 185.694C272.315 185.694 272.315 185.694 272.315 185.694C272.315 185.694 272.315 185.694 272.315 185.694C272.315 185.694 272.315 185.694 272.315 185.694C272.315 185.694 272.315 185.694 272.315 185.694C272.315 185.694 272.315 185.694 272.315 185.694C272.315 185.694 272.315 185.694 272.315 185.694C272.315 185.694 272.315 185.694 272.315 185.694C272.315 185.694 272.315 185.694 272.315 185.694C272.314 185.694 272.314 185.694 272.314 185.694V197.694ZM272.361 197.694C276.976 197.694 280.714 193.956 280.714 189.341H268.714C268.714 187.328 270.349 185.694 272.361 185.694V197.694ZM280.714 189.331C280.712 188.152 280.464 186.976 279.966 185.885L269.048 190.864C268.819 190.361 268.715 189.843 268.714 189.351L280.714 189.331ZM130.239 188.325L159.274 61.2811L147.575 58.6076L118.541 185.652L130.239 188.325ZM153.425 65.9444H240.332V53.9444H153.425V65.9444ZM234.483 61.281L263.515 188.325L275.213 185.652L246.181 58.6077L234.483 61.281ZM269.364 180.988H124.39V192.988H269.364V180.988Z" fill="#EEEBE4" mask="url(#path-5-inside-2_408_153)"/>
<path d="M171.499 55.2954C170.212 55.1401 169.031 56.0365 168.864 57.3281L159.388 130.536C159.221 131.823 160.129 133.004 161.418 133.171C161.522 133.183 161.623 133.19 161.724 133.19C162.889 133.19 163.898 132.326 164.053 131.138L173.53 57.9304C173.697 56.6435 172.789 55.4625 171.499 55.2954Z" fill="#EEEBE4"/>
<path d="M159.43 148.52C158.143 148.372 156.962 149.261 156.795 150.553L151.805 189.113C151.638 190.4 152.546 191.581 153.835 191.748C153.939 191.76 154.04 191.767 154.141 191.767C155.306 191.767 156.317 190.903 156.47 189.715L161.46 151.155C161.628 149.868 160.719 148.687 159.43 148.52Z" fill="#EEEBE4"/>
<path d="M241.955 189.11L239.916 173.359C239.749 172.07 238.56 171.188 237.281 171.329C235.991 171.496 235.083 172.677 235.25 173.966L237.29 189.717C237.443 190.903 238.455 191.767 239.619 191.767C239.718 191.767 239.822 191.76 239.925 191.748C241.214 191.581 242.122 190.4 241.955 189.11Z" fill="#EEEBE4"/>
<path d="M237.429 154.164L224.894 57.3282C224.727 56.0365 223.541 55.1425 222.259 55.2955C220.97 55.4625 220.062 56.6435 220.229 57.9304L232.764 154.766C232.917 155.954 233.928 156.818 235.093 156.818C235.194 156.818 235.295 156.811 235.399 156.799C236.688 156.632 237.596 155.451 237.429 154.164Z" fill="#EEEBE4"/>
<mask id="path-11-inside-3_408_153" fill="white">
<path d="M201.583 186.989H192.172C190.873 186.989 189.819 188.04 189.819 189.341V337.559C189.819 338.86 190.873 339.912 192.172 339.912H201.583C202.881 339.912 203.935 338.86 203.935 337.559V189.341C203.935 188.04 202.882 186.989 201.583 186.989ZM199.23 335.207H194.525V191.694H199.23V335.207Z"/>
</mask>
<path d="M201.583 186.989H192.172C190.873 186.989 189.819 188.04 189.819 189.341V337.559C189.819 338.86 190.873 339.912 192.172 339.912H201.583C202.881 339.912 203.935 338.86 203.935 337.559V189.341C203.935 188.04 202.882 186.989 201.583 186.989ZM199.23 335.207H194.525V191.694H199.23V335.207Z" fill="#EEEBE4"/>
<path d="M199.23 335.207V340.207H204.23V335.207H199.23ZM194.525 335.207H189.525V340.207H194.525V335.207ZM194.525 191.694V186.694H189.525V191.694H194.525ZM199.23 191.694H204.23V186.694H199.23V191.694ZM201.583 181.989H192.172V191.989H201.583V181.989ZM192.172 181.989C188.115 181.989 184.819 185.275 184.819 189.341H194.819C194.819 190.805 193.631 191.989 192.172 191.989V181.989ZM184.819 189.341V337.559H194.819V189.341H184.819ZM184.819 337.559C184.819 341.625 188.115 344.912 192.172 344.912V334.912C193.631 334.912 194.819 336.096 194.819 337.559H184.819ZM192.172 344.912H201.583V334.912H192.172V344.912ZM201.583 344.912C205.64 344.912 208.935 341.625 208.935 337.559H198.935C198.935 336.096 200.123 334.912 201.583 334.912V344.912ZM208.935 337.559V189.341H198.935V337.559H208.935ZM208.935 189.341C208.935 185.276 205.641 181.989 201.583 181.989V191.989C200.123 191.989 198.935 190.804 198.935 189.341H208.935ZM199.23 330.207H194.525V340.207H199.23V330.207ZM199.525 335.207V191.694H189.525V335.207H199.525ZM194.525 196.694H199.23V186.694H194.525V196.694ZM194.23 191.694V335.207H204.23V191.694H194.23Z" fill="#EEEBE4" mask="url(#path-11-inside-3_408_153)"/>
<path d="M133.091 258.091C132.818 255.788 131.712 254 129.773 252.727C127.833 251.455 125.455 250.818 122.636 250.818C120.576 250.818 118.773 251.152 117.227 251.818C115.697 252.485 114.5 253.402 113.636 254.568C112.788 255.735 112.364 257.061 112.364 258.545C112.364 259.788 112.659 260.856 113.25 261.75C113.856 262.629 114.629 263.364 115.568 263.955C116.508 264.53 117.492 265.008 118.523 265.386C119.553 265.75 120.5 266.045 121.364 266.273L126.091 267.545C127.303 267.864 128.652 268.303 130.136 268.864C131.636 269.424 133.068 270.189 134.432 271.159C135.811 272.114 136.947 273.341 137.841 274.841C138.735 276.341 139.182 278.182 139.182 280.364C139.182 282.879 138.523 285.152 137.205 287.182C135.902 289.212 133.992 290.826 131.477 292.023C128.977 293.22 125.939 293.818 122.364 293.818C119.03 293.818 116.144 293.28 113.705 292.205C111.28 291.129 109.371 289.629 107.977 287.705C106.598 285.78 105.818 283.545 105.636 281H111.455C111.606 282.758 112.197 284.212 113.227 285.364C114.273 286.5 115.591 287.348 117.182 287.909C118.788 288.455 120.515 288.727 122.364 288.727C124.515 288.727 126.447 288.379 128.159 287.682C129.871 286.97 131.227 285.985 132.227 284.727C133.227 283.455 133.727 281.97 133.727 280.273C133.727 278.727 133.295 277.47 132.432 276.5C131.568 275.53 130.432 274.742 129.023 274.136C127.614 273.53 126.091 273 124.455 272.545L118.727 270.909C115.091 269.864 112.212 268.371 110.091 266.432C107.97 264.492 106.909 261.955 106.909 258.818C106.909 256.212 107.614 253.939 109.023 252C110.447 250.045 112.356 248.53 114.75 247.455C117.159 246.364 119.848 245.818 122.818 245.818C125.818 245.818 128.485 246.356 130.818 247.432C133.152 248.492 135 249.947 136.364 251.795C137.742 253.644 138.47 255.742 138.545 258.091H133.091ZM148.449 293V246.455H154.085V267.182H178.903V246.455H184.54V293H178.903V272.182H154.085V293H148.449Z" fill="#EEEBE4"/>
<path d="M133.091 258.091L132.098 258.209L132.202 259.091H133.091V258.091ZM129.773 252.727L129.224 253.563L129.224 253.563L129.773 252.727ZM117.227 251.818L116.831 250.9L116.828 250.901L117.227 251.818ZM113.636 254.568L112.833 253.973L112.828 253.98L113.636 254.568ZM113.25 261.75L112.416 262.301L112.421 262.31L112.427 262.318L113.25 261.75ZM115.568 263.955L115.036 264.801L115.046 264.807L115.568 263.955ZM118.523 265.386L118.178 266.325L118.19 266.329L118.523 265.386ZM121.364 266.273L121.624 265.307L121.618 265.306L121.364 266.273ZM126.091 267.545L125.831 268.511L125.837 268.513L126.091 267.545ZM130.136 268.864L129.783 269.799L129.786 269.8L130.136 268.864ZM134.432 271.159L133.852 271.974L133.863 271.981L134.432 271.159ZM137.841 274.841L138.7 274.329L138.7 274.329L137.841 274.841ZM137.205 287.182L136.366 286.637L136.363 286.642L137.205 287.182ZM131.477 292.023L131.048 291.12L131.045 291.121L131.477 292.023ZM113.705 292.205L113.299 293.119L113.301 293.12L113.705 292.205ZM107.977 287.705L107.164 288.287L107.167 288.291L107.977 287.705ZM105.636 281V280H104.562L104.639 281.071L105.636 281ZM111.455 281L112.451 280.914L112.372 280H111.455V281ZM113.227 285.364L112.482 286.03L112.491 286.041L113.227 285.364ZM117.182 287.909L116.849 288.852L116.86 288.856L117.182 287.909ZM128.159 287.682L128.536 288.608L128.543 288.605L128.159 287.682ZM132.227 284.727L133.01 285.35L133.014 285.345L132.227 284.727ZM132.432 276.5L133.179 275.835L133.179 275.835L132.432 276.5ZM129.023 274.136L128.628 275.055L128.628 275.055L129.023 274.136ZM124.455 272.545L124.18 273.507L124.187 273.509L124.455 272.545ZM118.727 270.909L118.451 271.87L118.453 271.871L118.727 270.909ZM110.091 266.432L109.416 267.17L109.416 267.17L110.091 266.432ZM109.023 252L108.215 251.411L108.214 251.412L109.023 252ZM114.75 247.455L115.16 248.367L115.163 248.365L114.75 247.455ZM130.818 247.432L130.399 248.34L130.404 248.342L130.818 247.432ZM136.364 251.795L135.559 252.389L135.562 252.393L136.364 251.795ZM138.545 258.091V259.091H139.578L139.545 258.059L138.545 258.091ZM134.084 257.973C133.776 255.377 132.508 253.326 130.321 251.891L129.224 253.563C130.917 254.674 131.86 256.199 132.098 258.209L134.084 257.973ZM130.321 251.891C128.187 250.49 125.607 249.818 122.636 249.818V251.818C125.302 251.818 127.48 252.419 129.224 253.563L130.321 251.891ZM122.636 249.818C120.469 249.818 118.526 250.169 116.831 250.9L117.623 252.736C119.019 252.134 120.682 251.818 122.636 251.818V249.818ZM116.828 250.901C115.161 251.627 113.815 252.646 112.833 253.973L114.44 255.163C115.185 254.157 116.233 253.342 117.627 252.735L116.828 250.901ZM112.828 253.98C111.851 255.323 111.364 256.856 111.364 258.545H113.364C113.364 257.265 113.725 256.147 114.445 255.156L112.828 253.98ZM111.364 258.545C111.364 259.952 111.7 261.219 112.416 262.301L114.084 261.199C113.618 260.493 113.364 259.624 113.364 258.545H111.364ZM112.427 262.318C113.113 263.313 113.986 264.141 115.036 264.801L116.101 263.108C115.271 262.586 114.599 261.945 114.073 261.182L112.427 262.318ZM115.046 264.807C116.041 265.417 117.085 265.923 118.178 266.325L118.868 264.448C117.9 264.092 116.974 263.643 116.091 263.102L115.046 264.807ZM118.19 266.329C119.241 266.7 120.214 267.004 121.109 267.24L121.618 265.306C120.786 265.087 119.866 264.8 118.856 264.443L118.19 266.329ZM121.104 267.238L125.831 268.511L126.351 266.58L121.624 265.307L121.104 267.238ZM125.837 268.513C127.008 268.82 128.323 269.248 129.783 269.799L130.49 267.928C128.98 267.358 127.598 266.907 126.345 266.578L125.837 268.513ZM129.786 269.8C131.201 270.329 132.556 271.052 133.852 271.974L135.011 270.344C133.58 269.326 132.071 268.519 130.486 267.927L129.786 269.8ZM133.863 271.981C135.119 272.851 136.158 273.971 136.982 275.353L138.7 274.329C137.736 272.711 136.502 271.376 135.001 270.337L133.863 271.981ZM136.982 275.353C137.763 276.664 138.182 278.317 138.182 280.364H140.182C140.182 278.046 139.707 276.018 138.7 274.329L136.982 275.353ZM138.182 280.364C138.182 282.693 137.574 284.776 136.366 286.637L138.043 287.726C139.471 285.527 140.182 283.064 140.182 280.364H138.182ZM136.363 286.642C135.175 288.492 133.421 289.99 131.048 291.12L131.907 292.926C134.564 291.661 136.628 289.932 138.046 287.722L136.363 286.642ZM131.045 291.121C128.713 292.237 125.832 292.818 122.364 292.818V294.818C126.047 294.818 129.241 294.202 131.909 292.925L131.045 291.121ZM122.364 292.818C119.136 292.818 116.393 292.297 114.108 291.29L113.301 293.12C115.895 294.264 118.925 294.818 122.364 294.818V292.818ZM114.11 291.29C111.828 290.278 110.066 288.883 108.787 287.118L107.167 288.291C108.677 290.374 110.733 291.98 113.299 293.119L114.11 291.29ZM108.79 287.122C107.527 285.36 106.804 283.305 106.634 280.929L104.639 281.071C104.833 283.786 105.67 286.201 107.164 288.287L108.79 287.122ZM105.636 282H111.455V280H105.636V282ZM110.458 281.086C110.626 283.027 111.287 284.695 112.482 286.03L113.973 284.697C113.107 283.729 112.587 282.488 112.451 280.914L110.458 281.086ZM112.491 286.041C113.658 287.308 115.119 288.242 116.849 288.852L117.514 286.966C116.063 286.455 114.888 285.692 113.963 284.687L112.491 286.041ZM116.86 288.856C118.579 289.44 120.416 289.727 122.364 289.727V287.727C120.615 287.727 118.997 287.469 117.503 286.962L116.86 288.856ZM122.364 289.727C124.624 289.727 126.686 289.361 128.536 288.608L127.782 286.756C126.208 287.397 124.407 287.727 122.364 287.727V289.727ZM128.543 288.605C130.387 287.838 131.889 286.759 133.01 285.35L131.445 284.105C130.565 285.211 129.355 286.101 127.775 286.758L128.543 288.605ZM133.014 285.345C134.159 283.887 134.727 282.182 134.727 280.273H132.727C132.727 281.757 132.295 283.022 131.441 284.109L133.014 285.345ZM134.727 280.273C134.727 278.531 134.235 277.021 133.179 275.835L131.685 277.165C132.356 277.918 132.727 278.923 132.727 280.273H134.727ZM133.179 275.835C132.202 274.738 130.937 273.871 129.418 273.218L128.628 275.055C129.926 275.614 130.935 276.323 131.685 277.165L133.179 275.835ZM129.418 273.218C127.963 272.592 126.397 272.047 124.722 271.582L124.187 273.509C125.784 273.953 127.264 274.469 128.628 275.055L129.418 273.218ZM124.729 271.584L119.002 269.948L118.453 271.871L124.18 273.507L124.729 271.584ZM119.004 269.948C115.47 268.932 112.743 267.502 110.766 265.694L109.416 267.17C111.681 269.241 114.711 270.795 118.451 271.87L119.004 269.948ZM110.766 265.694C108.872 263.962 107.909 261.702 107.909 258.818H105.909C105.909 262.207 107.068 265.023 109.416 267.17L110.766 265.694ZM107.909 258.818C107.909 256.404 108.558 254.341 109.832 252.588L108.214 251.412C106.67 253.538 105.909 256.02 105.909 258.818H107.909ZM109.831 252.589C111.144 250.787 112.911 249.377 115.16 248.367L114.34 246.542C111.801 247.683 109.75 249.304 108.215 251.411L109.831 252.589ZM115.163 248.365C117.427 247.34 119.973 246.818 122.818 246.818V244.818C119.724 244.818 116.891 245.387 114.337 246.544L115.163 248.365ZM122.818 246.818C125.698 246.818 128.218 247.334 130.399 248.34L131.237 246.524C128.752 245.378 125.939 244.818 122.818 244.818V246.818ZM130.404 248.342C132.601 249.341 134.308 250.693 135.559 252.389L137.168 251.202C135.692 249.201 133.702 247.644 131.232 246.521L130.404 248.342ZM135.562 252.393C136.816 254.075 137.477 255.975 137.546 258.123L139.545 258.059C139.463 255.51 138.669 253.213 137.165 251.198L135.562 252.393ZM138.545 257.091H133.091V259.091H138.545V257.091ZM148.449 293H147.449V294H148.449V293ZM148.449 246.455V245.455H147.449V246.455H148.449ZM154.085 246.455H155.085V245.455H154.085V246.455ZM154.085 267.182H153.085V268.182H154.085V267.182ZM178.903 267.182V268.182H179.903V267.182H178.903ZM178.903 246.455V245.455H177.903V246.455H178.903ZM184.54 246.455H185.54V245.455H184.54V246.455ZM184.54 293V294H185.54V293H184.54ZM178.903 293H177.903V294H178.903V293ZM178.903 272.182H179.903V271.182H178.903V272.182ZM154.085 272.182V271.182H153.085V272.182H154.085ZM154.085 293V294H155.085V293H154.085ZM149.449 293V246.455H147.449V293H149.449ZM148.449 247.455H154.085V245.455H148.449V247.455ZM153.085 246.455V267.182H155.085V246.455H153.085ZM154.085 268.182H178.903V266.182H154.085V268.182ZM179.903 267.182V246.455H177.903V267.182H179.903ZM178.903 247.455H184.54V245.455H178.903V247.455ZM183.54 246.455V293H185.54V246.455H183.54ZM184.54 292H178.903V294H184.54V292ZM179.903 293V272.182H177.903V293H179.903ZM178.903 271.182H154.085V273.182H178.903V271.182ZM153.085 272.182V293H155.085V272.182H153.085ZM154.085 292H148.449V294H154.085V292Z" fill="#EEEBE4"/>
<path d="M251.609 269.484C251.609 274.393 250.723 278.635 248.95 282.211C247.177 285.787 244.746 288.544 241.655 290.484C238.564 292.423 235.034 293.393 231.064 293.393C227.094 293.393 223.564 292.423 220.473 290.484C217.382 288.544 214.95 285.787 213.177 282.211C211.405 278.635 210.518 274.393 210.518 269.484C210.518 264.575 211.405 260.332 213.177 256.756C214.95 253.181 217.382 250.423 220.473 248.484C223.564 246.544 227.094 245.575 231.064 245.575C235.034 245.575 238.564 246.544 241.655 248.484C244.746 250.423 247.177 253.181 248.95 256.756C250.723 260.332 251.609 264.575 251.609 269.484ZM246.155 269.484C246.155 265.453 245.481 262.052 244.132 259.279C242.799 256.506 240.988 254.408 238.7 252.984C236.427 251.559 233.882 250.847 231.064 250.847C228.246 250.847 225.693 251.559 223.405 252.984C221.132 254.408 219.321 256.506 217.973 259.279C216.64 262.052 215.973 265.453 215.973 269.484C215.973 273.514 216.64 276.915 217.973 279.688C219.321 282.461 221.132 284.559 223.405 285.984C225.693 287.408 228.246 288.12 231.064 288.12C233.882 288.12 236.427 287.408 238.7 285.984C240.988 284.559 242.799 282.461 244.132 279.688C245.481 276.915 246.155 273.514 246.155 269.484ZM261.087 292.756V246.211H276.814C280.465 246.211 283.45 246.87 285.768 248.188C288.102 249.491 289.829 251.256 290.95 253.484C292.071 255.711 292.632 258.196 292.632 260.938C292.632 263.681 292.071 266.173 290.95 268.415C289.844 270.658 288.132 272.446 285.814 273.779C283.496 275.097 280.526 275.756 276.905 275.756H265.632V270.756H276.723C279.223 270.756 281.23 270.325 282.746 269.461C284.261 268.597 285.359 267.431 286.041 265.961C286.738 264.476 287.087 262.802 287.087 260.938C287.087 259.075 286.738 257.408 286.041 255.938C285.359 254.468 284.253 253.317 282.723 252.484C281.193 251.635 279.162 251.211 276.632 251.211H266.723V292.756H261.087Z" fill="#EEEBE4"/>
<path d="M248.95 282.211L248.054 281.767L248.054 281.767L248.95 282.211ZM241.655 290.484L242.186 291.331L242.186 291.331L241.655 290.484ZM220.473 290.484L219.941 291.331L219.941 291.331L220.473 290.484ZM213.177 282.211L214.073 281.767L214.073 281.767L213.177 282.211ZM213.177 256.756L212.282 256.312L213.177 256.756ZM241.655 248.484L242.186 247.637L242.186 247.637L241.655 248.484ZM248.95 256.756L248.054 257.201L248.054 257.201L248.95 256.756ZM244.132 259.279L243.231 259.712L243.233 259.716L244.132 259.279ZM238.7 252.984L238.169 253.831L238.172 253.833L238.7 252.984ZM223.405 252.984L222.876 252.135L222.874 252.136L223.405 252.984ZM217.973 259.279L217.074 258.842L217.072 258.846L217.973 259.279ZM217.973 279.688L217.072 280.122L217.074 280.126L217.973 279.688ZM223.405 285.984L222.874 286.831L222.876 286.833L223.405 285.984ZM238.7 285.984L238.172 285.135L238.169 285.136L238.7 285.984ZM244.132 279.688L243.233 279.251L243.231 279.255L244.132 279.688ZM250.609 269.484C250.609 274.273 249.745 278.357 248.054 281.767L249.846 282.655C251.701 278.913 252.609 274.512 252.609 269.484H250.609ZM248.054 281.767C246.356 285.193 244.043 287.804 241.123 289.637L242.186 291.331C245.448 289.284 247.999 286.38 249.846 282.655L248.054 281.767ZM241.123 289.637C238.206 291.467 234.863 292.393 231.064 292.393V294.393C235.204 294.393 238.922 293.379 242.186 291.331L241.123 289.637ZM231.064 292.393C227.265 292.393 223.922 291.467 221.004 289.637L219.941 291.331C223.206 293.379 226.923 294.393 231.064 294.393V292.393ZM221.004 289.637C218.084 287.804 215.772 285.193 214.073 281.767L212.282 282.655C214.128 286.38 216.68 289.284 219.941 291.331L221.004 289.637ZM214.073 281.767C212.383 278.357 211.518 274.273 211.518 269.484H209.518C209.518 274.512 210.426 278.913 212.282 282.655L214.073 281.767ZM211.518 269.484C211.518 264.694 212.383 260.61 214.073 257.201L212.282 256.312C210.426 260.054 209.518 264.455 209.518 269.484H211.518ZM214.073 257.201C215.772 253.774 218.084 251.163 221.004 249.331L219.941 247.637C216.68 249.683 214.128 252.587 212.282 256.312L214.073 257.201ZM221.004 249.331C223.922 247.5 227.265 246.575 231.064 246.575V244.575C226.923 244.575 223.206 245.588 219.941 247.637L221.004 249.331ZM231.064 246.575C234.863 246.575 238.206 247.5 241.123 249.331L242.186 247.637C238.922 245.588 235.204 244.575 231.064 244.575V246.575ZM241.123 249.331C244.043 251.163 246.356 253.774 248.054 257.201L249.846 256.312C247.999 252.587 245.448 249.683 242.186 247.637L241.123 249.331ZM248.054 257.201C249.745 260.61 250.609 264.694 250.609 269.484H252.609C252.609 264.455 251.701 260.054 249.846 256.312L248.054 257.201ZM247.155 269.484C247.155 265.347 246.463 261.786 245.031 258.842L243.233 259.716C244.498 262.318 245.155 265.56 245.155 269.484H247.155ZM245.033 258.846C243.63 255.927 241.7 253.673 239.229 252.135L238.172 253.833C240.277 255.143 241.968 257.086 243.231 259.712L245.033 258.846ZM239.231 252.136C236.791 250.607 234.06 249.847 231.064 249.847V251.847C233.704 251.847 236.064 252.512 238.169 253.831L239.231 252.136ZM231.064 249.847C228.068 249.847 225.33 250.607 222.876 252.135L223.933 253.833C226.055 252.512 228.424 251.847 231.064 251.847V249.847ZM222.874 252.136C220.42 253.674 218.492 255.926 217.074 258.842L218.872 259.716C220.151 257.086 221.844 255.142 223.936 253.831L222.874 252.136ZM217.072 258.846C215.656 261.789 214.973 265.348 214.973 269.484H216.973C216.973 265.559 217.623 262.315 218.874 259.712L217.072 258.846ZM214.973 269.484C214.973 273.619 215.656 277.178 217.072 280.122L218.874 279.255C217.623 276.652 216.973 273.408 216.973 269.484H214.973ZM217.074 280.126C218.492 283.041 220.42 285.293 222.874 286.831L223.936 285.136C221.844 283.826 220.151 281.881 218.872 279.251L217.074 280.126ZM222.876 286.833C225.33 288.36 228.068 289.12 231.064 289.12V287.12C228.424 287.12 226.055 286.456 223.933 285.135L222.876 286.833ZM231.064 289.12C234.06 289.12 236.791 288.36 239.231 286.831L238.169 285.136C236.064 286.456 233.704 287.12 231.064 287.12V289.12ZM239.229 286.833C241.7 285.294 243.63 283.041 245.033 280.122L243.231 279.255C241.968 281.881 240.277 283.824 238.172 285.135L239.229 286.833ZM245.031 280.126C246.463 277.181 247.155 273.621 247.155 269.484H245.155C245.155 273.407 244.498 276.65 243.233 279.251L245.031 280.126ZM261.087 292.756H260.087V293.756H261.087V292.756ZM261.087 246.211V245.211H260.087V246.211H261.087ZM285.768 248.188L285.274 249.057L285.281 249.061L285.768 248.188ZM290.95 253.484L290.057 253.933L290.057 253.933L290.95 253.484ZM290.95 268.415L290.056 267.968L290.053 267.973L290.95 268.415ZM285.814 273.779L286.308 274.648L286.312 274.646L285.814 273.779ZM265.632 275.756H264.632V276.756H265.632V275.756ZM265.632 270.756V269.756H264.632V270.756H265.632ZM282.746 269.461L282.25 268.592L282.25 268.592L282.746 269.461ZM286.041 265.961L285.136 265.536L285.134 265.54L286.041 265.961ZM286.041 255.938L285.134 256.359L285.138 256.367L286.041 255.938ZM282.723 252.484L282.238 253.358L282.245 253.362L282.723 252.484ZM266.723 251.211V250.211H265.723V251.211H266.723ZM266.723 292.756V293.756H267.723V292.756H266.723ZM262.087 292.756V246.211H260.087V292.756H262.087ZM261.087 247.211H276.814V245.211H261.087V247.211ZM276.814 247.211C280.353 247.211 283.152 247.851 285.274 249.057L286.263 247.319C283.748 245.889 280.577 245.211 276.814 245.211V247.211ZM285.281 249.061C287.453 250.274 289.032 251.898 290.057 253.933L291.843 253.034C290.626 250.615 288.751 248.708 286.256 247.315L285.281 249.061ZM290.057 253.933C291.101 256.008 291.632 258.336 291.632 260.938H293.632C293.632 258.055 293.042 255.414 291.843 253.034L290.057 253.933ZM291.632 260.938C291.632 263.54 291.101 265.877 290.056 267.968L291.845 268.863C293.042 266.469 293.632 263.821 293.632 260.938H291.632ZM290.053 267.973C289.041 270.025 287.474 271.671 285.315 272.912L286.312 274.646C288.79 273.221 290.647 271.291 291.847 268.858L290.053 267.973ZM285.32 272.91C283.196 274.117 280.412 274.756 276.905 274.756V276.756C280.64 276.756 283.795 276.077 286.308 274.648L285.32 272.91ZM276.905 274.756H265.632V276.756H276.905V274.756ZM266.632 275.756V270.756H264.632V275.756H266.632ZM265.632 271.756H276.723V269.756H265.632V271.756ZM276.723 271.756C279.326 271.756 281.523 271.309 283.241 270.33L282.25 268.592C280.938 269.34 279.12 269.756 276.723 269.756V271.756ZM283.241 270.33C284.922 269.371 286.172 268.055 286.948 266.382L285.134 265.54C284.546 266.807 283.6 267.823 282.25 268.592L283.241 270.33ZM286.946 266.386C287.714 264.751 288.087 262.929 288.087 260.938H286.087C286.087 262.675 285.762 264.201 285.136 265.536L286.946 266.386ZM288.087 260.938C288.087 258.948 287.714 257.132 286.945 255.51L285.138 256.367C285.762 257.684 286.087 259.201 286.087 260.938H288.087ZM286.948 255.517C286.169 253.838 284.905 252.533 283.201 251.605L282.245 253.362C283.602 254.101 284.549 255.099 285.134 256.359L286.948 255.517ZM283.208 251.609C281.478 250.65 279.261 250.211 276.632 250.211V252.211C279.063 252.211 280.908 252.621 282.238 253.358L283.208 251.609ZM276.632 250.211H266.723V252.211H276.632V250.211ZM265.723 251.211V292.756H267.723V251.211H265.723ZM266.723 291.756H261.087V293.756H266.723V291.756Z" fill="#EEEBE4"/>
</g>
<defs>
<clipPath id="clip0_408_153">
<rect width="301.142" height="301.142" fill="white" transform="translate(46.3291 55.239)"/>
</clipPath>
</defs>
</svg>
