<svg width="85" height="64" viewBox="0 0 395 384" fill="none" xmlns="http://www.w3.org/2000/svg">
<path d="M390.191 192C390.191 295.438 303.969 379.5 197.346 379.5C90.7227 379.5 4.5 295.438 4.5 192C4.5 88.5623 90.7227 4.5 197.346 4.5C303.969 4.5 390.191 88.5623 390.191 192Z" stroke="#EEEBE4" stroke-width="9"/>
<path d="M360.79 192.445C360.79 286.559 287.262 362.572 196.901 362.572C106.54 362.572 33.0107 286.559 33.0107 192.445C33.0107 98.3315 106.54 22.319 196.901 22.319C287.262 22.319 360.79 98.3315 360.79 192.445Z" fill="#EEEBE4" stroke="#EEEBE4" stroke-width="9"/>
<g clip-path="url(#clip0_371_126)">
<mask id="path-3-inside-1_371_126" fill="white">
<path d="M241.611 335.207H152.134C145.671 335.207 140.413 340.517 140.413 347.043V354.028C140.413 355.329 141.467 356.381 142.766 356.381H250.988C252.287 356.381 253.341 355.329 253.341 354.028V347.043C253.341 340.517 248.081 335.207 241.611 335.207ZM248.636 351.675H145.118V347.043C145.118 343.109 148.266 339.912 152.134 339.912H241.611C245.483 339.912 248.636 343.109 248.636 347.043V351.675Z"/>
</mask>
<path d="M241.611 335.207H152.134C145.671 335.207 140.413 340.517 140.413 347.043V354.028C140.413 355.329 141.467 356.381 142.766 356.381H250.988C252.287 356.381 253.341 355.329 253.341 354.028V347.043C253.341 340.517 248.081 335.207 241.611 335.207ZM248.636 351.675H145.118V347.043C145.118 343.109 148.266 339.912 152.134 339.912H241.611C245.483 339.912 248.636 343.109 248.636 347.043V351.675Z" fill="#373D2F"/>
<path d="M248.636 351.675V357.675H254.636V351.675H248.636ZM145.118 351.675H139.118V357.675H145.118V351.675ZM241.611 329.207H152.134V341.207H241.611V329.207ZM152.134 329.207C142.302 329.207 134.413 337.258 134.413 347.043H146.413C146.413 343.775 149.04 341.207 152.134 341.207V329.207ZM134.413 347.043V354.028H146.413V347.043H134.413ZM134.413 354.028C134.413 358.647 138.157 362.381 142.766 362.381V350.381C144.777 350.381 146.413 352.011 146.413 354.028H134.413ZM142.766 362.381H250.988V350.381H142.766V362.381ZM250.988 362.381C255.597 362.381 259.341 358.647 259.341 354.028H247.341C247.341 352.011 248.977 350.381 250.988 350.381V362.381ZM259.341 354.028V347.043H247.341V354.028H259.341ZM259.341 347.043C259.341 337.255 251.447 329.207 241.611 329.207V341.207C244.716 341.207 247.341 343.778 247.341 347.043H259.341ZM248.636 345.675H145.118V357.675H248.636V345.675ZM151.118 351.675V347.043H139.118V351.675H151.118ZM151.118 347.043C151.118 346.332 151.671 345.912 152.134 345.912V333.912C144.862 333.912 139.118 339.887 139.118 347.043H151.118ZM152.134 345.912H241.611V333.912H152.134V345.912ZM241.611 345.912C242.087 345.912 242.636 346.339 242.636 347.043H254.636C254.636 339.879 248.88 333.912 241.611 333.912V345.912ZM242.636 347.043V351.675H254.636V347.043H242.636Z" fill="#373D2F" mask="url(#path-3-inside-1_371_126)"/>
<mask id="path-5-inside-2_371_126" fill="white">
<path d="M274.507 188.374L244.504 57.067C244.259 55.9966 243.306 55.239 242.21 55.239H151.55C150.453 55.239 149.5 55.9966 149.256 57.067L119.146 188.816C118.986 189.515 119.153 190.249 119.6 190.807C120.047 191.367 120.725 191.694 121.44 191.694H272.314C272.331 191.694 272.347 191.694 272.361 191.694C273.663 191.694 274.714 190.642 274.714 189.341C274.714 188.998 274.641 188.668 274.507 188.374ZM124.39 186.988L153.425 59.9444H240.332L269.364 186.988H124.39Z"/>
</mask>
<path d="M274.507 188.374L244.504 57.067C244.259 55.9966 243.306 55.239 242.21 55.239H151.55C150.453 55.239 149.5 55.9966 149.256 57.067L119.146 188.816C118.986 189.515 119.153 190.249 119.6 190.807C120.047 191.367 120.725 191.694 121.44 191.694H272.314C272.331 191.694 272.347 191.694 272.361 191.694C273.663 191.694 274.714 190.642 274.714 189.341C274.714 188.998 274.641 188.668 274.507 188.374ZM124.39 186.988L153.425 59.9444H240.332L269.364 186.988H124.39Z" fill="#373D2F"/>
<path d="M274.507 188.374L268.658 189.711L268.794 190.307L269.048 190.864L274.507 188.374ZM244.504 57.067L250.353 55.7305L250.353 55.7301L244.504 57.067ZM149.256 57.067L143.407 55.7301L143.407 55.7303L149.256 57.067ZM119.146 188.816L124.995 190.156L124.996 190.153L119.146 188.816ZM119.6 190.807L124.289 187.063L124.282 187.054L119.6 190.807ZM274.714 189.341L280.714 189.341L280.714 189.331L274.714 189.341ZM124.39 186.988L118.541 185.652L116.864 192.988H124.39V186.988ZM153.425 59.9444V53.9444H148.641L147.575 58.6076L153.425 59.9444ZM240.332 59.9444L246.181 58.6077L245.116 53.9444H240.332V59.9444ZM269.364 186.988V192.988H276.89L275.213 185.652L269.364 186.988ZM280.356 187.038L250.353 55.7305L238.654 58.4036L268.658 189.711L280.356 187.038ZM250.353 55.7301C249.483 51.9262 246.099 49.239 242.21 49.239V61.239C240.513 61.239 239.034 60.0669 238.654 58.404L250.353 55.7301ZM242.21 49.239H151.55V61.239H242.21V49.239ZM151.55 49.239C147.66 49.239 144.276 51.9262 143.407 55.7301L155.105 58.404C154.725 60.0669 153.247 61.239 151.55 61.239V49.239ZM143.407 55.7303L113.297 187.48L124.996 190.153L155.105 58.4038L143.407 55.7303ZM113.298 187.477C112.731 189.952 113.319 192.564 114.919 194.56L124.282 187.054C124.988 187.935 125.242 189.078 124.995 190.156L113.298 187.477ZM114.911 194.55C116.492 196.531 118.893 197.694 121.44 197.694V185.694C122.557 185.694 123.602 186.203 124.289 187.063L114.911 194.55ZM121.44 197.694H272.314V185.694H121.44V197.694ZM272.314 197.694C272.314 197.694 272.314 197.694 272.315 197.694C272.315 197.694 272.315 197.694 272.315 197.694C272.315 197.694 272.315 197.694 272.315 197.694C272.315 197.694 272.315 197.694 272.315 197.694C272.315 197.694 272.315 197.694 272.315 197.694C272.315 197.694 272.315 197.694 272.315 197.694C272.315 197.694 272.315 197.694 272.315 197.694C272.315 197.694 272.315 197.694 272.315 197.694C272.315 197.694 272.315 197.694 272.315 197.694C272.315 197.694 272.315 197.694 272.315 197.694C272.315 197.694 272.315 197.694 272.315 197.694C272.316 197.694 272.316 197.694 272.316 197.694C272.316 197.694 272.316 197.694 272.316 197.694C272.316 197.694 272.316 197.694 272.316 197.694C272.316 197.694 272.316 197.694 272.316 197.694C272.316 197.694 272.316 197.694 272.316 197.694C272.316 197.694 272.316 197.694 272.316 197.694C272.316 197.694 272.316 197.694 272.316 197.694C272.316 197.694 272.316 197.694 272.316 197.694C272.316 197.694 272.316 197.694 272.316 197.694C272.316 197.694 272.316 197.694 272.316 197.694C272.316 197.694 272.317 197.694 272.317 197.694C272.317 197.694 272.317 197.694 272.317 197.694C272.317 197.694 272.317 197.694 272.317 197.694C272.317 197.694 272.317 197.694 272.317 197.694C272.317 197.694 272.317 197.694 272.317 197.694C272.317 197.694 272.317 197.694 272.317 197.694C272.317 197.694 272.317 197.694 272.317 197.694C272.317 197.694 272.317 197.694 272.317 197.694C272.317 197.694 272.317 197.694 272.317 197.694C272.317 197.694 272.317 197.694 272.317 197.694C272.317 197.694 272.317 197.694 272.318 197.694C272.318 197.694 272.318 197.694 272.318 197.694C272.318 197.694 272.318 197.694 272.318 197.694C272.318 197.694 272.318 197.694 272.318 197.694C272.318 197.694 272.318 197.694 272.318 197.694C272.318 197.694 272.318 197.694 272.318 197.694C272.318 197.694 272.318 197.694 272.318 197.694C272.318 197.694 272.318 197.694 272.318 197.694C272.318 197.694 272.318 197.694 272.318 197.694C272.318 197.694 272.318 197.694 272.318 197.694C272.318 197.694 272.318 197.694 272.318 197.694C272.319 197.694 272.319 197.694 272.319 197.694C272.319 197.694 272.319 197.694 272.319 197.694C272.319 197.694 272.319 197.694 272.319 197.694C272.319 197.694 272.319 197.694 272.319 197.694C272.319 197.694 272.319 197.694 272.319 197.694C272.319 197.694 272.319 197.694 272.319 197.694C272.319 197.694 272.319 197.694 272.319 197.694C272.319 197.694 272.319 197.694 272.319 197.694C272.319 197.694 272.319 197.694 272.319 197.694C272.319 197.694 272.319 197.694 272.319 197.694C272.319 197.694 272.319 197.694 272.32 197.694C272.32 197.694 272.32 197.694 272.32 197.694C272.32 197.694 272.32 197.694 272.32 197.694C272.32 197.694 272.32 197.694 272.32 197.694C272.32 197.694 272.32 197.694 272.32 197.694C272.32 197.694 272.32 197.694 272.32 197.694C272.32 197.694 272.32 197.694 272.32 197.694C272.32 197.694 272.32 197.694 272.32 197.694C272.32 197.694 272.32 197.694 272.32 197.694C272.32 197.694 272.32 197.694 272.32 197.694C272.32 197.694 272.32 197.694 272.32 197.694C272.321 197.694 272.321 197.694 272.321 197.694C272.321 197.694 272.321 197.694 272.321 197.694C272.321 197.694 272.321 197.694 272.321 197.694C272.321 197.694 272.321 197.694 272.321 197.694C272.321 197.694 272.321 197.694 272.321 197.694C272.321 197.694 272.321 197.694 272.321 197.694C272.321 197.694 272.321 197.694 272.321 197.694C272.321 197.694 272.321 197.694 272.321 197.694C272.321 197.694 272.321 197.694 272.321 197.694C272.321 197.694 272.321 197.694 272.321 197.694C272.321 197.694 272.322 197.694 272.322 197.694C272.322 197.694 272.322 197.694 272.322 197.694C272.322 197.694 272.322 197.694 272.322 197.694C272.322 197.694 272.322 197.694 272.322 197.694C272.322 197.694 272.322 197.694 272.322 197.694C272.322 197.694 272.322 197.694 272.322 197.694C272.322 197.694 272.322 197.694 272.322 197.694C272.322 197.694 272.322 197.694 272.322 197.694C272.322 197.694 272.322 197.694 272.322 197.694C272.322 197.694 272.322 197.694 272.322 197.694C272.322 197.694 272.322 197.694 272.323 197.694C272.323 197.694 272.323 197.694 272.323 197.694C272.323 197.694 272.323 197.694 272.323 197.694C272.323 197.694 272.323 197.694 272.323 197.694C272.323 197.694 272.323 197.694 272.323 197.694C272.323 197.694 272.323 197.694 272.323 197.694C272.323 197.694 272.323 197.694 272.323 197.694C272.323 197.694 272.323 197.694 272.323 197.694C272.323 197.694 272.323 197.694 272.323 197.694C272.323 197.694 272.323 197.694 272.323 197.694C272.323 197.694 272.323 197.694 272.323 197.694C272.324 197.694 272.324 197.694 272.324 197.694C272.324 197.694 272.324 197.694 272.324 197.694C272.324 197.694 272.324 197.694 272.324 197.694C272.324 197.694 272.324 197.694 272.324 197.694C272.324 197.694 272.324 197.694 272.324 197.694C272.324 197.694 272.324 197.694 272.324 197.694C272.324 197.694 272.324 197.694 272.324 197.694C272.324 197.694 272.324 197.694 272.324 197.694C272.324 197.694 272.324 197.694 272.324 197.694C272.324 197.694 272.324 197.694 272.324 197.694C272.324 197.694 272.324 197.694 272.325 197.694C272.325 197.694 272.325 197.694 272.325 197.694C272.325 197.694 272.325 197.694 272.325 197.694C272.325 197.694 272.325 197.694 272.325 197.694C272.325 197.694 272.325 197.694 272.325 197.694C272.325 197.694 272.325 197.694 272.325 197.694C272.325 197.694 272.325 197.694 272.325 197.694C272.325 197.694 272.325 197.694 272.325 197.694C272.325 197.694 272.325 197.694 272.325 197.694C272.325 197.694 272.325 197.694 272.325 197.694C272.325 197.694 272.325 197.694 272.325 197.694C272.326 197.694 272.326 197.694 272.326 197.694C272.326 197.694 272.326 197.694 272.326 197.694C272.326 197.694 272.326 197.694 272.326 197.694C272.326 197.694 272.326 197.694 272.326 197.694C272.326 197.694 272.326 197.694 272.326 197.694C272.326 197.694 272.326 197.694 272.326 197.694C272.326 197.694 272.326 197.694 272.326 197.694C272.326 197.694 272.326 197.694 272.326 197.694C272.326 197.694 272.326 197.694 272.326 197.694C272.326 197.694 272.326 197.694 272.326 197.694C272.326 197.694 272.327 197.694 272.327 197.694C272.327 197.694 272.327 197.694 272.327 197.694C272.327 197.694 272.327 197.694 272.327 197.694C272.327 197.694 272.327 197.694 272.327 197.694C272.327 197.694 272.327 197.694 272.327 197.694C272.327 197.694 272.327 197.694 272.327 197.694C272.327 197.694 272.327 197.694 272.327 197.694C272.327 197.694 272.327 197.694 272.327 197.694C272.327 197.694 272.327 197.694 272.327 197.694C272.327 197.694 272.327 197.694 272.327 197.694C272.327 197.694 272.327 197.694 272.327 197.694C272.328 197.694 272.328 197.694 272.328 197.694C272.328 197.694 272.328 197.694 272.328 197.694C272.328 197.694 272.328 197.694 272.328 197.694C272.328 197.694 272.328 197.694 272.328 197.694C272.328 197.694 272.328 197.694 272.328 197.694C272.328 197.694 272.328 197.694 272.328 197.694C272.328 197.694 272.328 197.694 272.328 197.694C272.328 197.694 272.328 197.694 272.328 197.694C272.328 197.694 272.328 197.694 272.328 197.694C272.328 197.694 272.328 197.694 272.328 197.694C272.328 197.694 272.329 197.694 272.329 197.694C272.329 197.694 272.329 197.694 272.329 197.694C272.329 197.694 272.329 197.694 272.329 197.694C272.329 197.694 272.329 197.694 272.329 197.694C272.329 197.694 272.329 197.694 272.329 197.694C272.329 197.694 272.329 197.694 272.329 197.694C272.329 197.694 272.329 197.694 272.329 197.694C272.329 197.694 272.329 197.694 272.329 197.694C272.329 197.694 272.329 197.694 272.329 197.694C272.329 197.694 272.329 197.694 272.329 197.694C272.329 197.694 272.329 197.694 272.33 197.694C272.33 197.694 272.33 197.694 272.33 197.694C272.33 197.694 272.33 197.694 272.33 197.694C272.33 197.694 272.33 197.694 272.33 197.694C272.33 197.694 272.33 197.694 272.33 197.694C272.33 197.694 272.33 197.694 272.33 197.694C272.33 197.694 272.33 197.694 272.33 197.694C272.33 197.694 272.33 197.694 272.33 197.694C272.33 197.694 272.33 197.694 272.33 197.694C272.33 197.694 272.33 197.694 272.33 197.694C272.33 197.694 272.33 197.694 272.33 197.694C272.33 197.694 272.331 197.694 272.331 197.694C272.331 197.694 272.331 197.694 272.331 197.694C272.331 197.694 272.331 197.694 272.331 197.694C272.331 197.694 272.331 197.694 272.331 197.694C272.331 197.694 272.331 197.694 272.331 197.694C272.331 197.694 272.331 197.694 272.331 197.694C272.331 197.694 272.331 197.694 272.331 197.694C272.331 197.694 272.331 197.694 272.331 197.694C272.331 197.694 272.331 197.694 272.331 197.694C272.331 197.694 272.331 197.694 272.331 197.694C272.331 197.694 272.331 197.694 272.331 197.694C272.332 197.694 272.332 197.694 272.332 197.694C272.332 197.694 272.332 197.694 272.332 197.694C272.332 197.694 272.332 197.694 272.332 197.694C272.332 197.694 272.332 197.694 272.332 197.694C272.332 197.694 272.332 197.694 272.332 197.694C272.332 197.694 272.332 197.694 272.332 197.694C272.332 197.694 272.332 197.694 272.332 197.694C272.332 197.694 272.332 197.694 272.332 197.694C272.332 197.694 272.332 197.694 272.332 197.694C272.332 197.694 272.332 197.694 272.332 197.694C272.332 197.694 272.333 197.694 272.333 197.694C272.333 197.694 272.333 197.694 272.333 197.694C272.333 197.694 272.333 197.694 272.333 197.694C272.333 197.694 272.333 197.694 272.333 197.694C272.333 197.694 272.333 197.694 272.333 197.694C272.333 197.694 272.333 197.694 272.333 197.694C272.333 197.694 272.333 197.694 272.333 197.694C272.333 197.694 272.333 197.694 272.333 197.694C272.333 197.694 272.333 197.694 272.333 197.694C272.333 197.694 272.333 197.694 272.333 197.694C272.333 197.694 272.333 197.694 272.333 197.694C272.334 197.694 272.334 197.694 272.334 197.694C272.334 197.694 272.334 197.694 272.334 197.694C272.334 197.694 272.334 197.694 272.334 197.694C272.334 197.694 272.334 197.694 272.334 197.694C272.334 197.694 272.334 197.694 272.334 197.694C272.334 197.694 272.334 197.694 272.334 197.694C272.334 197.694 272.334 197.694 272.334 197.694C272.334 197.694 272.334 197.694 272.334 197.694C272.334 197.694 272.334 197.694 272.334 197.694C272.334 197.694 272.334 197.694 272.334 197.694C272.334 197.694 272.334 197.694 272.335 197.694C272.335 197.694 272.335 197.694 272.335 197.694C272.335 197.694 272.335 197.694 272.335 197.694C272.335 197.694 272.335 197.694 272.335 197.694C272.335 197.694 272.335 197.694 272.335 197.694C272.335 197.694 272.335 197.694 272.335 197.694C272.335 197.694 272.335 197.694 272.335 197.694C272.335 197.694 272.335 197.694 272.335 197.694C272.335 197.694 272.335 197.694 272.335 197.694C272.335 197.694 272.335 197.694 272.335 197.694C272.335 197.694 272.335 197.694 272.335 197.694C272.335 197.694 272.336 197.694 272.336 197.694C272.336 197.694 272.336 197.694 272.336 197.694C272.336 197.694 272.336 197.694 272.336 197.694C272.336 197.694 272.336 197.694 272.336 197.694C272.336 197.694 272.336 197.694 272.336 197.694C272.336 197.694 272.336 197.694 272.336 197.694C272.336 197.694 272.336 197.694 272.336 197.694C272.336 197.694 272.336 197.694 272.336 197.694C272.336 197.694 272.336 197.694 272.336 197.694C272.336 197.694 272.336 197.694 272.336 197.694C272.336 197.694 272.336 197.694 272.336 197.694C272.337 197.694 272.337 197.694 272.337 197.694C272.337 197.694 272.337 197.694 272.337 197.694C272.337 197.694 272.337 197.694 272.337 197.694C272.337 197.694 272.337 197.694 272.337 197.694C272.337 197.694 272.337 197.694 272.337 197.694C272.337 197.694 272.337 197.694 272.337 197.694C272.337 197.694 272.337 197.694 272.337 197.694C272.337 197.694 272.337 197.694 272.337 197.694C272.337 197.694 272.337 197.694 272.337 197.694C272.337 197.694 272.337 197.694 272.337 197.694C272.337 197.694 272.337 197.694 272.338 197.694C272.338 197.694 272.338 197.694 272.338 197.694C272.338 197.694 272.338 197.694 272.338 197.694C272.338 197.694 272.338 197.694 272.338 197.694C272.338 197.694 272.338 197.694 272.338 197.694C272.338 197.694 272.338 197.694 272.338 197.694C272.338 197.694 272.338 197.694 272.338 197.694C272.338 197.694 272.338 197.694 272.338 197.694C272.338 197.694 272.338 197.694 272.338 197.694C272.338 197.694 272.338 197.694 272.338 197.694C272.338 197.694 272.338 197.694 272.338 197.694C272.338 197.694 272.339 197.694 272.339 197.694C272.339 197.694 272.339 197.694 272.339 197.694C272.339 197.694 272.339 197.694 272.339 197.694C272.339 197.694 272.339 197.694 272.339 197.694C272.339 197.694 272.339 197.694 272.339 197.694C272.339 197.694 272.339 197.694 272.339 197.694C272.339 197.694 272.339 197.694 272.339 197.694C272.339 197.694 272.339 197.694 272.339 197.694C272.339 197.694 272.339 197.694 272.339 197.694C272.339 197.694 272.339 197.694 272.339 197.694C272.339 197.694 272.339 197.694 272.339 197.694C272.34 197.694 272.34 197.694 272.34 197.694C272.34 197.694 272.34 197.694 272.34 197.694C272.34 197.694 272.34 197.694 272.34 197.694C272.34 197.694 272.34 197.694 272.34 197.694C272.34 197.694 272.34 197.694 272.34 197.694C272.34 197.694 272.34 197.694 272.34 197.694C272.34 197.694 272.34 197.694 272.34 197.694C272.34 197.694 272.34 197.694 272.34 197.694C272.34 197.694 272.34 197.694 272.34 197.694C272.34 197.694 272.34 197.694 272.34 197.694C272.34 197.694 272.34 197.694 272.341 197.694C272.341 197.694 272.341 197.694 272.341 197.694C272.341 197.694 272.341 197.694 272.341 197.694C272.341 197.694 272.341 197.694 272.341 197.694C272.341 197.694 272.341 197.694 272.341 197.694C272.341 197.694 272.341 197.694 272.341 197.694C272.341 197.694 272.341 197.694 272.341 197.694C272.341 197.694 272.341 197.694 272.341 197.694C272.341 197.694 272.341 197.694 272.341 197.694C272.341 197.694 272.341 197.694 272.341 197.694C272.341 197.694 272.341 197.694 272.341 197.694C272.341 197.694 272.341 197.694 272.342 197.694C272.342 197.694 272.342 197.694 272.342 197.694C272.342 197.694 272.342 197.694 272.342 197.694C272.342 197.694 272.342 197.694 272.342 197.694C272.342 197.694 272.342 197.694 272.342 197.694C272.342 197.694 272.342 197.694 272.342 197.694C272.342 197.694 272.342 197.694 272.342 197.694C272.342 197.694 272.342 197.694 272.342 197.694C272.342 197.694 272.342 197.694 272.342 197.694C272.342 197.694 272.342 197.694 272.342 197.694C272.342 197.694 272.342 197.694 272.342 197.694C272.342 197.694 272.343 197.694 272.343 197.694C272.343 197.694 272.343 197.694 272.343 197.694C272.343 197.694 272.343 197.694 272.343 197.694C272.343 197.694 272.343 197.694 272.343 197.694C272.343 197.694 272.343 197.694 272.343 197.694C272.343 197.694 272.343 197.694 272.343 197.694C272.343 197.694 272.343 197.694 272.343 197.694C272.343 197.694 272.343 197.694 272.343 197.694C272.343 197.694 272.343 197.694 272.343 197.694C272.343 197.694 272.343 197.694 272.343 197.694C272.343 197.694 272.343 197.694 272.343 197.694C272.343 197.694 272.344 197.694 272.344 197.694C272.344 197.694 272.344 197.694 272.344 197.694C272.344 197.694 272.344 197.694 272.344 197.694C272.344 197.694 272.344 197.694 272.344 197.694C272.344 197.694 272.344 197.694 272.344 197.694C272.344 197.694 272.344 197.694 272.344 197.694C272.344 197.694 272.344 197.694 272.344 197.694C272.344 197.694 272.344 197.694 272.344 197.694C272.344 197.694 272.344 197.694 272.344 197.694C272.344 197.694 272.344 197.694 272.344 197.694C272.344 197.694 272.344 197.694 272.344 197.694C272.344 197.694 272.345 197.694 272.345 197.694C272.345 197.694 272.345 197.694 272.345 197.694C272.345 197.694 272.345 197.694 272.345 197.694C272.345 197.694 272.345 197.694 272.345 197.694C272.345 197.694 272.345 197.694 272.345 197.694C272.345 197.694 272.345 197.694 272.345 197.694C272.345 197.694 272.345 197.694 272.345 197.694C272.345 197.694 272.345 197.694 272.345 197.694C272.345 197.694 272.345 197.694 272.345 197.694C272.345 197.694 272.345 197.694 272.345 197.694C272.345 197.694 272.345 197.694 272.345 197.694C272.345 197.694 272.346 197.694 272.346 197.694C272.346 197.694 272.346 197.694 272.346 197.694C272.346 197.694 272.346 197.694 272.346 197.694C272.346 197.694 272.346 197.694 272.346 197.694C272.346 197.694 272.346 197.694 272.346 197.694C272.346 197.694 272.346 197.694 272.346 197.694C272.346 197.694 272.346 197.694 272.346 197.694C272.346 197.694 272.346 197.694 272.346 197.694C272.346 197.694 272.346 197.694 272.346 197.694C272.346 197.694 272.346 197.694 272.346 197.694C272.346 197.694 272.346 197.694 272.346 197.694C272.346 197.694 272.347 197.694 272.347 197.694C272.347 197.694 272.347 197.694 272.347 197.694C272.347 197.694 272.347 197.694 272.347 197.694C272.347 197.694 272.347 197.694 272.347 197.694C272.347 197.694 272.347 197.694 272.347 197.694C272.347 197.694 272.347 197.694 272.347 197.694C272.347 197.694 272.347 197.694 272.347 197.694C272.347 197.694 272.347 197.694 272.347 197.694C272.347 197.694 272.347 197.694 272.347 197.694C272.347 197.694 272.347 197.694 272.347 197.694C272.347 197.694 272.347 197.694 272.347 197.694C272.347 197.694 272.348 197.694 272.348 197.694C272.348 197.694 272.348 197.694 272.348 197.694C272.348 197.694 272.348 197.694 272.348 197.694C272.348 197.694 272.348 197.694 272.348 197.694C272.348 197.694 272.348 197.694 272.348 197.694C272.348 197.694 272.348 197.694 272.348 197.694C272.348 197.694 272.348 197.694 272.348 197.694C272.348 197.694 272.348 197.694 272.348 197.694C272.348 197.694 272.348 197.694 272.348 197.694C272.348 197.694 272.348 197.694 272.348 197.694C272.348 197.694 272.348 197.694 272.348 197.694C272.348 197.694 272.348 197.694 272.349 197.694C272.349 197.694 272.349 197.694 272.349 197.694C272.349 197.694 272.349 197.694 272.349 197.694C272.349 197.694 272.349 197.694 272.349 197.694C272.349 197.694 272.349 197.694 272.349 197.694C272.349 197.694 272.349 197.694 272.349 197.694C272.349 197.694 272.349 197.694 272.349 197.694C272.349 197.694 272.349 197.694 272.349 197.694C272.349 197.694 272.349 197.694 272.349 197.694C272.349 197.694 272.349 197.694 272.349 197.694C272.349 197.694 272.349 197.694 272.349 197.694C272.349 197.694 272.349 197.694 272.35 197.694C272.35 197.694 272.35 197.694 272.35 197.694C272.35 197.694 272.35 197.694 272.35 197.694C272.35 197.694 272.35 197.694 272.35 197.694C272.35 197.694 272.35 197.694 272.35 197.694C272.35 197.694 272.35 197.694 272.35 197.694C272.35 197.694 272.35 197.694 272.35 197.694C272.35 197.694 272.35 197.694 272.35 197.694C272.35 197.694 272.35 197.694 272.35 197.694C272.35 197.694 272.35 197.694 272.35 197.694C272.35 197.694 272.35 197.694 272.35 197.694C272.35 197.694 272.35 197.694 272.35 197.694C272.351 197.694 272.351 197.694 272.351 197.694C272.351 197.694 272.351 197.694 272.351 197.694C272.351 197.694 272.351 197.694 272.351 197.694C272.351 197.694 272.351 197.694 272.351 197.694C272.351 197.694 272.351 197.694 272.351 197.694C272.351 197.694 272.351 197.694 272.351 197.694C272.351 197.694 272.351 197.694 272.351 197.694C272.351 197.694 272.351 197.694 272.351 197.694C272.351 197.694 272.351 197.694 272.351 197.694C272.351 197.694 272.351 197.694 272.351 197.694C272.351 197.694 272.351 197.694 272.351 197.694C272.351 197.694 272.352 197.694 272.352 197.694C272.352 197.694 272.352 197.694 272.352 197.694C272.352 197.694 272.352 197.694 272.352 197.694C272.352 197.694 272.352 197.694 272.352 197.694C272.352 197.694 272.352 197.694 272.352 197.694C272.352 197.694 272.352 197.694 272.352 197.694C272.352 197.694 272.352 197.694 272.352 197.694C272.352 197.694 272.352 197.694 272.352 197.694C272.352 197.694 272.352 197.694 272.352 197.694C272.352 197.694 272.352 197.694 272.352 197.694C272.352 197.694 272.352 197.694 272.352 197.694C272.352 197.694 272.352 197.694 272.353 197.694C272.353 197.694 272.353 197.694 272.353 197.694C272.353 197.694 272.353 197.694 272.353 197.694C272.353 197.694 272.353 197.694 272.353 197.694C272.353 197.694 272.353 197.694 272.353 197.694C272.353 197.694 272.353 197.694 272.353 197.694C272.353 197.694 272.353 197.694 272.353 197.694C272.353 197.694 272.353 197.694 272.353 197.694C272.353 197.694 272.353 197.694 272.353 197.694C272.353 197.694 272.353 197.694 272.353 197.694C272.353 197.694 272.353 197.694 272.353 197.694C272.353 197.694 272.353 197.694 272.353 197.694C272.354 197.694 272.354 197.694 272.354 197.694C272.354 197.694 272.354 197.694 272.354 197.694C272.354 197.694 272.354 197.694 272.354 197.694C272.354 197.694 272.354 197.694 272.354 197.694C272.354 197.694 272.354 197.694 272.354 197.694C272.354 197.694 272.354 197.694 272.354 197.694C272.354 197.694 272.354 197.694 272.354 197.694C272.354 197.694 272.354 197.694 272.354 197.694C272.354 197.694 272.354 197.694 272.354 197.694C272.354 197.694 272.354 197.694 272.354 197.694C272.354 197.694 272.354 197.694 272.354 197.694C272.354 197.694 272.354 197.694 272.355 197.694C272.355 197.694 272.355 197.694 272.355 197.694C272.355 197.694 272.355 197.694 272.355 197.694C272.355 197.694 272.355 197.694 272.355 197.694C272.355 197.694 272.355 197.694 272.355 197.694C272.355 197.694 272.355 197.694 272.355 197.694C272.355 197.694 272.355 197.694 272.355 197.694C272.355 197.694 272.355 197.694 272.355 197.694C272.355 197.694 272.355 197.694 272.355 197.694C272.355 197.694 272.355 197.694 272.355 197.694C272.355 197.694 272.355 197.694 272.355 197.694C272.355 197.694 272.355 197.694 272.355 197.694C272.356 197.694 272.356 197.694 272.356 197.694C272.356 197.694 272.356 197.694 272.356 197.694C272.356 197.694 272.356 197.694 272.356 197.694C272.356 197.694 272.356 197.694 272.356 197.694C272.356 197.694 272.356 197.694 272.356 197.694C272.356 197.694 272.356 197.694 272.356 197.694C272.356 197.694 272.356 197.694 272.356 197.694C272.356 197.694 272.356 197.694 272.356 197.694C272.356 197.694 272.356 197.694 272.356 197.694C272.356 197.694 272.356 197.694 272.356 197.694C272.356 197.694 272.356 197.694 272.356 197.694C272.356 197.694 272.356 197.694 272.357 197.694C272.357 197.694 272.357 197.694 272.357 197.694C272.357 197.694 272.357 197.694 272.357 197.694C272.357 197.694 272.357 197.694 272.357 197.694C272.357 197.694 272.357 197.694 272.357 197.694C272.357 197.694 272.357 197.694 272.357 197.694C272.357 197.694 272.357 197.694 272.357 197.694C272.357 197.694 272.357 197.694 272.357 197.694C272.357 197.694 272.357 197.694 272.357 197.694C272.357 197.694 272.357 197.694 272.357 197.694C272.357 197.694 272.357 197.694 272.357 197.694C272.357 197.694 272.357 197.694 272.357 197.694C272.357 197.694 272.358 197.694 272.358 197.694C272.358 197.694 272.358 197.694 272.358 197.694C272.358 197.694 272.358 197.694 272.358 197.694C272.358 197.694 272.358 197.694 272.358 197.694C272.358 197.694 272.358 197.694 272.358 197.694C272.358 197.694 272.358 197.694 272.358 197.694C272.358 197.694 272.358 197.694 272.358 197.694C272.358 197.694 272.358 197.694 272.358 197.694C272.358 197.694 272.358 197.694 272.358 197.694C272.358 197.694 272.358 197.694 272.358 197.694C272.358 197.694 272.358 197.694 272.358 197.694C272.358 197.694 272.358 197.694 272.358 197.694C272.358 197.694 272.359 197.694 272.359 197.694C272.359 197.694 272.359 197.694 272.359 197.694C272.359 197.694 272.359 197.694 272.359 197.694C272.359 197.694 272.359 197.694 272.359 197.694C272.359 197.694 272.359 197.694 272.359 197.694C272.359 197.694 272.359 197.694 272.359 197.694C272.359 197.694 272.359 197.694 272.359 197.694C272.359 197.694 272.359 197.694 272.359 197.694C272.359 197.694 272.359 197.694 272.359 197.694C272.359 197.694 272.359 197.694 272.359 197.694C272.359 197.694 272.359 197.694 272.359 197.694C272.359 197.694 272.359 197.694 272.359 197.694C272.36 197.694 272.36 197.694 272.36 197.694C272.36 197.694 272.36 197.694 272.36 197.694C272.36 197.694 272.36 197.694 272.36 197.694C272.36 197.694 272.36 197.694 272.36 197.694C272.36 197.694 272.36 197.694 272.36 197.694C272.36 197.694 272.36 197.694 272.36 197.694C272.36 197.694 272.36 197.694 272.36 197.694C272.36 197.694 272.36 197.694 272.36 197.694C272.36 197.694 272.36 197.694 272.36 197.694C272.36 197.694 272.36 197.694 272.36 197.694C272.36 197.694 272.36 197.694 272.36 197.694C272.36 197.694 272.36 197.694 272.36 197.694C272.361 197.694 272.361 197.694 272.361 197.694C272.361 197.694 272.361 197.694 272.361 197.694C272.361 197.694 272.361 197.694 272.361 197.694C272.361 197.694 272.361 197.694 272.361 197.694C272.361 197.694 272.361 197.694 272.361 197.694C272.361 197.694 272.361 197.694 272.361 197.694C272.361 197.694 272.361 197.694 272.361 197.694C272.361 197.694 272.361 197.694 272.361 197.694C272.361 197.694 272.361 197.694 272.361 197.694C272.361 197.694 272.361 197.694 272.361 197.694C272.361 197.694 272.361 197.694 272.361 197.694C272.361 197.694 272.361 197.694 272.361 197.694V185.694C272.361 185.694 272.361 185.694 272.361 185.694C272.361 185.694 272.361 185.694 272.361 185.694C272.361 185.694 272.361 185.694 272.361 185.694C272.361 185.694 272.361 185.694 272.361 185.694C272.361 185.694 272.361 185.694 272.361 185.694C272.361 185.694 272.361 185.694 272.361 185.694C272.361 185.694 272.361 185.694 272.361 185.694C272.361 185.694 272.361 185.694 272.361 185.694C272.361 185.694 272.361 185.694 272.361 185.694C272.361 185.694 272.361 185.694 272.361 185.694C272.361 185.694 272.361 185.694 272.361 185.694C272.361 185.694 272.361 185.694 272.36 185.694C272.36 185.694 272.36 185.694 272.36 185.694C272.36 185.694 272.36 185.694 272.36 185.694C272.36 185.694 272.36 185.694 272.36 185.694C272.36 185.694 272.36 185.694 272.36 185.694C272.36 185.694 272.36 185.694 272.36 185.694C272.36 185.694 272.36 185.694 272.36 185.694C272.36 185.694 272.36 185.694 272.36 185.694C272.36 185.694 272.36 185.694 272.36 185.694C272.36 185.694 272.36 185.694 272.36 185.694C272.36 185.694 272.36 185.694 272.36 185.694C272.36 185.694 272.36 185.694 272.36 185.694C272.36 185.694 272.36 185.694 272.359 185.694C272.359 185.694 272.359 185.694 272.359 185.694C272.359 185.694 272.359 185.694 272.359 185.694C272.359 185.694 272.359 185.694 272.359 185.694C272.359 185.694 272.359 185.694 272.359 185.694C272.359 185.694 272.359 185.694 272.359 185.694C272.359 185.694 272.359 185.694 272.359 185.694C272.359 185.694 272.359 185.694 272.359 185.694C272.359 185.694 272.359 185.694 272.359 185.694C272.359 185.694 272.359 185.694 272.359 185.694C272.359 185.694 272.359 185.694 272.359 185.694C272.359 185.694 272.359 185.694 272.359 185.694C272.359 185.694 272.358 185.694 272.358 185.694C272.358 185.694 272.358 185.694 272.358 185.694C272.358 185.694 272.358 185.694 272.358 185.694C272.358 185.694 272.358 185.694 272.358 185.694C272.358 185.694 272.358 185.694 272.358 185.694C272.358 185.694 272.358 185.694 272.358 185.694C272.358 185.694 272.358 185.694 272.358 185.694C272.358 185.694 272.358 185.694 272.358 185.694C272.358 185.694 272.358 185.694 272.358 185.694C272.358 185.694 272.358 185.694 272.358 185.694C272.358 185.694 272.358 185.694 272.358 185.694C272.358 185.694 272.358 185.694 272.358 185.694C272.358 185.694 272.357 185.694 272.357 185.694C272.357 185.694 272.357 185.694 272.357 185.694C272.357 185.694 272.357 185.694 272.357 185.694C272.357 185.694 272.357 185.694 272.357 185.694C272.357 185.694 272.357 185.694 272.357 185.694C272.357 185.694 272.357 185.694 272.357 185.694C272.357 185.694 272.357 185.694 272.357 185.694C272.357 185.694 272.357 185.694 272.357 185.694C272.357 185.694 272.357 185.694 272.357 185.694C272.357 185.694 272.357 185.694 272.357 185.694C272.357 185.694 272.357 185.694 272.357 185.694C272.357 185.694 272.357 185.694 272.357 185.694C272.356 185.694 272.356 185.694 272.356 185.694C272.356 185.694 272.356 185.694 272.356 185.694C272.356 185.694 272.356 185.694 272.356 185.694C272.356 185.694 272.356 185.694 272.356 185.694C272.356 185.694 272.356 185.694 272.356 185.694C272.356 185.694 272.356 185.694 272.356 185.694C272.356 185.694 272.356 185.694 272.356 185.694C272.356 185.694 272.356 185.694 272.356 185.694C272.356 185.694 272.356 185.694 272.356 185.694C272.356 185.694 272.356 185.694 272.356 185.694C272.356 185.694 272.356 185.694 272.356 185.694C272.356 185.694 272.356 185.694 272.355 185.694C272.355 185.694 272.355 185.694 272.355 185.694C272.355 185.694 272.355 185.694 272.355 185.694C272.355 185.694 272.355 185.694 272.355 185.694C272.355 185.694 272.355 185.694 272.355 185.694C272.355 185.694 272.355 185.694 272.355 185.694C272.355 185.694 272.355 185.694 272.355 185.694C272.355 185.694 272.355 185.694 272.355 185.694C272.355 185.694 272.355 185.694 272.355 185.694C272.355 185.694 272.355 185.694 272.355 185.694C272.355 185.694 272.355 185.694 272.355 185.694C272.355 185.694 272.355 185.694 272.355 185.694C272.354 185.694 272.354 185.694 272.354 185.694C272.354 185.694 272.354 185.694 272.354 185.694C272.354 185.694 272.354 185.694 272.354 185.694C272.354 185.694 272.354 185.694 272.354 185.694C272.354 185.694 272.354 185.694 272.354 185.694C272.354 185.694 272.354 185.694 272.354 185.694C272.354 185.694 272.354 185.694 272.354 185.694C272.354 185.694 272.354 185.694 272.354 185.694C272.354 185.694 272.354 185.694 272.354 185.694C272.354 185.694 272.354 185.694 272.354 185.694C272.354 185.694 272.354 185.694 272.354 185.694C272.354 185.694 272.354 185.694 272.353 185.694C272.353 185.694 272.353 185.694 272.353 185.694C272.353 185.694 272.353 185.694 272.353 185.694C272.353 185.694 272.353 185.694 272.353 185.694C272.353 185.694 272.353 185.694 272.353 185.694C272.353 185.694 272.353 185.694 272.353 185.694C272.353 185.694 272.353 185.694 272.353 185.694C272.353 185.694 272.353 185.694 272.353 185.694C272.353 185.694 272.353 185.694 272.353 185.694C272.353 185.694 272.353 185.694 272.353 185.694C272.353 185.694 272.353 185.694 272.353 185.694C272.353 185.694 272.353 185.694 272.353 185.694C272.352 185.694 272.352 185.694 272.352 185.694C272.352 185.694 272.352 185.694 272.352 185.694C272.352 185.694 272.352 185.694 272.352 185.694C272.352 185.694 272.352 185.694 272.352 185.694C272.352 185.694 272.352 185.694 272.352 185.694C272.352 185.694 272.352 185.694 272.352 185.694C272.352 185.694 272.352 185.694 272.352 185.694C272.352 185.694 272.352 185.694 272.352 185.694C272.352 185.694 272.352 185.694 272.352 185.694C272.352 185.694 272.352 185.694 272.352 185.694C272.352 185.694 272.352 185.694 272.352 185.694C272.352 185.694 272.351 185.694 272.351 185.694C272.351 185.694 272.351 185.694 272.351 185.694C272.351 185.694 272.351 185.694 272.351 185.694C272.351 185.694 272.351 185.694 272.351 185.694C272.351 185.694 272.351 185.694 272.351 185.694C272.351 185.694 272.351 185.694 272.351 185.694C272.351 185.694 272.351 185.694 272.351 185.694C272.351 185.694 272.351 185.694 272.351 185.694C272.351 185.694 272.351 185.694 272.351 185.694C272.351 185.694 272.351 185.694 272.351 185.694C272.351 185.694 272.351 185.694 272.351 185.694C272.351 185.694 272.351 185.694 272.35 185.694C272.35 185.694 272.35 185.694 272.35 185.694C272.35 185.694 272.35 185.694 272.35 185.694C272.35 185.694 272.35 185.694 272.35 185.694C272.35 185.694 272.35 185.694 272.35 185.694C272.35 185.694 272.35 185.694 272.35 185.694C272.35 185.694 272.35 185.694 272.35 185.694C272.35 185.694 272.35 185.694 272.35 185.694C272.35 185.694 272.35 185.694 272.35 185.694C272.35 185.694 272.35 185.694 272.35 185.694C272.35 185.694 272.35 185.694 272.35 185.694C272.35 185.694 272.35 185.694 272.35 185.694C272.349 185.694 272.349 185.694 272.349 185.694C272.349 185.694 272.349 185.694 272.349 185.694C272.349 185.694 272.349 185.694 272.349 185.694C272.349 185.694 272.349 185.694 272.349 185.694C272.349 185.694 272.349 185.694 272.349 185.694C272.349 185.694 272.349 185.694 272.349 185.694C272.349 185.694 272.349 185.694 272.349 185.694C272.349 185.694 272.349 185.694 272.349 185.694C272.349 185.694 272.349 185.694 272.349 185.694C272.349 185.694 272.349 185.694 272.349 185.694C272.349 185.694 272.349 185.694 272.349 185.694C272.348 185.694 272.348 185.694 272.348 185.694C272.348 185.694 272.348 185.694 272.348 185.694C272.348 185.694 272.348 185.694 272.348 185.694C272.348 185.694 272.348 185.694 272.348 185.694C272.348 185.694 272.348 185.694 272.348 185.694C272.348 185.694 272.348 185.694 272.348 185.694C272.348 185.694 272.348 185.694 272.348 185.694C272.348 185.694 272.348 185.694 272.348 185.694C272.348 185.694 272.348 185.694 272.348 185.694C272.348 185.694 272.348 185.694 272.348 185.694C272.348 185.694 272.348 185.694 272.348 185.694C272.348 185.694 272.347 185.694 272.347 185.694C272.347 185.694 272.347 185.694 272.347 185.694C272.347 185.694 272.347 185.694 272.347 185.694C272.347 185.694 272.347 185.694 272.347 185.694C272.347 185.694 272.347 185.694 272.347 185.694C272.347 185.694 272.347 185.694 272.347 185.694C272.347 185.694 272.347 185.694 272.347 185.694C272.347 185.694 272.347 185.694 272.347 185.694C272.347 185.694 272.347 185.694 272.347 185.694C272.347 185.694 272.347 185.694 272.347 185.694C272.347 185.694 272.347 185.694 272.347 185.694C272.347 185.694 272.346 185.694 272.346 185.694C272.346 185.694 272.346 185.694 272.346 185.694C272.346 185.694 272.346 185.694 272.346 185.694C272.346 185.694 272.346 185.694 272.346 185.694C272.346 185.694 272.346 185.694 272.346 185.694C272.346 185.694 272.346 185.694 272.346 185.694C272.346 185.694 272.346 185.694 272.346 185.694C272.346 185.694 272.346 185.694 272.346 185.694C272.346 185.694 272.346 185.694 272.346 185.694C272.346 185.694 272.346 185.694 272.346 185.694C272.346 185.694 272.346 185.694 272.346 185.694C272.346 185.694 272.345 185.694 272.345 185.694C272.345 185.694 272.345 185.694 272.345 185.694C272.345 185.694 272.345 185.694 272.345 185.694C272.345 185.694 272.345 185.694 272.345 185.694C272.345 185.694 272.345 185.694 272.345 185.694C272.345 185.694 272.345 185.694 272.345 185.694C272.345 185.694 272.345 185.694 272.345 185.694C272.345 185.694 272.345 185.694 272.345 185.694C272.345 185.694 272.345 185.694 272.345 185.694C272.345 185.694 272.345 185.694 272.345 185.694C272.345 185.694 272.345 185.694 272.345 185.694C272.345 185.694 272.344 185.694 272.344 185.694C272.344 185.694 272.344 185.694 272.344 185.694C272.344 185.694 272.344 185.694 272.344 185.694C272.344 185.694 272.344 185.694 272.344 185.694C272.344 185.694 272.344 185.694 272.344 185.694C272.344 185.694 272.344 185.694 272.344 185.694C272.344 185.694 272.344 185.694 272.344 185.694C272.344 185.694 272.344 185.694 272.344 185.694C272.344 185.694 272.344 185.694 272.344 185.694C272.344 185.694 272.344 185.694 272.344 185.694C272.344 185.694 272.344 185.694 272.344 185.694C272.344 185.694 272.343 185.694 272.343 185.694C272.343 185.694 272.343 185.694 272.343 185.694C272.343 185.694 272.343 185.694 272.343 185.694C272.343 185.694 272.343 185.694 272.343 185.694C272.343 185.694 272.343 185.694 272.343 185.694C272.343 185.694 272.343 185.694 272.343 185.694C272.343 185.694 272.343 185.694 272.343 185.694C272.343 185.694 272.343 185.694 272.343 185.694C272.343 185.694 272.343 185.694 272.343 185.694C272.343 185.694 272.343 185.694 272.343 185.694C272.343 185.694 272.343 185.694 272.343 185.694C272.343 185.694 272.342 185.694 272.342 185.694C272.342 185.694 272.342 185.694 272.342 185.694C272.342 185.694 272.342 185.694 272.342 185.694C272.342 185.694 272.342 185.694 272.342 185.694C272.342 185.694 272.342 185.694 272.342 185.694C272.342 185.694 272.342 185.694 272.342 185.694C272.342 185.694 272.342 185.694 272.342 185.694C272.342 185.694 272.342 185.694 272.342 185.694C272.342 185.694 272.342 185.694 272.342 185.694C272.342 185.694 272.342 185.694 272.342 185.694C272.342 185.694 272.342 185.694 272.342 185.694C272.341 185.694 272.341 185.694 272.341 185.694C272.341 185.694 272.341 185.694 272.341 185.694C272.341 185.694 272.341 185.694 272.341 185.694C272.341 185.694 272.341 185.694 272.341 185.694C272.341 185.694 272.341 185.694 272.341 185.694C272.341 185.694 272.341 185.694 272.341 185.694C272.341 185.694 272.341 185.694 272.341 185.694C272.341 185.694 272.341 185.694 272.341 185.694C272.341 185.694 272.341 185.694 272.341 185.694C272.341 185.694 272.341 185.694 272.341 185.694C272.341 185.694 272.341 185.694 272.341 185.694C272.34 185.694 272.34 185.694 272.34 185.694C272.34 185.694 272.34 185.694 272.34 185.694C272.34 185.694 272.34 185.694 272.34 185.694C272.34 185.694 272.34 185.694 272.34 185.694C272.34 185.694 272.34 185.694 272.34 185.694C272.34 185.694 272.34 185.694 272.34 185.694C272.34 185.694 272.34 185.694 272.34 185.694C272.34 185.694 272.34 185.694 272.34 185.694C272.34 185.694 272.34 185.694 272.34 185.694C272.34 185.694 272.34 185.694 272.34 185.694C272.34 185.694 272.34 185.694 272.339 185.694C272.339 185.694 272.339 185.694 272.339 185.694C272.339 185.694 272.339 185.694 272.339 185.694C272.339 185.694 272.339 185.694 272.339 185.694C272.339 185.694 272.339 185.694 272.339 185.694C272.339 185.694 272.339 185.694 272.339 185.694C272.339 185.694 272.339 185.694 272.339 185.694C272.339 185.694 272.339 185.694 272.339 185.694C272.339 185.694 272.339 185.694 272.339 185.694C272.339 185.694 272.339 185.694 272.339 185.694C272.339 185.694 272.339 185.694 272.339 185.694C272.339 185.694 272.338 185.694 272.338 185.694C272.338 185.694 272.338 185.694 272.338 185.694C272.338 185.694 272.338 185.694 272.338 185.694C272.338 185.694 272.338 185.694 272.338 185.694C272.338 185.694 272.338 185.694 272.338 185.694C272.338 185.694 272.338 185.694 272.338 185.694C272.338 185.694 272.338 185.694 272.338 185.694C272.338 185.694 272.338 185.694 272.338 185.694C272.338 185.694 272.338 185.694 272.338 185.694C272.338 185.694 272.338 185.694 272.338 185.694C272.338 185.694 272.338 185.694 272.338 185.694C272.337 185.694 272.337 185.694 272.337 185.694C272.337 185.694 272.337 185.694 272.337 185.694C272.337 185.694 272.337 185.694 272.337 185.694C272.337 185.694 272.337 185.694 272.337 185.694C272.337 185.694 272.337 185.694 272.337 185.694C272.337 185.694 272.337 185.694 272.337 185.694C272.337 185.694 272.337 185.694 272.337 185.694C272.337 185.694 272.337 185.694 272.337 185.694C272.337 185.694 272.337 185.694 272.337 185.694C272.337 185.694 272.337 185.694 272.337 185.694C272.337 185.694 272.337 185.694 272.336 185.694C272.336 185.694 272.336 185.694 272.336 185.694C272.336 185.694 272.336 185.694 272.336 185.694C272.336 185.694 272.336 185.694 272.336 185.694C272.336 185.694 272.336 185.694 272.336 185.694C272.336 185.694 272.336 185.694 272.336 185.694C272.336 185.694 272.336 185.694 272.336 185.694C272.336 185.694 272.336 185.694 272.336 185.694C272.336 185.694 272.336 185.694 272.336 185.694C272.336 185.694 272.336 185.694 272.336 185.694C272.336 185.694 272.336 185.694 272.336 185.694C272.336 185.694 272.335 185.694 272.335 185.694C272.335 185.694 272.335 185.694 272.335 185.694C272.335 185.694 272.335 185.694 272.335 185.694C272.335 185.694 272.335 185.694 272.335 185.694C272.335 185.694 272.335 185.694 272.335 185.694C272.335 185.694 272.335 185.694 272.335 185.694C272.335 185.694 272.335 185.694 272.335 185.694C272.335 185.694 272.335 185.694 272.335 185.694C272.335 185.694 272.335 185.694 272.335 185.694C272.335 185.694 272.335 185.694 272.335 185.694C272.335 185.694 272.335 185.694 272.335 185.694C272.334 185.694 272.334 185.694 272.334 185.694C272.334 185.694 272.334 185.694 272.334 185.694C272.334 185.694 272.334 185.694 272.334 185.694C272.334 185.694 272.334 185.694 272.334 185.694C272.334 185.694 272.334 185.694 272.334 185.694C272.334 185.694 272.334 185.694 272.334 185.694C272.334 185.694 272.334 185.694 272.334 185.694C272.334 185.694 272.334 185.694 272.334 185.694C272.334 185.694 272.334 185.694 272.334 185.694C272.334 185.694 272.334 185.694 272.334 185.694C272.334 185.694 272.334 185.694 272.333 185.694C272.333 185.694 272.333 185.694 272.333 185.694C272.333 185.694 272.333 185.694 272.333 185.694C272.333 185.694 272.333 185.694 272.333 185.694C272.333 185.694 272.333 185.694 272.333 185.694C272.333 185.694 272.333 185.694 272.333 185.694C272.333 185.694 272.333 185.694 272.333 185.694C272.333 185.694 272.333 185.694 272.333 185.694C272.333 185.694 272.333 185.694 272.333 185.694C272.333 185.694 272.333 185.694 272.333 185.694C272.333 185.694 272.333 185.694 272.333 185.694C272.333 185.694 272.332 185.694 272.332 185.694C272.332 185.694 272.332 185.694 272.332 185.694C272.332 185.694 272.332 185.694 272.332 185.694C272.332 185.694 272.332 185.694 272.332 185.694C272.332 185.694 272.332 185.694 272.332 185.694C272.332 185.694 272.332 185.694 272.332 185.694C272.332 185.694 272.332 185.694 272.332 185.694C272.332 185.694 272.332 185.694 272.332 185.694C272.332 185.694 272.332 185.694 272.332 185.694C272.332 185.694 272.332 185.694 272.332 185.694C272.332 185.694 272.332 185.694 272.331 185.694C272.331 185.694 272.331 185.694 272.331 185.694C272.331 185.694 272.331 185.694 272.331 185.694C272.331 185.694 272.331 185.694 272.331 185.694C272.331 185.694 272.331 185.694 272.331 185.694C272.331 185.694 272.331 185.694 272.331 185.694C272.331 185.694 272.331 185.694 272.331 185.694C272.331 185.694 272.331 185.694 272.331 185.694C272.331 185.694 272.331 185.694 272.331 185.694C272.331 185.694 272.331 185.694 272.331 185.694C272.331 185.694 272.331 185.694 272.331 185.694C272.331 185.694 272.33 185.694 272.33 185.694C272.33 185.694 272.33 185.694 272.33 185.694C272.33 185.694 272.33 185.694 272.33 185.694C272.33 185.694 272.33 185.694 272.33 185.694C272.33 185.694 272.33 185.694 272.33 185.694C272.33 185.694 272.33 185.694 272.33 185.694C272.33 185.694 272.33 185.694 272.33 185.694C272.33 185.694 272.33 185.694 272.33 185.694C272.33 185.694 272.33 185.694 272.33 185.694C272.33 185.694 272.33 185.694 272.33 185.694C272.33 185.694 272.33 185.694 272.33 185.694C272.329 185.694 272.329 185.694 272.329 185.694C272.329 185.694 272.329 185.694 272.329 185.694C272.329 185.694 272.329 185.694 272.329 185.694C272.329 185.694 272.329 185.694 272.329 185.694C272.329 185.694 272.329 185.694 272.329 185.694C272.329 185.694 272.329 185.694 272.329 185.694C272.329 185.694 272.329 185.694 272.329 185.694C272.329 185.694 272.329 185.694 272.329 185.694C272.329 185.694 272.329 185.694 272.329 185.694C272.329 185.694 272.329 185.694 272.329 185.694C272.329 185.694 272.328 185.694 272.328 185.694C272.328 185.694 272.328 185.694 272.328 185.694C272.328 185.694 272.328 185.694 272.328 185.694C272.328 185.694 272.328 185.694 272.328 185.694C272.328 185.694 272.328 185.694 272.328 185.694C272.328 185.694 272.328 185.694 272.328 185.694C272.328 185.694 272.328 185.694 272.328 185.694C272.328 185.694 272.328 185.694 272.328 185.694C272.328 185.694 272.328 185.694 272.328 185.694C272.328 185.694 272.328 185.694 272.328 185.694C272.328 185.694 272.328 185.694 272.327 185.694C272.327 185.694 272.327 185.694 272.327 185.694C272.327 185.694 272.327 185.694 272.327 185.694C272.327 185.694 272.327 185.694 272.327 185.694C272.327 185.694 272.327 185.694 272.327 185.694C272.327 185.694 272.327 185.694 272.327 185.694C272.327 185.694 272.327 185.694 272.327 185.694C272.327 185.694 272.327 185.694 272.327 185.694C272.327 185.694 272.327 185.694 272.327 185.694C272.327 185.694 272.327 185.694 272.327 185.694C272.327 185.694 272.327 185.694 272.327 185.694C272.327 185.694 272.326 185.694 272.326 185.694C272.326 185.694 272.326 185.694 272.326 185.694C272.326 185.694 272.326 185.694 272.326 185.694C272.326 185.694 272.326 185.694 272.326 185.694C272.326 185.694 272.326 185.694 272.326 185.694C272.326 185.694 272.326 185.694 272.326 185.694C272.326 185.694 272.326 185.694 272.326 185.694C272.326 185.694 272.326 185.694 272.326 185.694C272.326 185.694 272.326 185.694 272.326 185.694C272.326 185.694 272.326 185.694 272.326 185.694C272.326 185.694 272.326 185.694 272.325 185.694C272.325 185.694 272.325 185.694 272.325 185.694C272.325 185.694 272.325 185.694 272.325 185.694C272.325 185.694 272.325 185.694 272.325 185.694C272.325 185.694 272.325 185.694 272.325 185.694C272.325 185.694 272.325 185.694 272.325 185.694C272.325 185.694 272.325 185.694 272.325 185.694C272.325 185.694 272.325 185.694 272.325 185.694C272.325 185.694 272.325 185.694 272.325 185.694C272.325 185.694 272.325 185.694 272.325 185.694C272.325 185.694 272.325 185.694 272.325 185.694C272.324 185.694 272.324 185.694 272.324 185.694C272.324 185.694 272.324 185.694 272.324 185.694C272.324 185.694 272.324 185.694 272.324 185.694C272.324 185.694 272.324 185.694 272.324 185.694C272.324 185.694 272.324 185.694 272.324 185.694C272.324 185.694 272.324 185.694 272.324 185.694C272.324 185.694 272.324 185.694 272.324 185.694C272.324 185.694 272.324 185.694 272.324 185.694C272.324 185.694 272.324 185.694 272.324 185.694C272.324 185.694 272.324 185.694 272.324 185.694C272.324 185.694 272.324 185.694 272.323 185.694C272.323 185.694 272.323 185.694 272.323 185.694C272.323 185.694 272.323 185.694 272.323 185.694C272.323 185.694 272.323 185.694 272.323 185.694C272.323 185.694 272.323 185.694 272.323 185.694C272.323 185.694 272.323 185.694 272.323 185.694C272.323 185.694 272.323 185.694 272.323 185.694C272.323 185.694 272.323 185.694 272.323 185.694C272.323 185.694 272.323 185.694 272.323 185.694C272.323 185.694 272.323 185.694 272.323 185.694C272.323 185.694 272.323 185.694 272.323 185.694C272.322 185.694 272.322 185.694 272.322 185.694C272.322 185.694 272.322 185.694 272.322 185.694C272.322 185.694 272.322 185.694 272.322 185.694C272.322 185.694 272.322 185.694 272.322 185.694C272.322 185.694 272.322 185.694 272.322 185.694C272.322 185.694 272.322 185.694 272.322 185.694C272.322 185.694 272.322 185.694 272.322 185.694C272.322 185.694 272.322 185.694 272.322 185.694C272.322 185.694 272.322 185.694 272.322 185.694C272.322 185.694 272.322 185.694 272.322 185.694C272.322 185.694 272.321 185.694 272.321 185.694C272.321 185.694 272.321 185.694 272.321 185.694C272.321 185.694 272.321 185.694 272.321 185.694C272.321 185.694 272.321 185.694 272.321 185.694C272.321 185.694 272.321 185.694 272.321 185.694C272.321 185.694 272.321 185.694 272.321 185.694C272.321 185.694 272.321 185.694 272.321 185.694C272.321 185.694 272.321 185.694 272.321 185.694C272.321 185.694 272.321 185.694 272.321 185.694C272.321 185.694 272.321 185.694 272.321 185.694C272.321 185.694 272.321 185.694 272.32 185.694C272.32 185.694 272.32 185.694 272.32 185.694C272.32 185.694 272.32 185.694 272.32 185.694C272.32 185.694 272.32 185.694 272.32 185.694C272.32 185.694 272.32 185.694 272.32 185.694C272.32 185.694 272.32 185.694 272.32 185.694C272.32 185.694 272.32 185.694 272.32 185.694C272.32 185.694 272.32 185.694 272.32 185.694C272.32 185.694 272.32 185.694 272.32 185.694C272.32 185.694 272.32 185.694 272.32 185.694C272.32 185.694 272.32 185.694 272.32 185.694C272.319 185.694 272.319 185.694 272.319 185.694C272.319 185.694 272.319 185.694 272.319 185.694C272.319 185.694 272.319 185.694 272.319 185.694C272.319 185.694 272.319 185.694 272.319 185.694C272.319 185.694 272.319 185.694 272.319 185.694C272.319 185.694 272.319 185.694 272.319 185.694C272.319 185.694 272.319 185.694 272.319 185.694C272.319 185.694 272.319 185.694 272.319 185.694C272.319 185.694 272.319 185.694 272.319 185.694C272.319 185.694 272.319 185.694 272.319 185.694C272.319 185.694 272.319 185.694 272.318 185.694C272.318 185.694 272.318 185.694 272.318 185.694C272.318 185.694 272.318 185.694 272.318 185.694C272.318 185.694 272.318 185.694 272.318 185.694C272.318 185.694 272.318 185.694 272.318 185.694C272.318 185.694 272.318 185.694 272.318 185.694C272.318 185.694 272.318 185.694 272.318 185.694C272.318 185.694 272.318 185.694 272.318 185.694C272.318 185.694 272.318 185.694 272.318 185.694C272.318 185.694 272.318 185.694 272.318 185.694C272.318 185.694 272.318 185.694 272.318 185.694C272.317 185.694 272.317 185.694 272.317 185.694C272.317 185.694 272.317 185.694 272.317 185.694C272.317 185.694 272.317 185.694 272.317 185.694C272.317 185.694 272.317 185.694 272.317 185.694C272.317 185.694 272.317 185.694 272.317 185.694C272.317 185.694 272.317 185.694 272.317 185.694C272.317 185.694 272.317 185.694 272.317 185.694C272.317 185.694 272.317 185.694 272.317 185.694C272.317 185.694 272.317 185.694 272.317 185.694C272.317 185.694 272.317 185.694 272.317 185.694C272.317 185.694 272.316 185.694 272.316 185.694C272.316 185.694 272.316 185.694 272.316 185.694C272.316 185.694 272.316 185.694 272.316 185.694C272.316 185.694 272.316 185.694 272.316 185.694C272.316 185.694 272.316 185.694 272.316 185.694C272.316 185.694 272.316 185.694 272.316 185.694C272.316 185.694 272.316 185.694 272.316 185.694C272.316 185.694 272.316 185.694 272.316 185.694C272.316 185.694 272.316 185.694 272.316 185.694C272.316 185.694 272.316 185.694 272.316 185.694C272.316 185.694 272.316 185.694 272.315 185.694C272.315 185.694 272.315 185.694 272.315 185.694C272.315 185.694 272.315 185.694 272.315 185.694C272.315 185.694 272.315 185.694 272.315 185.694C272.315 185.694 272.315 185.694 272.315 185.694C272.315 185.694 272.315 185.694 272.315 185.694C272.315 185.694 272.315 185.694 272.315 185.694C272.315 185.694 272.315 185.694 272.315 185.694C272.315 185.694 272.315 185.694 272.315 185.694C272.315 185.694 272.315 185.694 272.315 185.694C272.315 185.694 272.315 185.694 272.315 185.694C272.314 185.694 272.314 185.694 272.314 185.694V197.694ZM272.361 197.694C276.976 197.694 280.714 193.956 280.714 189.341H268.714C268.714 187.328 270.349 185.694 272.361 185.694V197.694ZM280.714 189.331C280.712 188.152 280.464 186.976 279.966 185.885L269.048 190.864C268.819 190.361 268.715 189.843 268.714 189.351L280.714 189.331ZM130.239 188.325L159.274 61.2811L147.575 58.6076L118.541 185.652L130.239 188.325ZM153.425 65.9444H240.332V53.9444H153.425V65.9444ZM234.483 61.281L263.515 188.325L275.213 185.652L246.181 58.6077L234.483 61.281ZM269.364 180.988H124.39V192.988H269.364V180.988Z" fill="#373D2F" mask="url(#path-5-inside-2_371_126)"/>
<path d="M171.499 55.2955C170.212 55.1403 169.031 56.0366 168.864 57.3283L159.388 130.536C159.221 131.823 160.129 133.004 161.418 133.171C161.522 133.183 161.623 133.19 161.724 133.19C162.889 133.19 163.898 132.327 164.053 131.139L173.53 57.9305C173.697 56.6436 172.789 55.4626 171.499 55.2955Z" fill="#373D2F"/>
<path d="M159.43 148.52C158.143 148.372 156.962 149.261 156.795 150.553L151.805 189.113C151.638 190.4 152.546 191.581 153.835 191.748C153.939 191.76 154.04 191.767 154.141 191.767C155.306 191.767 156.317 190.903 156.47 189.715L161.46 151.155C161.628 149.868 160.719 148.687 159.43 148.52Z" fill="#373D2F"/>
<path d="M241.955 189.11L239.916 173.359C239.749 172.07 238.56 171.188 237.281 171.329C235.991 171.496 235.083 172.677 235.25 173.966L237.29 189.717C237.443 190.903 238.455 191.767 239.619 191.767C239.718 191.767 239.822 191.76 239.925 191.748C241.214 191.581 242.122 190.4 241.955 189.11Z" fill="#373D2F"/>
<path d="M237.429 154.164L224.894 57.3283C224.727 56.0367 223.541 55.1427 222.259 55.2956C220.97 55.4626 220.062 56.6437 220.229 57.9306L232.764 154.766C232.917 155.954 233.928 156.818 235.093 156.818C235.194 156.818 235.295 156.811 235.399 156.799C236.688 156.632 237.596 155.451 237.429 154.164Z" fill="#373D2F"/>
<mask id="path-11-inside-3_371_126" fill="white">
<path d="M201.583 186.989H192.172C190.873 186.989 189.819 188.04 189.819 189.341V337.559C189.819 338.86 190.873 339.912 192.172 339.912H201.583C202.881 339.912 203.935 338.86 203.935 337.559V189.341C203.935 188.04 202.882 186.989 201.583 186.989ZM199.23 335.207H194.525V191.694H199.23V335.207Z"/>
</mask>
<path d="M201.583 186.989H192.172C190.873 186.989 189.819 188.04 189.819 189.341V337.559C189.819 338.86 190.873 339.912 192.172 339.912H201.583C202.881 339.912 203.935 338.86 203.935 337.559V189.341C203.935 188.04 202.882 186.989 201.583 186.989ZM199.23 335.207H194.525V191.694H199.23V335.207Z" fill="#373D2F"/>
<path d="M199.23 335.207V340.207H204.23V335.207H199.23ZM194.525 335.207H189.525V340.207H194.525V335.207ZM194.525 191.694V186.694H189.525V191.694H194.525ZM199.23 191.694H204.23V186.694H199.23V191.694ZM201.583 181.989H192.172V191.989H201.583V181.989ZM192.172 181.989C188.115 181.989 184.819 185.275 184.819 189.341H194.819C194.819 190.805 193.631 191.989 192.172 191.989V181.989ZM184.819 189.341V337.559H194.819V189.341H184.819ZM184.819 337.559C184.819 341.625 188.115 344.912 192.172 344.912V334.912C193.631 334.912 194.819 336.096 194.819 337.559H184.819ZM192.172 344.912H201.583V334.912H192.172V344.912ZM201.583 344.912C205.64 344.912 208.935 341.625 208.935 337.559H198.935C198.935 336.096 200.123 334.912 201.583 334.912V344.912ZM208.935 337.559V189.341H198.935V337.559H208.935ZM208.935 189.341C208.935 185.276 205.641 181.989 201.583 181.989V191.989C200.123 191.989 198.935 190.804 198.935 189.341H208.935ZM199.23 330.207H194.525V340.207H199.23V330.207ZM199.525 335.207V191.694H189.525V335.207H199.525ZM194.525 196.694H199.23V186.694H194.525V196.694ZM194.23 191.694V335.207H204.23V191.694H194.23Z" fill="#373D2F" mask="url(#path-11-inside-3_371_126)"/>
<path d="M138.005 257.847C137.732 255.544 136.626 253.756 134.687 252.484C132.747 251.211 130.369 250.575 127.55 250.575C125.49 250.575 123.687 250.908 122.141 251.575C120.611 252.241 119.414 253.158 118.55 254.325C117.702 255.491 117.278 256.817 117.278 258.302C117.278 259.544 117.573 260.612 118.164 261.506C118.77 262.385 119.543 263.12 120.482 263.711C121.422 264.287 122.406 264.764 123.437 265.143C124.467 265.506 125.414 265.802 126.278 266.029L131.005 267.302C132.217 267.62 133.566 268.059 135.05 268.62C136.55 269.181 137.982 269.946 139.346 270.915C140.725 271.87 141.861 273.097 142.755 274.597C143.649 276.097 144.096 277.938 144.096 280.12C144.096 282.635 143.437 284.908 142.119 286.938C140.816 288.968 138.906 290.582 136.391 291.779C133.891 292.976 130.853 293.575 127.278 293.575C123.944 293.575 121.058 293.037 118.619 291.961C116.194 290.885 114.285 289.385 112.891 287.461C111.513 285.537 110.732 283.302 110.55 280.756H116.369C116.52 282.514 117.111 283.968 118.141 285.12C119.187 286.256 120.505 287.105 122.096 287.665C123.702 288.211 125.429 288.484 127.278 288.484C129.429 288.484 131.361 288.135 133.073 287.438C134.785 286.726 136.141 285.741 137.141 284.484C138.141 283.211 138.641 281.726 138.641 280.029C138.641 278.484 138.21 277.226 137.346 276.256C136.482 275.287 135.346 274.499 133.937 273.893C132.528 273.287 131.005 272.756 129.369 272.302L123.641 270.665C120.005 269.62 117.126 268.128 115.005 266.188C112.884 264.249 111.823 261.711 111.823 258.575C111.823 255.968 112.528 253.696 113.937 251.756C115.361 249.802 117.27 248.287 119.664 247.211C122.073 246.12 124.763 245.575 127.732 245.575C130.732 245.575 133.399 246.112 135.732 247.188C138.066 248.249 139.914 249.703 141.278 251.552C142.656 253.4 143.384 255.499 143.46 257.847H138.005ZM153.363 292.756V246.211H158.999V266.938H183.817V246.211H189.454V292.756H183.817V271.938H158.999V292.756H153.363Z" fill="#373D2F"/>
<path d="M138.005 257.847L137.012 257.965L137.116 258.847H138.005V257.847ZM134.687 252.484L134.138 253.32L134.138 253.32L134.687 252.484ZM122.141 251.575L121.745 250.656L121.742 250.658L122.141 251.575ZM118.55 254.325L117.747 253.73L117.742 253.736L118.55 254.325ZM118.164 261.506L117.33 262.058L117.335 262.066L117.341 262.074L118.164 261.506ZM120.482 263.711L119.95 264.557L119.96 264.563L120.482 263.711ZM123.437 265.143L123.092 266.081L123.104 266.086L123.437 265.143ZM126.278 266.029L126.538 265.063L126.532 265.062L126.278 266.029ZM131.005 267.302L130.745 268.267L130.751 268.269L131.005 267.302ZM135.05 268.62L134.697 269.556L134.7 269.557L135.05 268.62ZM139.346 270.915L138.766 271.73L138.777 271.738L139.346 270.915ZM142.755 274.597L143.614 274.085L143.614 274.085L142.755 274.597ZM142.119 286.938L141.28 286.394L141.277 286.398L142.119 286.938ZM136.391 291.779L135.962 290.876L135.959 290.877L136.391 291.779ZM118.619 291.961L118.213 292.875L118.215 292.876L118.619 291.961ZM112.891 287.461L112.078 288.043L112.081 288.048L112.891 287.461ZM110.55 280.756V279.756H109.476L109.553 280.828L110.55 280.756ZM116.369 280.756L117.365 280.67L117.286 279.756H116.369V280.756ZM118.141 285.12L117.396 285.787L117.405 285.797L118.141 285.12ZM122.096 287.665L121.764 288.609L121.774 288.612L122.096 287.665ZM133.073 287.438L133.45 288.364L133.457 288.361L133.073 287.438ZM137.141 284.484L137.924 285.106L137.928 285.101L137.141 284.484ZM137.346 276.256L138.093 275.591L138.093 275.591L137.346 276.256ZM133.937 273.893L133.542 274.811L133.542 274.811L133.937 273.893ZM129.369 272.302L129.094 273.263L129.101 273.265L129.369 272.302ZM123.641 270.665L123.365 271.627L123.367 271.627L123.641 270.665ZM115.005 266.188L114.33 266.926L114.33 266.926L115.005 266.188ZM113.937 251.756L113.129 251.167L113.128 251.169L113.937 251.756ZM119.664 247.211L120.074 248.123L120.077 248.122L119.664 247.211ZM135.732 247.188L135.314 248.096L135.318 248.099L135.732 247.188ZM141.278 251.552L140.473 252.145L140.476 252.15L141.278 251.552ZM143.46 257.847V258.847H144.492L144.459 257.815L143.46 257.847ZM138.998 257.73C138.691 255.133 137.422 253.082 135.235 251.648L134.138 253.32C135.831 254.43 136.774 255.955 137.012 257.965L138.998 257.73ZM135.235 251.648C133.101 250.247 130.521 249.575 127.55 249.575V251.575C130.216 251.575 132.394 252.175 134.138 253.32L135.235 251.648ZM127.55 249.575C125.383 249.575 123.44 249.925 121.745 250.656L122.537 252.493C123.933 251.891 125.596 251.575 127.55 251.575V249.575ZM121.742 250.658C120.075 251.384 118.729 252.402 117.747 253.73L119.354 254.92C120.099 253.914 121.147 253.099 122.541 252.491L121.742 250.658ZM117.742 253.736C116.765 255.079 116.278 256.612 116.278 258.302H118.278C118.278 257.022 118.639 255.903 119.359 254.913L117.742 253.736ZM116.278 258.302C116.278 259.708 116.614 260.975 117.33 262.058L118.998 260.955C118.532 260.249 118.278 259.38 118.278 258.302H116.278ZM117.341 262.074C118.027 263.069 118.9 263.897 119.95 264.557L121.015 262.864C120.185 262.343 119.513 261.701 118.987 260.939L117.341 262.074ZM119.96 264.563C120.955 265.174 121.999 265.68 123.092 266.081L123.782 264.204C122.814 263.848 121.888 263.4 121.005 262.858L119.96 264.563ZM123.104 266.086C124.155 266.457 125.128 266.761 126.023 266.996L126.532 265.062C125.7 264.843 124.78 264.556 123.77 264.2L123.104 266.086ZM126.018 266.995L130.745 268.267L131.265 266.336L126.538 265.063L126.018 266.995ZM130.751 268.269C131.922 268.576 133.237 269.004 134.697 269.556L135.404 267.684C133.894 267.115 132.512 266.664 131.259 266.335L130.751 268.269ZM134.7 269.557C136.115 270.086 137.47 270.809 138.766 271.73L139.925 270.1C138.494 269.083 136.986 268.276 135.401 267.683L134.7 269.557ZM138.777 271.738C140.033 272.607 141.072 273.727 141.896 275.109L143.614 274.085C142.65 272.468 141.416 271.133 139.915 270.093L138.777 271.738ZM141.896 275.109C142.677 276.42 143.096 278.074 143.096 280.12H145.096C145.096 277.802 144.621 275.774 143.614 274.085L141.896 275.109ZM143.096 280.12C143.096 282.45 142.489 284.532 141.28 286.394L142.957 287.483C144.385 285.284 145.096 282.82 145.096 280.12H143.096ZM141.277 286.398C140.09 288.248 138.335 289.747 135.962 290.876L136.821 292.682C139.478 291.418 141.542 289.689 142.96 287.478L141.277 286.398ZM135.959 290.877C133.628 291.994 130.746 292.575 127.278 292.575V294.575C130.961 294.575 134.155 293.958 136.823 292.681L135.959 290.877ZM127.278 292.575C124.05 292.575 121.307 292.053 119.022 291.046L118.215 292.876C120.809 294.02 123.839 294.575 127.278 294.575V292.575ZM119.024 291.047C116.742 290.034 114.98 288.64 113.701 286.874L112.081 288.048C113.591 290.131 115.647 291.736 118.213 292.875L119.024 291.047ZM113.704 286.878C112.441 285.116 111.718 283.061 111.548 280.685L109.553 280.828C109.747 283.542 110.584 285.957 112.078 288.043L113.704 286.878ZM110.55 281.756H116.369V279.756H110.55V281.756ZM115.372 280.842C115.54 282.784 116.201 284.452 117.396 285.787L118.887 284.453C118.021 283.485 117.501 282.244 117.365 280.67L115.372 280.842ZM117.405 285.797C118.572 287.065 120.033 287.999 121.764 288.609L122.428 286.722C120.977 286.211 119.802 285.448 118.877 284.443L117.405 285.797ZM121.774 288.612C123.493 289.196 125.33 289.484 127.278 289.484V287.484C125.529 287.484 123.911 287.226 122.417 286.719L121.774 288.612ZM127.278 289.484C129.538 289.484 131.6 289.117 133.45 288.364L132.696 286.512C131.122 287.153 129.321 287.484 127.278 287.484V289.484ZM133.457 288.361C135.301 287.594 136.804 286.515 137.924 285.106L136.359 283.861C135.479 284.967 134.269 285.858 132.689 286.515L133.457 288.361ZM137.928 285.101C139.073 283.644 139.641 281.938 139.641 280.029H137.641C137.641 281.514 137.21 282.778 136.355 283.866L137.928 285.101ZM139.641 280.029C139.641 278.288 139.149 276.778 138.093 275.591L136.599 276.921C137.27 277.674 137.641 278.68 137.641 280.029H139.641ZM138.093 275.591C137.116 274.494 135.851 273.628 134.332 272.974L133.542 274.811C134.841 275.37 135.849 276.079 136.599 276.921L138.093 275.591ZM134.332 272.974C132.877 272.348 131.312 271.804 129.636 271.338L129.101 273.265C130.698 273.709 132.178 274.225 133.542 274.811L134.332 272.974ZM129.643 271.34L123.916 269.704L123.367 271.627L129.094 273.263L129.643 271.34ZM123.918 269.704C120.385 268.689 117.657 267.258 115.68 265.45L114.33 266.926C116.595 268.997 119.625 270.551 123.365 271.627L123.918 269.704ZM115.68 265.45C113.786 263.719 112.823 261.459 112.823 258.575H110.823C110.823 261.963 111.982 264.779 114.33 266.926L115.68 265.45ZM112.823 258.575C112.823 256.16 113.472 254.098 114.746 252.344L113.128 251.169C111.584 253.294 110.823 255.777 110.823 258.575H112.823ZM114.745 252.345C116.058 250.543 117.825 249.134 120.074 248.123L119.254 246.299C116.716 247.44 114.664 249.061 113.129 251.167L114.745 252.345ZM120.077 248.122C122.341 247.096 124.887 246.575 127.732 246.575V244.575C124.638 244.575 121.805 245.144 119.252 246.3L120.077 248.122ZM127.732 246.575C130.612 246.575 133.132 247.09 135.314 248.096L136.151 246.28C133.666 245.134 130.853 244.575 127.732 244.575V246.575ZM135.318 248.099C137.515 249.097 139.222 250.449 140.473 252.145L142.082 250.958C140.606 248.957 138.616 247.401 136.146 246.278L135.318 248.099ZM140.476 252.15C141.73 253.831 142.391 255.731 142.46 257.879L144.459 257.815C144.377 255.266 143.583 252.97 142.079 250.954L140.476 252.15ZM143.46 256.847H138.005V258.847H143.46V256.847ZM153.363 292.756H152.363V293.756H153.363V292.756ZM153.363 246.211V245.211H152.363V246.211H153.363ZM158.999 246.211H159.999V245.211H158.999V246.211ZM158.999 266.938H157.999V267.938H158.999V266.938ZM183.817 266.938V267.938H184.817V266.938H183.817ZM183.817 246.211V245.211H182.817V246.211H183.817ZM189.454 246.211H190.454V245.211H189.454V246.211ZM189.454 292.756V293.756H190.454V292.756H189.454ZM183.817 292.756H182.817V293.756H183.817V292.756ZM183.817 271.938H184.817V270.938H183.817V271.938ZM158.999 271.938V270.938H157.999V271.938H158.999ZM158.999 292.756V293.756H159.999V292.756H158.999ZM154.363 292.756V246.211H152.363V292.756H154.363ZM153.363 247.211H158.999V245.211H153.363V247.211ZM157.999 246.211V266.938H159.999V246.211H157.999ZM158.999 267.938H183.817V265.938H158.999V267.938ZM184.817 266.938V246.211H182.817V266.938H184.817ZM183.817 247.211H189.454V245.211H183.817V247.211ZM188.454 246.211V292.756H190.454V246.211H188.454ZM189.454 291.756H183.817V293.756H189.454V291.756ZM184.817 292.756V271.938H182.817V292.756H184.817ZM183.817 270.938H158.999V272.938H183.817V270.938ZM157.999 271.938V292.756H159.999V271.938H157.999ZM158.999 291.756H153.363V293.756H158.999V291.756Z" fill="black"/>
<path d="M251.609 269.484C251.609 274.393 250.723 278.635 248.95 282.211C247.177 285.787 244.746 288.544 241.655 290.484C238.564 292.423 235.034 293.393 231.064 293.393C227.094 293.393 223.564 292.423 220.473 290.484C217.382 288.544 214.95 285.787 213.177 282.211C211.405 278.635 210.518 274.393 210.518 269.484C210.518 264.575 211.405 260.332 213.177 256.756C214.95 253.181 217.382 250.423 220.473 248.484C223.564 246.544 227.094 245.575 231.064 245.575C235.034 245.575 238.564 246.544 241.655 248.484C244.746 250.423 247.177 253.181 248.95 256.756C250.723 260.332 251.609 264.575 251.609 269.484ZM246.155 269.484C246.155 265.453 245.481 262.052 244.132 259.279C242.799 256.506 240.988 254.408 238.7 252.984C236.427 251.559 233.882 250.847 231.064 250.847C228.246 250.847 225.693 251.559 223.405 252.984C221.132 254.408 219.321 256.506 217.973 259.279C216.64 262.052 215.973 265.453 215.973 269.484C215.973 273.514 216.64 276.915 217.973 279.688C219.321 282.461 221.132 284.559 223.405 285.984C225.693 287.408 228.246 288.12 231.064 288.12C233.882 288.12 236.427 287.408 238.7 285.984C240.988 284.559 242.799 282.461 244.132 279.688C245.481 276.915 246.155 273.514 246.155 269.484ZM261.087 292.756V246.211H276.814C280.465 246.211 283.45 246.87 285.768 248.188C288.102 249.491 289.829 251.256 290.95 253.484C292.071 255.711 292.632 258.196 292.632 260.938C292.632 263.681 292.071 266.173 290.95 268.415C289.844 270.658 288.132 272.446 285.814 273.779C283.496 275.097 280.526 275.756 276.905 275.756H265.632V270.756H276.723C279.223 270.756 281.23 270.325 282.746 269.461C284.261 268.597 285.359 267.431 286.041 265.961C286.738 264.476 287.087 262.802 287.087 260.938C287.087 259.075 286.738 257.408 286.041 255.938C285.359 254.468 284.253 253.317 282.723 252.484C281.193 251.635 279.162 251.211 276.632 251.211H266.723V292.756H261.087Z" fill="#373D2F"/>
<path d="M248.95 282.211L248.054 281.767L248.054 281.767L248.95 282.211ZM241.655 290.484L242.186 291.331L242.186 291.331L241.655 290.484ZM220.473 290.484L219.941 291.331L219.941 291.331L220.473 290.484ZM213.177 282.211L214.073 281.767L214.073 281.767L213.177 282.211ZM213.177 256.756L212.282 256.312L213.177 256.756ZM241.655 248.484L242.186 247.637L242.186 247.637L241.655 248.484ZM248.95 256.756L248.054 257.201L248.054 257.201L248.95 256.756ZM244.132 259.279L243.231 259.712L243.233 259.716L244.132 259.279ZM238.7 252.984L238.169 253.831L238.172 253.833L238.7 252.984ZM223.405 252.984L222.876 252.135L222.874 252.136L223.405 252.984ZM217.973 259.279L217.074 258.842L217.072 258.846L217.973 259.279ZM217.973 279.688L217.072 280.122L217.074 280.126L217.973 279.688ZM223.405 285.984L222.874 286.831L222.876 286.833L223.405 285.984ZM238.7 285.984L238.172 285.135L238.169 285.136L238.7 285.984ZM244.132 279.688L243.233 279.251L243.231 279.255L244.132 279.688ZM250.609 269.484C250.609 274.273 249.745 278.357 248.054 281.767L249.846 282.655C251.701 278.913 252.609 274.512 252.609 269.484H250.609ZM248.054 281.767C246.356 285.193 244.043 287.804 241.123 289.637L242.186 291.331C245.448 289.284 247.999 286.38 249.846 282.655L248.054 281.767ZM241.123 289.637C238.206 291.467 234.863 292.393 231.064 292.393V294.393C235.204 294.393 238.922 293.379 242.186 291.331L241.123 289.637ZM231.064 292.393C227.265 292.393 223.922 291.467 221.004 289.637L219.941 291.331C223.206 293.379 226.923 294.393 231.064 294.393V292.393ZM221.004 289.637C218.084 287.804 215.772 285.193 214.073 281.767L212.282 282.655C214.128 286.38 216.68 289.284 219.941 291.331L221.004 289.637ZM214.073 281.767C212.383 278.357 211.518 274.273 211.518 269.484H209.518C209.518 274.512 210.426 278.913 212.282 282.655L214.073 281.767ZM211.518 269.484C211.518 264.694 212.383 260.61 214.073 257.201L212.282 256.312C210.426 260.054 209.518 264.455 209.518 269.484H211.518ZM214.073 257.201C215.772 253.774 218.084 251.163 221.004 249.331L219.941 247.637C216.68 249.683 214.128 252.587 212.282 256.312L214.073 257.201ZM221.004 249.331C223.922 247.5 227.265 246.575 231.064 246.575V244.575C226.923 244.575 223.206 245.588 219.941 247.637L221.004 249.331ZM231.064 246.575C234.863 246.575 238.206 247.5 241.123 249.331L242.186 247.637C238.922 245.588 235.204 244.575 231.064 244.575V246.575ZM241.123 249.331C244.043 251.163 246.356 253.774 248.054 257.201L249.846 256.312C247.999 252.587 245.448 249.683 242.186 247.637L241.123 249.331ZM248.054 257.201C249.745 260.61 250.609 264.694 250.609 269.484H252.609C252.609 264.455 251.701 260.054 249.846 256.312L248.054 257.201ZM247.155 269.484C247.155 265.347 246.463 261.786 245.031 258.842L243.233 259.716C244.498 262.318 245.155 265.56 245.155 269.484H247.155ZM245.033 258.846C243.63 255.927 241.7 253.673 239.229 252.135L238.172 253.833C240.277 255.143 241.968 257.086 243.231 259.712L245.033 258.846ZM239.231 252.136C236.791 250.607 234.06 249.847 231.064 249.847V251.847C233.704 251.847 236.064 252.512 238.169 253.831L239.231 252.136ZM231.064 249.847C228.068 249.847 225.33 250.607 222.876 252.135L223.933 253.833C226.055 252.512 228.424 251.847 231.064 251.847V249.847ZM222.874 252.136C220.42 253.674 218.492 255.926 217.074 258.842L218.872 259.716C220.151 257.086 221.844 255.142 223.936 253.831L222.874 252.136ZM217.072 258.846C215.656 261.789 214.973 265.348 214.973 269.484H216.973C216.973 265.559 217.623 262.315 218.874 259.712L217.072 258.846ZM214.973 269.484C214.973 273.619 215.656 277.178 217.072 280.122L218.874 279.255C217.623 276.652 216.973 273.408 216.973 269.484H214.973ZM217.074 280.126C218.492 283.041 220.42 285.293 222.874 286.831L223.936 285.136C221.844 283.826 220.151 281.881 218.872 279.251L217.074 280.126ZM222.876 286.833C225.33 288.36 228.068 289.12 231.064 289.12V287.12C228.424 287.12 226.055 286.456 223.933 285.135L222.876 286.833ZM231.064 289.12C234.06 289.12 236.791 288.36 239.231 286.831L238.169 285.136C236.064 286.456 233.704 287.12 231.064 287.12V289.12ZM239.229 286.833C241.7 285.294 243.63 283.041 245.033 280.122L243.231 279.255C241.968 281.881 240.277 283.824 238.172 285.135L239.229 286.833ZM245.031 280.126C246.463 277.181 247.155 273.621 247.155 269.484H245.155C245.155 273.407 244.498 276.65 243.233 279.251L245.031 280.126ZM261.087 292.756H260.087V293.756H261.087V292.756ZM261.087 246.211V245.211H260.087V246.211H261.087ZM285.768 248.188L285.274 249.057L285.281 249.061L285.768 248.188ZM290.95 253.484L290.057 253.933L290.057 253.933L290.95 253.484ZM290.95 268.415L290.056 267.968L290.053 267.973L290.95 268.415ZM285.814 273.779L286.308 274.648L286.312 274.646L285.814 273.779ZM265.632 275.756H264.632V276.756H265.632V275.756ZM265.632 270.756V269.756H264.632V270.756H265.632ZM282.746 269.461L282.25 268.592L282.25 268.592L282.746 269.461ZM286.041 265.961L285.136 265.536L285.134 265.54L286.041 265.961ZM286.041 255.938L285.134 256.359L285.138 256.367L286.041 255.938ZM282.723 252.484L282.238 253.358L282.245 253.362L282.723 252.484ZM266.723 251.211V250.211H265.723V251.211H266.723ZM266.723 292.756V293.756H267.723V292.756H266.723ZM262.087 292.756V246.211H260.087V292.756H262.087ZM261.087 247.211H276.814V245.211H261.087V247.211ZM276.814 247.211C280.353 247.211 283.152 247.851 285.274 249.057L286.263 247.319C283.748 245.889 280.577 245.211 276.814 245.211V247.211ZM285.281 249.061C287.453 250.274 289.032 251.898 290.057 253.933L291.843 253.034C290.626 250.615 288.751 248.708 286.256 247.315L285.281 249.061ZM290.057 253.933C291.101 256.008 291.632 258.336 291.632 260.938H293.632C293.632 258.055 293.042 255.414 291.843 253.034L290.057 253.933ZM291.632 260.938C291.632 263.54 291.101 265.877 290.056 267.968L291.845 268.863C293.042 266.469 293.632 263.821 293.632 260.938H291.632ZM290.053 267.973C289.041 270.025 287.474 271.671 285.315 272.912L286.312 274.646C288.79 273.221 290.647 271.291 291.847 268.858L290.053 267.973ZM285.32 272.91C283.196 274.117 280.412 274.756 276.905 274.756V276.756C280.64 276.756 283.795 276.077 286.308 274.648L285.32 272.91ZM276.905 274.756H265.632V276.756H276.905V274.756ZM266.632 275.756V270.756H264.632V275.756H266.632ZM265.632 271.756H276.723V269.756H265.632V271.756ZM276.723 271.756C279.326 271.756 281.523 271.309 283.241 270.33L282.25 268.592C280.938 269.34 279.12 269.756 276.723 269.756V271.756ZM283.241 270.33C284.922 269.371 286.172 268.055 286.948 266.382L285.134 265.54C284.546 266.807 283.6 267.823 282.25 268.592L283.241 270.33ZM286.946 266.386C287.714 264.751 288.087 262.929 288.087 260.938H286.087C286.087 262.675 285.762 264.201 285.136 265.536L286.946 266.386ZM288.087 260.938C288.087 258.948 287.714 257.132 286.945 255.51L285.138 256.367C285.762 257.684 286.087 259.201 286.087 260.938H288.087ZM286.948 255.517C286.169 253.838 284.905 252.533 283.201 251.605L282.245 253.362C283.602 254.101 284.549 255.099 285.134 256.359L286.948 255.517ZM283.208 251.609C281.478 250.65 279.261 250.211 276.632 250.211V252.211C279.063 252.211 280.908 252.621 282.238 253.358L283.208 251.609ZM276.632 250.211H266.723V252.211H276.632V250.211ZM265.723 251.211V292.756H267.723V251.211H265.723ZM266.723 291.756H261.087V293.756H266.723V291.756Z" fill="black"/>
</g>
<defs>
<clipPath id="clip0_371_126">
<rect width="301.142" height="301.142" fill="white" transform="translate(46.3291 55.239)"/>
</clipPath>
</defs>
</svg>
