<svg width="22" height="26" viewBox="0 0 22 26" fill="none" xmlns="http://www.w3.org/2000/svg">
<path fill-rule="evenodd" clip-rule="evenodd" d="M9.24132 11.3043L12.0922 11.3043C13.776 10.6727 15.0668 8.95192 15.0668 6.78261C15.0668 4.03025 12.989 2 10.6668 2C8.34454 2 6.26677 4.03025 6.26677 6.78261C6.26677 8.95192 7.55749 10.6727 9.24132 11.3043ZM6.09761 11.5319C4.96513 10.3084 4.26677 8.63192 4.26677 6.78261C4.26677 3.03668 7.13214 0 10.6668 0C14.2014 0 17.0668 3.03668 17.0668 6.78261C17.0668 8.63194 16.3684 10.3084 15.2359 11.5319C18.7357 12.3857 21.3333 15.5417 21.3333 19.3043V23C21.3333 24.6568 19.9902 26 18.3333 26H3C1.34315 26 -6.83358e-08 24.6568 0 23L1.52431e-07 19.3043C3.07627e-07 15.5416 2.59774 12.3856 6.09761 11.5319ZM8.90284 13.3043H8C4.68629 13.3043 2 15.9906 2 19.3043L2 23C2 23.5523 2.44772 24 3 24H18.3333C18.8856 24 19.3333 23.5523 19.3333 23V19.3043C19.3333 15.9906 16.647 13.3043 13.3333 13.3043H12.4307C11.8704 13.4742 11.2786 13.5652 10.6668 13.5652C10.0549 13.5652 9.46317 13.4742 8.90284 13.3043Z" fill="#373D2F"/>
</svg>
