<svg width="73" height="61" viewBox="0 0 443 431" fill="none" xmlns="http://www.w3.org/2000/svg">
<path d="M438.5 215.5C438.5 331.916 341.463 426.5 221.5 426.5C101.537 426.5 4.5 331.916 4.5 215.5C4.5 99.0836 101.537 4.5 221.5 4.5C341.463 4.5 438.5 99.0836 438.5 215.5Z" stroke="#373D2F" stroke-width="9"/>
<path d="M405.5 216C405.5 321.918 322.744 407.5 221 407.5C119.256 407.5 36.5 321.918 36.5 216C36.5 110.082 119.256 24.5 221 24.5C322.744 24.5 405.5 110.082 405.5 216Z" stroke="#373D2F" stroke-width="9"/>
<mask id="path-3-inside-1_369_124" fill="white">
<path d="M271.184 376.234H170.755C163.501 376.234 157.6 382.194 157.6 389.519V397.359C157.6 398.82 158.783 400 160.24 400H281.709C283.167 400 284.35 398.82 284.35 397.359V389.519C284.35 382.194 278.446 376.234 271.184 376.234ZM279.068 394.719H162.881V389.519C162.881 385.104 166.414 381.516 170.755 381.516H271.183C275.53 381.516 279.068 385.104 279.068 389.519V394.719Z"/>
</mask>
<path d="M271.184 376.234H170.755C163.501 376.234 157.6 382.194 157.6 389.519V397.359C157.6 398.82 158.783 400 160.24 400H281.709C283.167 400 284.35 398.82 284.35 397.359V389.519C284.35 382.194 278.446 376.234 271.184 376.234ZM279.068 394.719H162.881V389.519C162.881 385.104 166.414 381.516 170.755 381.516H271.183C275.53 381.516 279.068 385.104 279.068 389.519V394.719Z" fill="#373D2F"/>
<path d="M279.068 394.719V400.719H285.068V394.719H279.068ZM162.881 394.719H156.881V400.719H162.881V394.719ZM271.184 370.234H170.755V382.234H271.184V370.234ZM170.755 370.234C160.132 370.234 151.6 378.936 151.6 389.519H163.6C163.6 385.452 166.87 382.234 170.755 382.234V370.234ZM151.6 389.519V397.359H163.6V389.519H151.6ZM151.6 397.359C151.6 402.137 155.473 406 160.24 406V394C162.092 394 163.6 395.502 163.6 397.359H151.6ZM160.24 406H281.709V394H160.24V406ZM281.709 406C286.476 406 290.35 402.137 290.35 397.359H278.35C278.35 395.502 279.857 394 281.709 394V406ZM290.35 397.359V389.519H278.35V397.359H290.35ZM290.35 389.519C290.35 378.933 281.811 370.234 271.184 370.234V382.234C275.08 382.234 278.35 385.456 278.35 389.519H290.35ZM279.068 388.719H162.881V400.719H279.068V388.719ZM168.881 394.719V389.519H156.881V394.719H168.881ZM168.881 389.519C168.881 388.327 169.818 387.516 170.755 387.516V375.516C163.01 375.516 156.881 381.882 156.881 389.519H168.881ZM170.755 387.516H271.183V375.516H170.755V387.516ZM271.183 387.516C272.133 387.516 273.068 388.335 273.068 389.519H285.068C285.068 381.874 278.926 375.516 271.183 375.516V387.516ZM273.068 389.519V394.719H285.068V389.519H273.068Z" fill="#373D2F" mask="url(#path-3-inside-1_369_124)"/>
<mask id="path-5-inside-2_369_124" fill="white">
<path d="M308.106 211.43L274.43 64.0518C274.156 62.8503 273.086 62 271.856 62H170.099C168.869 62 167.799 62.8503 167.524 64.0518L133.73 211.927C133.55 212.711 133.738 213.535 134.239 214.161C134.741 214.789 135.502 215.156 136.304 215.156H305.645C305.663 215.156 305.682 215.156 305.698 215.156C307.158 215.156 308.338 213.976 308.338 212.516C308.338 212.13 308.257 211.76 308.106 211.43ZM139.615 209.875L172.204 67.2812H269.748L302.334 209.875H139.615Z"/>
</mask>
<path d="M308.106 211.43L274.43 64.0518C274.156 62.8503 273.086 62 271.856 62H170.099C168.869 62 167.799 62.8503 167.524 64.0518L133.73 211.927C133.55 212.711 133.738 213.535 134.239 214.161C134.741 214.789 135.502 215.156 136.304 215.156H305.645C305.663 215.156 305.682 215.156 305.698 215.156C307.158 215.156 308.338 213.976 308.338 212.516C308.338 212.13 308.257 211.76 308.106 211.43ZM139.615 209.875L172.204 67.2812H269.748L302.334 209.875H139.615Z" fill="#373D2F"/>
<path d="M308.106 211.43L302.257 212.767L302.393 213.363L302.647 213.92L308.106 211.43ZM274.43 64.0518L280.279 62.7152L280.279 62.7148L274.43 64.0518ZM167.524 64.0518L161.675 62.7148L161.675 62.715L167.524 64.0518ZM133.73 211.927L139.578 213.266L139.579 213.264L133.73 211.927ZM134.239 214.161L138.928 210.417L138.921 210.408L134.239 214.161ZM308.338 212.516L314.338 212.516L314.338 212.505L308.338 212.516ZM139.615 209.875L133.766 208.538L132.089 215.875H139.615V209.875ZM172.204 67.2812V61.2812H167.42L166.354 65.9445L172.204 67.2812ZM269.748 67.2812L275.598 65.9446L274.532 61.2812H269.748V67.2812ZM302.334 209.875V215.875H309.859L308.183 208.538L302.334 209.875ZM313.955 210.094L280.279 62.7152L268.581 65.3883L302.257 212.767L313.955 210.094ZM280.279 62.7148C279.38 58.78 275.879 56 271.856 56V68C270.293 68 268.931 66.9206 268.581 65.3887L280.279 62.7148ZM271.856 56H170.099V68H271.856V56ZM170.099 56C166.075 56 162.575 58.7799 161.675 62.7148L173.374 65.3887C173.023 66.9206 171.662 68 170.099 68V56ZM161.675 62.715L127.881 210.59L139.579 213.264L173.374 65.3885L161.675 62.715ZM127.881 210.588C127.295 213.148 127.903 215.85 129.558 217.914L138.921 210.408C139.572 211.22 139.806 212.274 139.578 213.266L127.881 210.588ZM129.55 217.904C131.186 219.953 133.67 221.156 136.304 221.156V209.156C137.334 209.156 138.296 209.625 138.928 210.417L129.55 217.904ZM136.304 221.156H305.645V209.156H136.304V221.156ZM305.645 221.156C305.645 221.156 305.645 221.156 305.645 221.156C305.645 221.156 305.645 221.156 305.645 221.156C305.645 221.156 305.645 221.156 305.645 221.156C305.645 221.156 305.645 221.156 305.645 221.156C305.645 221.156 305.646 221.156 305.646 221.156C305.646 221.156 305.646 221.156 305.646 221.156C305.646 221.156 305.646 221.156 305.646 221.156C305.646 221.156 305.646 221.156 305.646 221.156C305.646 221.156 305.646 221.156 305.646 221.156C305.646 221.156 305.646 221.156 305.646 221.156C305.646 221.156 305.646 221.156 305.646 221.156C305.646 221.156 305.646 221.156 305.646 221.156C305.646 221.156 305.646 221.156 305.646 221.156C305.646 221.156 305.646 221.156 305.647 221.156C305.647 221.156 305.647 221.156 305.647 221.156C305.647 221.156 305.647 221.156 305.647 221.156C305.647 221.156 305.647 221.156 305.647 221.156C305.647 221.156 305.647 221.156 305.647 221.156C305.647 221.156 305.647 221.156 305.647 221.156C305.647 221.156 305.647 221.156 305.647 221.156C305.647 221.156 305.647 221.156 305.647 221.156C305.647 221.156 305.647 221.156 305.647 221.156C305.647 221.156 305.647 221.156 305.648 221.156C305.648 221.156 305.648 221.156 305.648 221.156C305.648 221.156 305.648 221.156 305.648 221.156C305.648 221.156 305.648 221.156 305.648 221.156C305.648 221.156 305.648 221.156 305.648 221.156C305.648 221.156 305.648 221.156 305.648 221.156C305.648 221.156 305.648 221.156 305.648 221.156C305.648 221.156 305.648 221.156 305.648 221.156C305.648 221.156 305.648 221.156 305.648 221.156C305.648 221.156 305.648 221.156 305.648 221.156C305.649 221.156 305.649 221.156 305.649 221.156C305.649 221.156 305.649 221.156 305.649 221.156C305.649 221.156 305.649 221.156 305.649 221.156C305.649 221.156 305.649 221.156 305.649 221.156C305.649 221.156 305.649 221.156 305.649 221.156C305.649 221.156 305.649 221.156 305.649 221.156C305.649 221.156 305.649 221.156 305.649 221.156C305.649 221.156 305.649 221.156 305.649 221.156C305.649 221.156 305.649 221.156 305.649 221.156C305.649 221.156 305.65 221.156 305.65 221.156C305.65 221.156 305.65 221.156 305.65 221.156C305.65 221.156 305.65 221.156 305.65 221.156C305.65 221.156 305.65 221.156 305.65 221.156C305.65 221.156 305.65 221.156 305.65 221.156C305.65 221.156 305.65 221.156 305.65 221.156C305.65 221.156 305.65 221.156 305.65 221.156C305.65 221.156 305.65 221.156 305.65 221.156C305.65 221.156 305.65 221.156 305.65 221.156C305.65 221.156 305.65 221.156 305.651 221.156C305.651 221.156 305.651 221.156 305.651 221.156C305.651 221.156 305.651 221.156 305.651 221.156C305.651 221.156 305.651 221.156 305.651 221.156C305.651 221.156 305.651 221.156 305.651 221.156C305.651 221.156 305.651 221.156 305.651 221.156C305.651 221.156 305.651 221.156 305.651 221.156C305.651 221.156 305.651 221.156 305.651 221.156C305.651 221.156 305.651 221.156 305.651 221.156C305.651 221.156 305.651 221.156 305.652 221.156C305.652 221.156 305.652 221.156 305.652 221.156C305.652 221.156 305.652 221.156 305.652 221.156C305.652 221.156 305.652 221.156 305.652 221.156C305.652 221.156 305.652 221.156 305.652 221.156C305.652 221.156 305.652 221.156 305.652 221.156C305.652 221.156 305.652 221.156 305.652 221.156C305.652 221.156 305.652 221.156 305.652 221.156C305.652 221.156 305.652 221.156 305.652 221.156C305.652 221.156 305.652 221.156 305.652 221.156C305.653 221.156 305.653 221.156 305.653 221.156C305.653 221.156 305.653 221.156 305.653 221.156C305.653 221.156 305.653 221.156 305.653 221.156C305.653 221.156 305.653 221.156 305.653 221.156C305.653 221.156 305.653 221.156 305.653 221.156C305.653 221.156 305.653 221.156 305.653 221.156C305.653 221.156 305.653 221.156 305.653 221.156C305.653 221.156 305.653 221.156 305.653 221.156C305.653 221.156 305.653 221.156 305.653 221.156C305.653 221.156 305.654 221.156 305.654 221.156C305.654 221.156 305.654 221.156 305.654 221.156C305.654 221.156 305.654 221.156 305.654 221.156C305.654 221.156 305.654 221.156 305.654 221.156C305.654 221.156 305.654 221.156 305.654 221.156C305.654 221.156 305.654 221.156 305.654 221.156C305.654 221.156 305.654 221.156 305.654 221.156C305.654 221.156 305.654 221.156 305.654 221.156C305.654 221.156 305.654 221.156 305.654 221.156C305.654 221.156 305.654 221.156 305.655 221.156C305.655 221.156 305.655 221.156 305.655 221.156C305.655 221.156 305.655 221.156 305.655 221.156C305.655 221.156 305.655 221.156 305.655 221.156C305.655 221.156 305.655 221.156 305.655 221.156C305.655 221.156 305.655 221.156 305.655 221.156C305.655 221.156 305.655 221.156 305.655 221.156C305.655 221.156 305.655 221.156 305.655 221.156C305.655 221.156 305.655 221.156 305.655 221.156C305.655 221.156 305.655 221.156 305.655 221.156C305.656 221.156 305.656 221.156 305.656 221.156C305.656 221.156 305.656 221.156 305.656 221.156C305.656 221.156 305.656 221.156 305.656 221.156C305.656 221.156 305.656 221.156 305.656 221.156C305.656 221.156 305.656 221.156 305.656 221.156C305.656 221.156 305.656 221.156 305.656 221.156C305.656 221.156 305.656 221.156 305.656 221.156C305.656 221.156 305.656 221.156 305.656 221.156C305.656 221.156 305.656 221.156 305.656 221.156C305.657 221.156 305.657 221.156 305.657 221.156C305.657 221.156 305.657 221.156 305.657 221.156C305.657 221.156 305.657 221.156 305.657 221.156C305.657 221.156 305.657 221.156 305.657 221.156C305.657 221.156 305.657 221.156 305.657 221.156C305.657 221.156 305.657 221.156 305.657 221.156C305.657 221.156 305.657 221.156 305.657 221.156C305.657 221.156 305.657 221.156 305.657 221.156C305.657 221.156 305.657 221.156 305.657 221.156C305.657 221.156 305.658 221.156 305.658 221.156C305.658 221.156 305.658 221.156 305.658 221.156C305.658 221.156 305.658 221.156 305.658 221.156C305.658 221.156 305.658 221.156 305.658 221.156C305.658 221.156 305.658 221.156 305.658 221.156C305.658 221.156 305.658 221.156 305.658 221.156C305.658 221.156 305.658 221.156 305.658 221.156C305.658 221.156 305.658 221.156 305.658 221.156C305.658 221.156 305.658 221.156 305.658 221.156C305.658 221.156 305.658 221.156 305.659 221.156C305.659 221.156 305.659 221.156 305.659 221.156C305.659 221.156 305.659 221.156 305.659 221.156C305.659 221.156 305.659 221.156 305.659 221.156C305.659 221.156 305.659 221.156 305.659 221.156C305.659 221.156 305.659 221.156 305.659 221.156C305.659 221.156 305.659 221.156 305.659 221.156C305.659 221.156 305.659 221.156 305.659 221.156C305.659 221.156 305.659 221.156 305.659 221.156C305.659 221.156 305.659 221.156 305.659 221.156C305.66 221.156 305.66 221.156 305.66 221.156C305.66 221.156 305.66 221.156 305.66 221.156C305.66 221.156 305.66 221.156 305.66 221.156C305.66 221.156 305.66 221.156 305.66 221.156C305.66 221.156 305.66 221.156 305.66 221.156C305.66 221.156 305.66 221.156 305.66 221.156C305.66 221.156 305.66 221.156 305.66 221.156C305.66 221.156 305.66 221.156 305.66 221.156C305.66 221.156 305.66 221.156 305.66 221.156C305.66 221.156 305.661 221.156 305.661 221.156C305.661 221.156 305.661 221.156 305.661 221.156C305.661 221.156 305.661 221.156 305.661 221.156C305.661 221.156 305.661 221.156 305.661 221.156C305.661 221.156 305.661 221.156 305.661 221.156C305.661 221.156 305.661 221.156 305.661 221.156C305.661 221.156 305.661 221.156 305.661 221.156C305.661 221.156 305.661 221.156 305.661 221.156C305.661 221.156 305.661 221.156 305.661 221.156C305.661 221.156 305.661 221.156 305.662 221.156C305.662 221.156 305.662 221.156 305.662 221.156C305.662 221.156 305.662 221.156 305.662 221.156C305.662 221.156 305.662 221.156 305.662 221.156C305.662 221.156 305.662 221.156 305.662 221.156C305.662 221.156 305.662 221.156 305.662 221.156C305.662 221.156 305.662 221.156 305.662 221.156C305.662 221.156 305.662 221.156 305.662 221.156C305.662 221.156 305.662 221.156 305.662 221.156C305.662 221.156 305.662 221.156 305.662 221.156C305.663 221.156 305.663 221.156 305.663 221.156C305.663 221.156 305.663 221.156 305.663 221.156C305.663 221.156 305.663 221.156 305.663 221.156C305.663 221.156 305.663 221.156 305.663 221.156C305.663 221.156 305.663 221.156 305.663 221.156C305.663 221.156 305.663 221.156 305.663 221.156C305.663 221.156 305.663 221.156 305.663 221.156C305.663 221.156 305.663 221.156 305.663 221.156C305.663 221.156 305.663 221.156 305.663 221.156C305.663 221.156 305.664 221.156 305.664 221.156C305.664 221.156 305.664 221.156 305.664 221.156C305.664 221.156 305.664 221.156 305.664 221.156C305.664 221.156 305.664 221.156 305.664 221.156C305.664 221.156 305.664 221.156 305.664 221.156C305.664 221.156 305.664 221.156 305.664 221.156C305.664 221.156 305.664 221.156 305.664 221.156C305.664 221.156 305.664 221.156 305.664 221.156C305.664 221.156 305.664 221.156 305.664 221.156C305.664 221.156 305.664 221.156 305.665 221.156C305.665 221.156 305.665 221.156 305.665 221.156C305.665 221.156 305.665 221.156 305.665 221.156C305.665 221.156 305.665 221.156 305.665 221.156C305.665 221.156 305.665 221.156 305.665 221.156C305.665 221.156 305.665 221.156 305.665 221.156C305.665 221.156 305.665 221.156 305.665 221.156C305.665 221.156 305.665 221.156 305.665 221.156C305.665 221.156 305.665 221.156 305.665 221.156C305.665 221.156 305.665 221.156 305.665 221.156C305.665 221.156 305.666 221.156 305.666 221.156C305.666 221.156 305.666 221.156 305.666 221.156C305.666 221.156 305.666 221.156 305.666 221.156C305.666 221.156 305.666 221.156 305.666 221.156C305.666 221.156 305.666 221.156 305.666 221.156C305.666 221.156 305.666 221.156 305.666 221.156C305.666 221.156 305.666 221.156 305.666 221.156C305.666 221.156 305.666 221.156 305.666 221.156C305.666 221.156 305.666 221.156 305.666 221.156C305.666 221.156 305.666 221.156 305.667 221.156C305.667 221.156 305.667 221.156 305.667 221.156C305.667 221.156 305.667 221.156 305.667 221.156C305.667 221.156 305.667 221.156 305.667 221.156C305.667 221.156 305.667 221.156 305.667 221.156C305.667 221.156 305.667 221.156 305.667 221.156C305.667 221.156 305.667 221.156 305.667 221.156C305.667 221.156 305.667 221.156 305.667 221.156C305.667 221.156 305.667 221.156 305.667 221.156C305.667 221.156 305.667 221.156 305.667 221.156C305.668 221.156 305.668 221.156 305.668 221.156C305.668 221.156 305.668 221.156 305.668 221.156C305.668 221.156 305.668 221.156 305.668 221.156C305.668 221.156 305.668 221.156 305.668 221.156C305.668 221.156 305.668 221.156 305.668 221.156C305.668 221.156 305.668 221.156 305.668 221.156C305.668 221.156 305.668 221.156 305.668 221.156C305.668 221.156 305.668 221.156 305.668 221.156C305.668 221.156 305.668 221.156 305.668 221.156C305.668 221.156 305.668 221.156 305.669 221.156C305.669 221.156 305.669 221.156 305.669 221.156C305.669 221.156 305.669 221.156 305.669 221.156C305.669 221.156 305.669 221.156 305.669 221.156C305.669 221.156 305.669 221.156 305.669 221.156C305.669 221.156 305.669 221.156 305.669 221.156C305.669 221.156 305.669 221.156 305.669 221.156C305.669 221.156 305.669 221.156 305.669 221.156C305.669 221.156 305.669 221.156 305.669 221.156C305.669 221.156 305.669 221.156 305.669 221.156C305.67 221.156 305.67 221.156 305.67 221.156C305.67 221.156 305.67 221.156 305.67 221.156C305.67 221.156 305.67 221.156 305.67 221.156C305.67 221.156 305.67 221.156 305.67 221.156C305.67 221.156 305.67 221.156 305.67 221.156C305.67 221.156 305.67 221.156 305.67 221.156C305.67 221.156 305.67 221.156 305.67 221.156C305.67 221.156 305.67 221.156 305.67 221.156C305.67 221.156 305.67 221.156 305.67 221.156C305.67 221.156 305.67 221.156 305.671 221.156C305.671 221.156 305.671 221.156 305.671 221.156C305.671 221.156 305.671 221.156 305.671 221.156C305.671 221.156 305.671 221.156 305.671 221.156C305.671 221.156 305.671 221.156 305.671 221.156C305.671 221.156 305.671 221.156 305.671 221.156C305.671 221.156 305.671 221.156 305.671 221.156C305.671 221.156 305.671 221.156 305.671 221.156C305.671 221.156 305.671 221.156 305.671 221.156C305.671 221.156 305.671 221.156 305.671 221.156C305.672 221.156 305.672 221.156 305.672 221.156C305.672 221.156 305.672 221.156 305.672 221.156C305.672 221.156 305.672 221.156 305.672 221.156C305.672 221.156 305.672 221.156 305.672 221.156C305.672 221.156 305.672 221.156 305.672 221.156C305.672 221.156 305.672 221.156 305.672 221.156C305.672 221.156 305.672 221.156 305.672 221.156C305.672 221.156 305.672 221.156 305.672 221.156C305.672 221.156 305.672 221.156 305.672 221.156C305.672 221.156 305.672 221.156 305.673 221.156C305.673 221.156 305.673 221.156 305.673 221.156C305.673 221.156 305.673 221.156 305.673 221.156C305.673 221.156 305.673 221.156 305.673 221.156C305.673 221.156 305.673 221.156 305.673 221.156C305.673 221.156 305.673 221.156 305.673 221.156C305.673 221.156 305.673 221.156 305.673 221.156C305.673 221.156 305.673 221.156 305.673 221.156C305.673 221.156 305.673 221.156 305.673 221.156C305.673 221.156 305.673 221.156 305.673 221.156C305.673 221.156 305.674 221.156 305.674 221.156C305.674 221.156 305.674 221.156 305.674 221.156C305.674 221.156 305.674 221.156 305.674 221.156C305.674 221.156 305.674 221.156 305.674 221.156C305.674 221.156 305.674 221.156 305.674 221.156C305.674 221.156 305.674 221.156 305.674 221.156C305.674 221.156 305.674 221.156 305.674 221.156C305.674 221.156 305.674 221.156 305.674 221.156C305.674 221.156 305.674 221.156 305.674 221.156C305.674 221.156 305.674 221.156 305.674 221.156C305.675 221.156 305.675 221.156 305.675 221.156C305.675 221.156 305.675 221.156 305.675 221.156C305.675 221.156 305.675 221.156 305.675 221.156C305.675 221.156 305.675 221.156 305.675 221.156C305.675 221.156 305.675 221.156 305.675 221.156C305.675 221.156 305.675 221.156 305.675 221.156C305.675 221.156 305.675 221.156 305.675 221.156C305.675 221.156 305.675 221.156 305.675 221.156C305.675 221.156 305.675 221.156 305.675 221.156C305.675 221.156 305.675 221.156 305.676 221.156C305.676 221.156 305.676 221.156 305.676 221.156C305.676 221.156 305.676 221.156 305.676 221.156C305.676 221.156 305.676 221.156 305.676 221.156C305.676 221.156 305.676 221.156 305.676 221.156C305.676 221.156 305.676 221.156 305.676 221.156C305.676 221.156 305.676 221.156 305.676 221.156C305.676 221.156 305.676 221.156 305.676 221.156C305.676 221.156 305.676 221.156 305.676 221.156C305.676 221.156 305.676 221.156 305.676 221.156C305.676 221.156 305.677 221.156 305.677 221.156C305.677 221.156 305.677 221.156 305.677 221.156C305.677 221.156 305.677 221.156 305.677 221.156C305.677 221.156 305.677 221.156 305.677 221.156C305.677 221.156 305.677 221.156 305.677 221.156C305.677 221.156 305.677 221.156 305.677 221.156C305.677 221.156 305.677 221.156 305.677 221.156C305.677 221.156 305.677 221.156 305.677 221.156C305.677 221.156 305.677 221.156 305.677 221.156C305.677 221.156 305.677 221.156 305.677 221.156C305.678 221.156 305.678 221.156 305.678 221.156C305.678 221.156 305.678 221.156 305.678 221.156C305.678 221.156 305.678 221.156 305.678 221.156C305.678 221.156 305.678 221.156 305.678 221.156C305.678 221.156 305.678 221.156 305.678 221.156C305.678 221.156 305.678 221.156 305.678 221.156C305.678 221.156 305.678 221.156 305.678 221.156C305.678 221.156 305.678 221.156 305.678 221.156C305.678 221.156 305.678 221.156 305.678 221.156C305.678 221.156 305.678 221.156 305.679 221.156C305.679 221.156 305.679 221.156 305.679 221.156C305.679 221.156 305.679 221.156 305.679 221.156C305.679 221.156 305.679 221.156 305.679 221.156C305.679 221.156 305.679 221.156 305.679 221.156C305.679 221.156 305.679 221.156 305.679 221.156C305.679 221.156 305.679 221.156 305.679 221.156C305.679 221.156 305.679 221.156 305.679 221.156C305.679 221.156 305.679 221.156 305.679 221.156C305.679 221.156 305.679 221.156 305.679 221.156C305.679 221.156 305.68 221.156 305.68 221.156C305.68 221.156 305.68 221.156 305.68 221.156C305.68 221.156 305.68 221.156 305.68 221.156C305.68 221.156 305.68 221.156 305.68 221.156C305.68 221.156 305.68 221.156 305.68 221.156C305.68 221.156 305.68 221.156 305.68 221.156C305.68 221.156 305.68 221.156 305.68 221.156C305.68 221.156 305.68 221.156 305.68 221.156C305.68 221.156 305.68 221.156 305.68 221.156C305.68 221.156 305.68 221.156 305.68 221.156C305.68 221.156 305.681 221.156 305.681 221.156C305.681 221.156 305.681 221.156 305.681 221.156C305.681 221.156 305.681 221.156 305.681 221.156C305.681 221.156 305.681 221.156 305.681 221.156C305.681 221.156 305.681 221.156 305.681 221.156C305.681 221.156 305.681 221.156 305.681 221.156C305.681 221.156 305.681 221.156 305.681 221.156C305.681 221.156 305.681 221.156 305.681 221.156C305.681 221.156 305.681 221.156 305.681 221.156C305.681 221.156 305.681 221.156 305.681 221.156C305.682 221.156 305.682 221.156 305.682 221.156C305.682 221.156 305.682 221.156 305.682 221.156C305.682 221.156 305.682 221.156 305.682 221.156C305.682 221.156 305.682 221.156 305.682 221.156C305.682 221.156 305.682 221.156 305.682 221.156C305.682 221.156 305.682 221.156 305.682 221.156C305.682 221.156 305.682 221.156 305.682 221.156C305.682 221.156 305.682 221.156 305.682 221.156C305.682 221.156 305.682 221.156 305.682 221.156C305.682 221.156 305.682 221.156 305.682 221.156C305.683 221.156 305.683 221.156 305.683 221.156C305.683 221.156 305.683 221.156 305.683 221.156C305.683 221.156 305.683 221.156 305.683 221.156C305.683 221.156 305.683 221.156 305.683 221.156C305.683 221.156 305.683 221.156 305.683 221.156C305.683 221.156 305.683 221.156 305.683 221.156C305.683 221.156 305.683 221.156 305.683 221.156C305.683 221.156 305.683 221.156 305.683 221.156C305.683 221.156 305.683 221.156 305.683 221.156C305.683 221.156 305.683 221.156 305.683 221.156C305.684 221.156 305.684 221.156 305.684 221.156C305.684 221.156 305.684 221.156 305.684 221.156C305.684 221.156 305.684 221.156 305.684 221.156C305.684 221.156 305.684 221.156 305.684 221.156C305.684 221.156 305.684 221.156 305.684 221.156C305.684 221.156 305.684 221.156 305.684 221.156C305.684 221.156 305.684 221.156 305.684 221.156C305.684 221.156 305.684 221.156 305.684 221.156C305.684 221.156 305.684 221.156 305.684 221.156C305.684 221.156 305.684 221.156 305.684 221.156C305.685 221.156 305.685 221.156 305.685 221.156C305.685 221.156 305.685 221.156 305.685 221.156C305.685 221.156 305.685 221.156 305.685 221.156C305.685 221.156 305.685 221.156 305.685 221.156C305.685 221.156 305.685 221.156 305.685 221.156C305.685 221.156 305.685 221.156 305.685 221.156C305.685 221.156 305.685 221.156 305.685 221.156C305.685 221.156 305.685 221.156 305.685 221.156C305.685 221.156 305.685 221.156 305.685 221.156C305.685 221.156 305.685 221.156 305.685 221.156C305.686 221.156 305.686 221.156 305.686 221.156C305.686 221.156 305.686 221.156 305.686 221.156C305.686 221.156 305.686 221.156 305.686 221.156C305.686 221.156 305.686 221.156 305.686 221.156C305.686 221.156 305.686 221.156 305.686 221.156C305.686 221.156 305.686 221.156 305.686 221.156C305.686 221.156 305.686 221.156 305.686 221.156C305.686 221.156 305.686 221.156 305.686 221.156C305.686 221.156 305.686 221.156 305.686 221.156C305.686 221.156 305.686 221.156 305.686 221.156C305.687 221.156 305.687 221.156 305.687 221.156C305.687 221.156 305.687 221.156 305.687 221.156C305.687 221.156 305.687 221.156 305.687 221.156C305.687 221.156 305.687 221.156 305.687 221.156C305.687 221.156 305.687 221.156 305.687 221.156C305.687 221.156 305.687 221.156 305.687 221.156C305.687 221.156 305.687 221.156 305.687 221.156C305.687 221.156 305.687 221.156 305.687 221.156C305.687 221.156 305.687 221.156 305.687 221.156C305.687 221.156 305.687 221.156 305.687 221.156C305.688 221.156 305.688 221.156 305.688 221.156C305.688 221.156 305.688 221.156 305.688 221.156C305.688 221.156 305.688 221.156 305.688 221.156C305.688 221.156 305.688 221.156 305.688 221.156C305.688 221.156 305.688 221.156 305.688 221.156C305.688 221.156 305.688 221.156 305.688 221.156C305.688 221.156 305.688 221.156 305.688 221.156C305.688 221.156 305.688 221.156 305.688 221.156C305.688 221.156 305.688 221.156 305.688 221.156C305.688 221.156 305.688 221.156 305.688 221.156C305.688 221.156 305.689 221.156 305.689 221.156C305.689 221.156 305.689 221.156 305.689 221.156C305.689 221.156 305.689 221.156 305.689 221.156C305.689 221.156 305.689 221.156 305.689 221.156C305.689 221.156 305.689 221.156 305.689 221.156C305.689 221.156 305.689 221.156 305.689 221.156C305.689 221.156 305.689 221.156 305.689 221.156C305.689 221.156 305.689 221.156 305.689 221.156C305.689 221.156 305.689 221.156 305.689 221.156C305.689 221.156 305.689 221.156 305.689 221.156C305.689 221.156 305.69 221.156 305.69 221.156C305.69 221.156 305.69 221.156 305.69 221.156C305.69 221.156 305.69 221.156 305.69 221.156C305.69 221.156 305.69 221.156 305.69 221.156C305.69 221.156 305.69 221.156 305.69 221.156C305.69 221.156 305.69 221.156 305.69 221.156C305.69 221.156 305.69 221.156 305.69 221.156C305.69 221.156 305.69 221.156 305.69 221.156C305.69 221.156 305.69 221.156 305.69 221.156C305.69 221.156 305.69 221.156 305.69 221.156C305.69 221.156 305.69 221.156 305.691 221.156C305.691 221.156 305.691 221.156 305.691 221.156C305.691 221.156 305.691 221.156 305.691 221.156C305.691 221.156 305.691 221.156 305.691 221.156C305.691 221.156 305.691 221.156 305.691 221.156C305.691 221.156 305.691 221.156 305.691 221.156C305.691 221.156 305.691 221.156 305.691 221.156C305.691 221.156 305.691 221.156 305.691 221.156C305.691 221.156 305.691 221.156 305.691 221.156C305.691 221.156 305.691 221.156 305.691 221.156C305.691 221.156 305.691 221.156 305.691 221.156C305.692 221.156 305.692 221.156 305.692 221.156C305.692 221.156 305.692 221.156 305.692 221.156C305.692 221.156 305.692 221.156 305.692 221.156C305.692 221.156 305.692 221.156 305.692 221.156C305.692 221.156 305.692 221.156 305.692 221.156C305.692 221.156 305.692 221.156 305.692 221.156C305.692 221.156 305.692 221.156 305.692 221.156C305.692 221.156 305.692 221.156 305.692 221.156C305.692 221.156 305.692 221.156 305.692 221.156C305.692 221.156 305.692 221.156 305.692 221.156C305.692 221.156 305.693 221.156 305.693 221.156C305.693 221.156 305.693 221.156 305.693 221.156C305.693 221.156 305.693 221.156 305.693 221.156C305.693 221.156 305.693 221.156 305.693 221.156C305.693 221.156 305.693 221.156 305.693 221.156C305.693 221.156 305.693 221.156 305.693 221.156C305.693 221.156 305.693 221.156 305.693 221.156C305.693 221.156 305.693 221.156 305.693 221.156C305.693 221.156 305.693 221.156 305.693 221.156C305.693 221.156 305.693 221.156 305.693 221.156C305.693 221.156 305.693 221.156 305.694 221.156C305.694 221.156 305.694 221.156 305.694 221.156C305.694 221.156 305.694 221.156 305.694 221.156C305.694 221.156 305.694 221.156 305.694 221.156C305.694 221.156 305.694 221.156 305.694 221.156C305.694 221.156 305.694 221.156 305.694 221.156C305.694 221.156 305.694 221.156 305.694 221.156C305.694 221.156 305.694 221.156 305.694 221.156C305.694 221.156 305.694 221.156 305.694 221.156C305.694 221.156 305.694 221.156 305.694 221.156C305.694 221.156 305.694 221.156 305.694 221.156C305.694 221.156 305.695 221.156 305.695 221.156C305.695 221.156 305.695 221.156 305.695 221.156C305.695 221.156 305.695 221.156 305.695 221.156C305.695 221.156 305.695 221.156 305.695 221.156C305.695 221.156 305.695 221.156 305.695 221.156C305.695 221.156 305.695 221.156 305.695 221.156C305.695 221.156 305.695 221.156 305.695 221.156C305.695 221.156 305.695 221.156 305.695 221.156C305.695 221.156 305.695 221.156 305.695 221.156C305.695 221.156 305.695 221.156 305.695 221.156C305.695 221.156 305.695 221.156 305.695 221.156C305.696 221.156 305.696 221.156 305.696 221.156C305.696 221.156 305.696 221.156 305.696 221.156C305.696 221.156 305.696 221.156 305.696 221.156C305.696 221.156 305.696 221.156 305.696 221.156C305.696 221.156 305.696 221.156 305.696 221.156C305.696 221.156 305.696 221.156 305.696 221.156C305.696 221.156 305.696 221.156 305.696 221.156C305.696 221.156 305.696 221.156 305.696 221.156C305.696 221.156 305.696 221.156 305.696 221.156C305.696 221.156 305.696 221.156 305.696 221.156C305.696 221.156 305.696 221.156 305.697 221.156C305.697 221.156 305.697 221.156 305.697 221.156C305.697 221.156 305.697 221.156 305.697 221.156C305.697 221.156 305.697 221.156 305.697 221.156C305.697 221.156 305.697 221.156 305.697 221.156C305.697 221.156 305.697 221.156 305.697 221.156C305.697 221.156 305.697 221.156 305.697 221.156C305.697 221.156 305.697 221.156 305.697 221.156C305.697 221.156 305.697 221.156 305.697 221.156C305.697 221.156 305.697 221.156 305.697 221.156C305.697 221.156 305.697 221.156 305.697 221.156C305.697 221.156 305.698 221.156 305.698 221.156C305.698 221.156 305.698 221.156 305.698 221.156C305.698 221.156 305.698 221.156 305.698 221.156C305.698 221.156 305.698 221.156 305.698 221.156V209.156C305.698 209.156 305.698 209.156 305.698 209.156C305.698 209.156 305.698 209.156 305.698 209.156C305.698 209.156 305.698 209.156 305.698 209.156C305.698 209.156 305.697 209.156 305.697 209.156C305.697 209.156 305.697 209.156 305.697 209.156C305.697 209.156 305.697 209.156 305.697 209.156C305.697 209.156 305.697 209.156 305.697 209.156C305.697 209.156 305.697 209.156 305.697 209.156C305.697 209.156 305.697 209.156 305.697 209.156C305.697 209.156 305.697 209.156 305.697 209.156C305.697 209.156 305.697 209.156 305.697 209.156C305.697 209.156 305.697 209.156 305.697 209.156C305.697 209.156 305.697 209.156 305.697 209.156C305.697 209.156 305.697 209.156 305.697 209.156C305.696 209.156 305.696 209.156 305.696 209.156C305.696 209.156 305.696 209.156 305.696 209.156C305.696 209.156 305.696 209.156 305.696 209.156C305.696 209.156 305.696 209.156 305.696 209.156C305.696 209.156 305.696 209.156 305.696 209.156C305.696 209.156 305.696 209.156 305.696 209.156C305.696 209.156 305.696 209.156 305.696 209.156C305.696 209.156 305.696 209.156 305.696 209.156C305.696 209.156 305.696 209.156 305.696 209.156C305.696 209.156 305.696 209.156 305.696 209.156C305.696 209.156 305.696 209.156 305.695 209.156C305.695 209.156 305.695 209.156 305.695 209.156C305.695 209.156 305.695 209.156 305.695 209.156C305.695 209.156 305.695 209.156 305.695 209.156C305.695 209.156 305.695 209.156 305.695 209.156C305.695 209.156 305.695 209.156 305.695 209.156C305.695 209.156 305.695 209.156 305.695 209.156C305.695 209.156 305.695 209.156 305.695 209.156C305.695 209.156 305.695 209.156 305.695 209.156C305.695 209.156 305.695 209.156 305.695 209.156C305.695 209.156 305.695 209.156 305.695 209.156C305.695 209.156 305.694 209.156 305.694 209.156C305.694 209.156 305.694 209.156 305.694 209.156C305.694 209.156 305.694 209.156 305.694 209.156C305.694 209.156 305.694 209.156 305.694 209.156C305.694 209.156 305.694 209.156 305.694 209.156C305.694 209.156 305.694 209.156 305.694 209.156C305.694 209.156 305.694 209.156 305.694 209.156C305.694 209.156 305.694 209.156 305.694 209.156C305.694 209.156 305.694 209.156 305.694 209.156C305.694 209.156 305.694 209.156 305.694 209.156C305.694 209.156 305.694 209.156 305.694 209.156C305.693 209.156 305.693 209.156 305.693 209.156C305.693 209.156 305.693 209.156 305.693 209.156C305.693 209.156 305.693 209.156 305.693 209.156C305.693 209.156 305.693 209.156 305.693 209.156C305.693 209.156 305.693 209.156 305.693 209.156C305.693 209.156 305.693 209.156 305.693 209.156C305.693 209.156 305.693 209.156 305.693 209.156C305.693 209.156 305.693 209.156 305.693 209.156C305.693 209.156 305.693 209.156 305.693 209.156C305.693 209.156 305.693 209.156 305.693 209.156C305.693 209.156 305.692 209.156 305.692 209.156C305.692 209.156 305.692 209.156 305.692 209.156C305.692 209.156 305.692 209.156 305.692 209.156C305.692 209.156 305.692 209.156 305.692 209.156C305.692 209.156 305.692 209.156 305.692 209.156C305.692 209.156 305.692 209.156 305.692 209.156C305.692 209.156 305.692 209.156 305.692 209.156C305.692 209.156 305.692 209.156 305.692 209.156C305.692 209.156 305.692 209.156 305.692 209.156C305.692 209.156 305.692 209.156 305.692 209.156C305.692 209.156 305.692 209.156 305.691 209.156C305.691 209.156 305.691 209.156 305.691 209.156C305.691 209.156 305.691 209.156 305.691 209.156C305.691 209.156 305.691 209.156 305.691 209.156C305.691 209.156 305.691 209.156 305.691 209.156C305.691 209.156 305.691 209.156 305.691 209.156C305.691 209.156 305.691 209.156 305.691 209.156C305.691 209.156 305.691 209.156 305.691 209.156C305.691 209.156 305.691 209.156 305.691 209.156C305.691 209.156 305.691 209.156 305.691 209.156C305.691 209.156 305.691 209.156 305.691 209.156C305.69 209.156 305.69 209.156 305.69 209.156C305.69 209.156 305.69 209.156 305.69 209.156C305.69 209.156 305.69 209.156 305.69 209.156C305.69 209.156 305.69 209.156 305.69 209.156C305.69 209.156 305.69 209.156 305.69 209.156C305.69 209.156 305.69 209.156 305.69 209.156C305.69 209.156 305.69 209.156 305.69 209.156C305.69 209.156 305.69 209.156 305.69 209.156C305.69 209.156 305.69 209.156 305.69 209.156C305.69 209.156 305.69 209.156 305.69 209.156C305.69 209.156 305.689 209.156 305.689 209.156C305.689 209.156 305.689 209.156 305.689 209.156C305.689 209.156 305.689 209.156 305.689 209.156C305.689 209.156 305.689 209.156 305.689 209.156C305.689 209.156 305.689 209.156 305.689 209.156C305.689 209.156 305.689 209.156 305.689 209.156C305.689 209.156 305.689 209.156 305.689 209.156C305.689 209.156 305.689 209.156 305.689 209.156C305.689 209.156 305.689 209.156 305.689 209.156C305.689 209.156 305.689 209.156 305.689 209.156C305.689 209.156 305.688 209.156 305.688 209.156C305.688 209.156 305.688 209.156 305.688 209.156C305.688 209.156 305.688 209.156 305.688 209.156C305.688 209.156 305.688 209.156 305.688 209.156C305.688 209.156 305.688 209.156 305.688 209.156C305.688 209.156 305.688 209.156 305.688 209.156C305.688 209.156 305.688 209.156 305.688 209.156C305.688 209.156 305.688 209.156 305.688 209.156C305.688 209.156 305.688 209.156 305.688 209.156C305.688 209.156 305.688 209.156 305.688 209.156C305.688 209.156 305.688 209.156 305.687 209.156C305.687 209.156 305.687 209.156 305.687 209.156C305.687 209.156 305.687 209.156 305.687 209.156C305.687 209.156 305.687 209.156 305.687 209.156C305.687 209.156 305.687 209.156 305.687 209.156C305.687 209.156 305.687 209.156 305.687 209.156C305.687 209.156 305.687 209.156 305.687 209.156C305.687 209.156 305.687 209.156 305.687 209.156C305.687 209.156 305.687 209.156 305.687 209.156C305.687 209.156 305.687 209.156 305.687 209.156C305.687 209.156 305.687 209.156 305.686 209.156C305.686 209.156 305.686 209.156 305.686 209.156C305.686 209.156 305.686 209.156 305.686 209.156C305.686 209.156 305.686 209.156 305.686 209.156C305.686 209.156 305.686 209.156 305.686 209.156C305.686 209.156 305.686 209.156 305.686 209.156C305.686 209.156 305.686 209.156 305.686 209.156C305.686 209.156 305.686 209.156 305.686 209.156C305.686 209.156 305.686 209.156 305.686 209.156C305.686 209.156 305.686 209.156 305.686 209.156C305.686 209.156 305.686 209.156 305.685 209.156C305.685 209.156 305.685 209.156 305.685 209.156C305.685 209.156 305.685 209.156 305.685 209.156C305.685 209.156 305.685 209.156 305.685 209.156C305.685 209.156 305.685 209.156 305.685 209.156C305.685 209.156 305.685 209.156 305.685 209.156C305.685 209.156 305.685 209.156 305.685 209.156C305.685 209.156 305.685 209.156 305.685 209.156C305.685 209.156 305.685 209.156 305.685 209.156C305.685 209.156 305.685 209.156 305.685 209.156C305.685 209.156 305.685 209.156 305.684 209.156C305.684 209.156 305.684 209.156 305.684 209.156C305.684 209.156 305.684 209.156 305.684 209.156C305.684 209.156 305.684 209.156 305.684 209.156C305.684 209.156 305.684 209.156 305.684 209.156C305.684 209.156 305.684 209.156 305.684 209.156C305.684 209.156 305.684 209.156 305.684 209.156C305.684 209.156 305.684 209.156 305.684 209.156C305.684 209.156 305.684 209.156 305.684 209.156C305.684 209.156 305.684 209.156 305.684 209.156C305.684 209.156 305.684 209.156 305.683 209.156C305.683 209.156 305.683 209.156 305.683 209.156C305.683 209.156 305.683 209.156 305.683 209.156C305.683 209.156 305.683 209.156 305.683 209.156C305.683 209.156 305.683 209.156 305.683 209.156C305.683 209.156 305.683 209.156 305.683 209.156C305.683 209.156 305.683 209.156 305.683 209.156C305.683 209.156 305.683 209.156 305.683 209.156C305.683 209.156 305.683 209.156 305.683 209.156C305.683 209.156 305.683 209.156 305.683 209.156C305.683 209.156 305.683 209.156 305.682 209.156C305.682 209.156 305.682 209.156 305.682 209.156C305.682 209.156 305.682 209.156 305.682 209.156C305.682 209.156 305.682 209.156 305.682 209.156C305.682 209.156 305.682 209.156 305.682 209.156C305.682 209.156 305.682 209.156 305.682 209.156C305.682 209.156 305.682 209.156 305.682 209.156C305.682 209.156 305.682 209.156 305.682 209.156C305.682 209.156 305.682 209.156 305.682 209.156C305.682 209.156 305.682 209.156 305.682 209.156C305.682 209.156 305.682 209.156 305.681 209.156C305.681 209.156 305.681 209.156 305.681 209.156C305.681 209.156 305.681 209.156 305.681 209.156C305.681 209.156 305.681 209.156 305.681 209.156C305.681 209.156 305.681 209.156 305.681 209.156C305.681 209.156 305.681 209.156 305.681 209.156C305.681 209.156 305.681 209.156 305.681 209.156C305.681 209.156 305.681 209.156 305.681 209.156C305.681 209.156 305.681 209.156 305.681 209.156C305.681 209.156 305.681 209.156 305.681 209.156C305.681 209.156 305.68 209.156 305.68 209.156C305.68 209.156 305.68 209.156 305.68 209.156C305.68 209.156 305.68 209.156 305.68 209.156C305.68 209.156 305.68 209.156 305.68 209.156C305.68 209.156 305.68 209.156 305.68 209.156C305.68 209.156 305.68 209.156 305.68 209.156C305.68 209.156 305.68 209.156 305.68 209.156C305.68 209.156 305.68 209.156 305.68 209.156C305.68 209.156 305.68 209.156 305.68 209.156C305.68 209.156 305.68 209.156 305.68 209.156C305.68 209.156 305.679 209.156 305.679 209.156C305.679 209.156 305.679 209.156 305.679 209.156C305.679 209.156 305.679 209.156 305.679 209.156C305.679 209.156 305.679 209.156 305.679 209.156C305.679 209.156 305.679 209.156 305.679 209.156C305.679 209.156 305.679 209.156 305.679 209.156C305.679 209.156 305.679 209.156 305.679 209.156C305.679 209.156 305.679 209.156 305.679 209.156C305.679 209.156 305.679 209.156 305.679 209.156C305.679 209.156 305.679 209.156 305.679 209.156C305.678 209.156 305.678 209.156 305.678 209.156C305.678 209.156 305.678 209.156 305.678 209.156C305.678 209.156 305.678 209.156 305.678 209.156C305.678 209.156 305.678 209.156 305.678 209.156C305.678 209.156 305.678 209.156 305.678 209.156C305.678 209.156 305.678 209.156 305.678 209.156C305.678 209.156 305.678 209.156 305.678 209.156C305.678 209.156 305.678 209.156 305.678 209.156C305.678 209.156 305.678 209.156 305.678 209.156C305.678 209.156 305.678 209.156 305.677 209.156C305.677 209.156 305.677 209.156 305.677 209.156C305.677 209.156 305.677 209.156 305.677 209.156C305.677 209.156 305.677 209.156 305.677 209.156C305.677 209.156 305.677 209.156 305.677 209.156C305.677 209.156 305.677 209.156 305.677 209.156C305.677 209.156 305.677 209.156 305.677 209.156C305.677 209.156 305.677 209.156 305.677 209.156C305.677 209.156 305.677 209.156 305.677 209.156C305.677 209.156 305.677 209.156 305.677 209.156C305.677 209.156 305.676 209.156 305.676 209.156C305.676 209.156 305.676 209.156 305.676 209.156C305.676 209.156 305.676 209.156 305.676 209.156C305.676 209.156 305.676 209.156 305.676 209.156C305.676 209.156 305.676 209.156 305.676 209.156C305.676 209.156 305.676 209.156 305.676 209.156C305.676 209.156 305.676 209.156 305.676 209.156C305.676 209.156 305.676 209.156 305.676 209.156C305.676 209.156 305.676 209.156 305.676 209.156C305.676 209.156 305.676 209.156 305.676 209.156C305.675 209.156 305.675 209.156 305.675 209.156C305.675 209.156 305.675 209.156 305.675 209.156C305.675 209.156 305.675 209.156 305.675 209.156C305.675 209.156 305.675 209.156 305.675 209.156C305.675 209.156 305.675 209.156 305.675 209.156C305.675 209.156 305.675 209.156 305.675 209.156C305.675 209.156 305.675 209.156 305.675 209.156C305.675 209.156 305.675 209.156 305.675 209.156C305.675 209.156 305.675 209.156 305.675 209.156C305.675 209.156 305.675 209.156 305.674 209.156C305.674 209.156 305.674 209.156 305.674 209.156C305.674 209.156 305.674 209.156 305.674 209.156C305.674 209.156 305.674 209.156 305.674 209.156C305.674 209.156 305.674 209.156 305.674 209.156C305.674 209.156 305.674 209.156 305.674 209.156C305.674 209.156 305.674 209.156 305.674 209.156C305.674 209.156 305.674 209.156 305.674 209.156C305.674 209.156 305.674 209.156 305.674 209.156C305.674 209.156 305.674 209.156 305.674 209.156C305.674 209.156 305.673 209.156 305.673 209.156C305.673 209.156 305.673 209.156 305.673 209.156C305.673 209.156 305.673 209.156 305.673 209.156C305.673 209.156 305.673 209.156 305.673 209.156C305.673 209.156 305.673 209.156 305.673 209.156C305.673 209.156 305.673 209.156 305.673 209.156C305.673 209.156 305.673 209.156 305.673 209.156C305.673 209.156 305.673 209.156 305.673 209.156C305.673 209.156 305.673 209.156 305.673 209.156C305.673 209.156 305.673 209.156 305.673 209.156C305.672 209.156 305.672 209.156 305.672 209.156C305.672 209.156 305.672 209.156 305.672 209.156C305.672 209.156 305.672 209.156 305.672 209.156C305.672 209.156 305.672 209.156 305.672 209.156C305.672 209.156 305.672 209.156 305.672 209.156C305.672 209.156 305.672 209.156 305.672 209.156C305.672 209.156 305.672 209.156 305.672 209.156C305.672 209.156 305.672 209.156 305.672 209.156C305.672 209.156 305.672 209.156 305.672 209.156C305.672 209.156 305.672 209.156 305.671 209.156C305.671 209.156 305.671 209.156 305.671 209.156C305.671 209.156 305.671 209.156 305.671 209.156C305.671 209.156 305.671 209.156 305.671 209.156C305.671 209.156 305.671 209.156 305.671 209.156C305.671 209.156 305.671 209.156 305.671 209.156C305.671 209.156 305.671 209.156 305.671 209.156C305.671 209.156 305.671 209.156 305.671 209.156C305.671 209.156 305.671 209.156 305.671 209.156C305.671 209.156 305.671 209.156 305.671 209.156C305.67 209.156 305.67 209.156 305.67 209.156C305.67 209.156 305.67 209.156 305.67 209.156C305.67 209.156 305.67 209.156 305.67 209.156C305.67 209.156 305.67 209.156 305.67 209.156C305.67 209.156 305.67 209.156 305.67 209.156C305.67 209.156 305.67 209.156 305.67 209.156C305.67 209.156 305.67 209.156 305.67 209.156C305.67 209.156 305.67 209.156 305.67 209.156C305.67 209.156 305.67 209.156 305.67 209.156C305.67 209.156 305.67 209.156 305.669 209.156C305.669 209.156 305.669 209.156 305.669 209.156C305.669 209.156 305.669 209.156 305.669 209.156C305.669 209.156 305.669 209.156 305.669 209.156C305.669 209.156 305.669 209.156 305.669 209.156C305.669 209.156 305.669 209.156 305.669 209.156C305.669 209.156 305.669 209.156 305.669 209.156C305.669 209.156 305.669 209.156 305.669 209.156C305.669 209.156 305.669 209.156 305.669 209.156C305.669 209.156 305.669 209.156 305.669 209.156C305.668 209.156 305.668 209.156 305.668 209.156C305.668 209.156 305.668 209.156 305.668 209.156C305.668 209.156 305.668 209.156 305.668 209.156C305.668 209.156 305.668 209.156 305.668 209.156C305.668 209.156 305.668 209.156 305.668 209.156C305.668 209.156 305.668 209.156 305.668 209.156C305.668 209.156 305.668 209.156 305.668 209.156C305.668 209.156 305.668 209.156 305.668 209.156C305.668 209.156 305.668 209.156 305.668 209.156C305.668 209.156 305.668 209.156 305.667 209.156C305.667 209.156 305.667 209.156 305.667 209.156C305.667 209.156 305.667 209.156 305.667 209.156C305.667 209.156 305.667 209.156 305.667 209.156C305.667 209.156 305.667 209.156 305.667 209.156C305.667 209.156 305.667 209.156 305.667 209.156C305.667 209.156 305.667 209.156 305.667 209.156C305.667 209.156 305.667 209.156 305.667 209.156C305.667 209.156 305.667 209.156 305.667 209.156C305.667 209.156 305.667 209.156 305.667 209.156C305.666 209.156 305.666 209.156 305.666 209.156C305.666 209.156 305.666 209.156 305.666 209.156C305.666 209.156 305.666 209.156 305.666 209.156C305.666 209.156 305.666 209.156 305.666 209.156C305.666 209.156 305.666 209.156 305.666 209.156C305.666 209.156 305.666 209.156 305.666 209.156C305.666 209.156 305.666 209.156 305.666 209.156C305.666 209.156 305.666 209.156 305.666 209.156C305.666 209.156 305.666 209.156 305.666 209.156C305.666 209.156 305.665 209.156 305.665 209.156C305.665 209.156 305.665 209.156 305.665 209.156C305.665 209.156 305.665 209.156 305.665 209.156C305.665 209.156 305.665 209.156 305.665 209.156C305.665 209.156 305.665 209.156 305.665 209.156C305.665 209.156 305.665 209.156 305.665 209.156C305.665 209.156 305.665 209.156 305.665 209.156C305.665 209.156 305.665 209.156 305.665 209.156C305.665 209.156 305.665 209.156 305.665 209.156C305.665 209.156 305.665 209.156 305.665 209.156C305.664 209.156 305.664 209.156 305.664 209.156C305.664 209.156 305.664 209.156 305.664 209.156C305.664 209.156 305.664 209.156 305.664 209.156C305.664 209.156 305.664 209.156 305.664 209.156C305.664 209.156 305.664 209.156 305.664 209.156C305.664 209.156 305.664 209.156 305.664 209.156C305.664 209.156 305.664 209.156 305.664 209.156C305.664 209.156 305.664 209.156 305.664 209.156C305.664 209.156 305.664 209.156 305.664 209.156C305.664 209.156 305.663 209.156 305.663 209.156C305.663 209.156 305.663 209.156 305.663 209.156C305.663 209.156 305.663 209.156 305.663 209.156C305.663 209.156 305.663 209.156 305.663 209.156C305.663 209.156 305.663 209.156 305.663 209.156C305.663 209.156 305.663 209.156 305.663 209.156C305.663 209.156 305.663 209.156 305.663 209.156C305.663 209.156 305.663 209.156 305.663 209.156C305.663 209.156 305.663 209.156 305.663 209.156C305.663 209.156 305.663 209.156 305.662 209.156C305.662 209.156 305.662 209.156 305.662 209.156C305.662 209.156 305.662 209.156 305.662 209.156C305.662 209.156 305.662 209.156 305.662 209.156C305.662 209.156 305.662 209.156 305.662 209.156C305.662 209.156 305.662 209.156 305.662 209.156C305.662 209.156 305.662 209.156 305.662 209.156C305.662 209.156 305.662 209.156 305.662 209.156C305.662 209.156 305.662 209.156 305.662 209.156C305.662 209.156 305.662 209.156 305.662 209.156C305.661 209.156 305.661 209.156 305.661 209.156C305.661 209.156 305.661 209.156 305.661 209.156C305.661 209.156 305.661 209.156 305.661 209.156C305.661 209.156 305.661 209.156 305.661 209.156C305.661 209.156 305.661 209.156 305.661 209.156C305.661 209.156 305.661 209.156 305.661 209.156C305.661 209.156 305.661 209.156 305.661 209.156C305.661 209.156 305.661 209.156 305.661 209.156C305.661 209.156 305.661 209.156 305.661 209.156C305.661 209.156 305.66 209.156 305.66 209.156C305.66 209.156 305.66 209.156 305.66 209.156C305.66 209.156 305.66 209.156 305.66 209.156C305.66 209.156 305.66 209.156 305.66 209.156C305.66 209.156 305.66 209.156 305.66 209.156C305.66 209.156 305.66 209.156 305.66 209.156C305.66 209.156 305.66 209.156 305.66 209.156C305.66 209.156 305.66 209.156 305.66 209.156C305.66 209.156 305.66 209.156 305.66 209.156C305.66 209.156 305.66 209.156 305.659 209.156C305.659 209.156 305.659 209.156 305.659 209.156C305.659 209.156 305.659 209.156 305.659 209.156C305.659 209.156 305.659 209.156 305.659 209.156C305.659 209.156 305.659 209.156 305.659 209.156C305.659 209.156 305.659 209.156 305.659 209.156C305.659 209.156 305.659 209.156 305.659 209.156C305.659 209.156 305.659 209.156 305.659 209.156C305.659 209.156 305.659 209.156 305.659 209.156C305.659 209.156 305.659 209.156 305.659 209.156C305.658 209.156 305.658 209.156 305.658 209.156C305.658 209.156 305.658 209.156 305.658 209.156C305.658 209.156 305.658 209.156 305.658 209.156C305.658 209.156 305.658 209.156 305.658 209.156C305.658 209.156 305.658 209.156 305.658 209.156C305.658 209.156 305.658 209.156 305.658 209.156C305.658 209.156 305.658 209.156 305.658 209.156C305.658 209.156 305.658 209.156 305.658 209.156C305.658 209.156 305.658 209.156 305.658 209.156C305.658 209.156 305.657 209.156 305.657 209.156C305.657 209.156 305.657 209.156 305.657 209.156C305.657 209.156 305.657 209.156 305.657 209.156C305.657 209.156 305.657 209.156 305.657 209.156C305.657 209.156 305.657 209.156 305.657 209.156C305.657 209.156 305.657 209.156 305.657 209.156C305.657 209.156 305.657 209.156 305.657 209.156C305.657 209.156 305.657 209.156 305.657 209.156C305.657 209.156 305.657 209.156 305.657 209.156C305.657 209.156 305.657 209.156 305.656 209.156C305.656 209.156 305.656 209.156 305.656 209.156C305.656 209.156 305.656 209.156 305.656 209.156C305.656 209.156 305.656 209.156 305.656 209.156C305.656 209.156 305.656 209.156 305.656 209.156C305.656 209.156 305.656 209.156 305.656 209.156C305.656 209.156 305.656 209.156 305.656 209.156C305.656 209.156 305.656 209.156 305.656 209.156C305.656 209.156 305.656 209.156 305.656 209.156C305.656 209.156 305.656 209.156 305.655 209.156C305.655 209.156 305.655 209.156 305.655 209.156C305.655 209.156 305.655 209.156 305.655 209.156C305.655 209.156 305.655 209.156 305.655 209.156C305.655 209.156 305.655 209.156 305.655 209.156C305.655 209.156 305.655 209.156 305.655 209.156C305.655 209.156 305.655 209.156 305.655 209.156C305.655 209.156 305.655 209.156 305.655 209.156C305.655 209.156 305.655 209.156 305.655 209.156C305.655 209.156 305.655 209.156 305.655 209.156C305.654 209.156 305.654 209.156 305.654 209.156C305.654 209.156 305.654 209.156 305.654 209.156C305.654 209.156 305.654 209.156 305.654 209.156C305.654 209.156 305.654 209.156 305.654 209.156C305.654 209.156 305.654 209.156 305.654 209.156C305.654 209.156 305.654 209.156 305.654 209.156C305.654 209.156 305.654 209.156 305.654 209.156C305.654 209.156 305.654 209.156 305.654 209.156C305.654 209.156 305.654 209.156 305.654 209.156C305.654 209.156 305.653 209.156 305.653 209.156C305.653 209.156 305.653 209.156 305.653 209.156C305.653 209.156 305.653 209.156 305.653 209.156C305.653 209.156 305.653 209.156 305.653 209.156C305.653 209.156 305.653 209.156 305.653 209.156C305.653 209.156 305.653 209.156 305.653 209.156C305.653 209.156 305.653 209.156 305.653 209.156C305.653 209.156 305.653 209.156 305.653 209.156C305.653 209.156 305.653 209.156 305.653 209.156C305.653 209.156 305.653 209.156 305.652 209.156C305.652 209.156 305.652 209.156 305.652 209.156C305.652 209.156 305.652 209.156 305.652 209.156C305.652 209.156 305.652 209.156 305.652 209.156C305.652 209.156 305.652 209.156 305.652 209.156C305.652 209.156 305.652 209.156 305.652 209.156C305.652 209.156 305.652 209.156 305.652 209.156C305.652 209.156 305.652 209.156 305.652 209.156C305.652 209.156 305.652 209.156 305.652 209.156C305.652 209.156 305.652 209.156 305.652 209.156C305.651 209.156 305.651 209.156 305.651 209.156C305.651 209.156 305.651 209.156 305.651 209.156C305.651 209.156 305.651 209.156 305.651 209.156C305.651 209.156 305.651 209.156 305.651 209.156C305.651 209.156 305.651 209.156 305.651 209.156C305.651 209.156 305.651 209.156 305.651 209.156C305.651 209.156 305.651 209.156 305.651 209.156C305.651 209.156 305.651 209.156 305.651 209.156C305.651 209.156 305.651 209.156 305.651 209.156C305.65 209.156 305.65 209.156 305.65 209.156C305.65 209.156 305.65 209.156 305.65 209.156C305.65 209.156 305.65 209.156 305.65 209.156C305.65 209.156 305.65 209.156 305.65 209.156C305.65 209.156 305.65 209.156 305.65 209.156C305.65 209.156 305.65 209.156 305.65 209.156C305.65 209.156 305.65 209.156 305.65 209.156C305.65 209.156 305.65 209.156 305.65 209.156C305.65 209.156 305.65 209.156 305.65 209.156C305.65 209.156 305.649 209.156 305.649 209.156C305.649 209.156 305.649 209.156 305.649 209.156C305.649 209.156 305.649 209.156 305.649 209.156C305.649 209.156 305.649 209.156 305.649 209.156C305.649 209.156 305.649 209.156 305.649 209.156C305.649 209.156 305.649 209.156 305.649 209.156C305.649 209.156 305.649 209.156 305.649 209.156C305.649 209.156 305.649 209.156 305.649 209.156C305.649 209.156 305.649 209.156 305.649 209.156C305.649 209.156 305.649 209.156 305.648 209.156C305.648 209.156 305.648 209.156 305.648 209.156C305.648 209.156 305.648 209.156 305.648 209.156C305.648 209.156 305.648 209.156 305.648 209.156C305.648 209.156 305.648 209.156 305.648 209.156C305.648 209.156 305.648 209.156 305.648 209.156C305.648 209.156 305.648 209.156 305.648 209.156C305.648 209.156 305.648 209.156 305.648 209.156C305.648 209.156 305.648 209.156 305.648 209.156C305.648 209.156 305.648 209.156 305.648 209.156C305.647 209.156 305.647 209.156 305.647 209.156C305.647 209.156 305.647 209.156 305.647 209.156C305.647 209.156 305.647 209.156 305.647 209.156C305.647 209.156 305.647 209.156 305.647 209.156C305.647 209.156 305.647 209.156 305.647 209.156C305.647 209.156 305.647 209.156 305.647 209.156C305.647 209.156 305.647 209.156 305.647 209.156C305.647 209.156 305.647 209.156 305.647 209.156C305.647 209.156 305.647 209.156 305.647 209.156C305.646 209.156 305.646 209.156 305.646 209.156C305.646 209.156 305.646 209.156 305.646 209.156C305.646 209.156 305.646 209.156 305.646 209.156C305.646 209.156 305.646 209.156 305.646 209.156C305.646 209.156 305.646 209.156 305.646 209.156C305.646 209.156 305.646 209.156 305.646 209.156C305.646 209.156 305.646 209.156 305.646 209.156C305.646 209.156 305.646 209.156 305.646 209.156C305.646 209.156 305.646 209.156 305.646 209.156C305.646 209.156 305.645 209.156 305.645 209.156C305.645 209.156 305.645 209.156 305.645 209.156C305.645 209.156 305.645 209.156 305.645 209.156C305.645 209.156 305.645 209.156 305.645 209.156C305.645 209.156 305.645 209.156 305.645 209.156V221.156ZM305.698 221.156C310.472 221.156 314.338 217.29 314.338 212.516H302.338C302.338 210.662 303.844 209.156 305.698 209.156V221.156ZM314.338 212.505C314.336 211.285 314.079 210.068 313.565 208.941L302.647 213.92C302.434 213.453 302.339 212.975 302.338 212.526L314.338 212.505ZM145.464 211.212L178.053 68.618L166.354 65.9445L133.766 208.538L145.464 211.212ZM172.204 73.2812H269.748V61.2812H172.204V73.2812ZM263.899 68.6179L296.484 211.212L308.183 208.538L275.598 65.9446L263.899 68.6179ZM302.334 203.875H139.615V215.875H302.334V203.875Z" fill="#373D2F" mask="url(#path-5-inside-2_369_124)"/>
<path d="M192.49 62.0634C191.046 61.8891 189.72 62.8952 189.533 64.3449L178.897 146.513C178.71 147.958 179.729 149.283 181.176 149.471C181.292 149.484 181.406 149.492 181.519 149.492C182.826 149.492 183.959 148.523 184.134 147.189L194.77 65.0209C194.958 63.5765 193.938 62.2509 192.49 62.0634Z" fill="#373D2F"/>
<path d="M178.944 166.698C177.499 166.532 176.174 167.53 175.986 168.98L170.386 212.259C170.198 213.704 171.217 215.03 172.664 215.217C172.781 215.23 172.894 215.238 173.008 215.238C174.315 215.238 175.45 214.269 175.622 212.935L181.223 169.656C181.411 168.211 180.391 166.886 178.944 166.698Z" fill="#373D2F"/>
<path d="M271.569 212.257L269.28 194.578C269.093 193.131 267.759 192.141 266.323 192.299C264.876 192.486 263.856 193.812 264.044 195.259L266.333 212.938C266.505 214.269 267.64 215.238 268.947 215.238C269.058 215.238 269.174 215.23 269.291 215.217C270.737 215.029 271.757 213.704 271.569 212.257Z" fill="#373D2F"/>
<path d="M266.489 173.033L252.42 64.3449C252.232 62.8952 250.901 61.8918 249.462 62.0634C248.015 62.2509 246.996 63.5765 247.183 65.0209L261.253 173.709C261.424 175.043 262.56 176.012 263.867 176.012C263.98 176.012 264.094 176.004 264.21 175.991C265.657 175.803 266.676 174.477 266.489 173.033Z" fill="#373D2F"/>
<path d="M223.615 378.734H226.115V376.234V215.156V212.656H223.615H218.334H215.834V215.156V376.234V378.734H218.334H223.615ZM215.693 212.375H226.256C226.335 212.375 226.396 212.437 226.396 212.516V378.875C226.396 378.953 226.334 379.016 226.256 379.016H215.693C215.615 379.016 215.553 378.953 215.553 378.875V212.516C215.553 212.438 215.615 212.375 215.693 212.375Z" fill="#373D2F" stroke="#373D2F" stroke-width="5"/>
<path d="M151.091 286.091C150.818 283.788 149.712 282 147.773 280.727C145.833 279.455 143.455 278.818 140.636 278.818C138.576 278.818 136.773 279.152 135.227 279.818C133.697 280.485 132.5 281.402 131.636 282.568C130.788 283.735 130.364 285.061 130.364 286.545C130.364 287.788 130.659 288.856 131.25 289.75C131.856 290.629 132.629 291.364 133.568 291.955C134.508 292.53 135.492 293.008 136.523 293.386C137.553 293.75 138.5 294.045 139.364 294.273L144.091 295.545C145.303 295.864 146.652 296.303 148.136 296.864C149.636 297.424 151.068 298.189 152.432 299.159C153.811 300.114 154.947 301.341 155.841 302.841C156.735 304.341 157.182 306.182 157.182 308.364C157.182 310.879 156.523 313.152 155.205 315.182C153.902 317.212 151.992 318.826 149.477 320.023C146.977 321.22 143.939 321.818 140.364 321.818C137.03 321.818 134.144 321.28 131.705 320.205C129.28 319.129 127.371 317.629 125.977 315.705C124.598 313.78 123.818 311.545 123.636 309H129.455C129.606 310.758 130.197 312.212 131.227 313.364C132.273 314.5 133.591 315.348 135.182 315.909C136.788 316.455 138.515 316.727 140.364 316.727C142.515 316.727 144.447 316.379 146.159 315.682C147.871 314.97 149.227 313.985 150.227 312.727C151.227 311.455 151.727 309.97 151.727 308.273C151.727 306.727 151.295 305.47 150.432 304.5C149.568 303.53 148.432 302.742 147.023 302.136C145.614 301.53 144.091 301 142.455 300.545L136.727 298.909C133.091 297.864 130.212 296.371 128.091 294.432C125.97 292.492 124.909 289.955 124.909 286.818C124.909 284.212 125.614 281.939 127.023 280C128.447 278.045 130.356 276.53 132.75 275.455C135.159 274.364 137.848 273.818 140.818 273.818C143.818 273.818 146.485 274.356 148.818 275.432C151.152 276.492 153 277.947 154.364 279.795C155.742 281.644 156.47 283.742 156.545 286.091H151.091ZM166.449 321V274.455H172.085V295.182H196.903V274.455H202.54V321H196.903V300.182H172.085V321H166.449Z" fill="#373D2F"/>
<path d="M151.091 286.091L150.098 286.209L150.202 287.091H151.091V286.091ZM147.773 280.727L147.224 281.563L147.224 281.563L147.773 280.727ZM135.227 279.818L134.831 278.9L134.828 278.901L135.227 279.818ZM131.636 282.568L130.833 281.973L130.828 281.98L131.636 282.568ZM131.25 289.75L130.416 290.301L130.421 290.31L130.427 290.318L131.25 289.75ZM133.568 291.955L133.036 292.801L133.046 292.807L133.568 291.955ZM136.523 293.386L136.178 294.325L136.19 294.329L136.523 293.386ZM139.364 294.273L139.624 293.307L139.618 293.306L139.364 294.273ZM144.091 295.545L143.831 296.511L143.837 296.513L144.091 295.545ZM148.136 296.864L147.783 297.799L147.786 297.8L148.136 296.864ZM152.432 299.159L151.852 299.974L151.863 299.981L152.432 299.159ZM155.841 302.841L156.7 302.329L156.7 302.329L155.841 302.841ZM155.205 315.182L154.366 314.637L154.363 314.642L155.205 315.182ZM149.477 320.023L149.048 319.12L149.045 319.121L149.477 320.023ZM131.705 320.205L131.299 321.119L131.301 321.12L131.705 320.205ZM125.977 315.705L125.164 316.287L125.167 316.291L125.977 315.705ZM123.636 309V308H122.562L122.639 309.071L123.636 309ZM129.455 309L130.451 308.914L130.372 308H129.455V309ZM131.227 313.364L130.482 314.03L130.491 314.041L131.227 313.364ZM135.182 315.909L134.849 316.852L134.86 316.856L135.182 315.909ZM146.159 315.682L146.536 316.608L146.543 316.605L146.159 315.682ZM150.227 312.727L151.01 313.35L151.014 313.345L150.227 312.727ZM150.432 304.5L151.179 303.835L151.179 303.835L150.432 304.5ZM147.023 302.136L146.628 303.055L146.628 303.055L147.023 302.136ZM142.455 300.545L142.18 301.507L142.187 301.509L142.455 300.545ZM136.727 298.909L136.451 299.87L136.453 299.871L136.727 298.909ZM128.091 294.432L127.416 295.17L127.416 295.17L128.091 294.432ZM127.023 280L126.215 279.411L126.214 279.412L127.023 280ZM132.75 275.455L133.16 276.367L133.163 276.365L132.75 275.455ZM148.818 275.432L148.399 276.34L148.404 276.342L148.818 275.432ZM154.364 279.795L153.559 280.389L153.562 280.393L154.364 279.795ZM156.545 286.091V287.091H157.578L157.545 286.059L156.545 286.091ZM152.084 285.973C151.776 283.377 150.508 281.326 148.321 279.891L147.224 281.563C148.917 282.674 149.86 284.199 150.098 286.209L152.084 285.973ZM148.321 279.891C146.187 278.49 143.607 277.818 140.636 277.818V279.818C143.302 279.818 145.48 280.419 147.224 281.563L148.321 279.891ZM140.636 277.818C138.469 277.818 136.526 278.169 134.831 278.9L135.623 280.736C137.019 280.134 138.682 279.818 140.636 279.818V277.818ZM134.828 278.901C133.161 279.627 131.815 280.646 130.833 281.973L132.44 283.163C133.185 282.157 134.233 281.342 135.627 280.735L134.828 278.901ZM130.828 281.98C129.851 283.323 129.364 284.856 129.364 286.545H131.364C131.364 285.265 131.725 284.147 132.445 283.156L130.828 281.98ZM129.364 286.545C129.364 287.952 129.7 289.219 130.416 290.301L132.084 289.199C131.618 288.493 131.364 287.624 131.364 286.545H129.364ZM130.427 290.318C131.113 291.313 131.986 292.141 133.036 292.801L134.101 291.108C133.271 290.586 132.599 289.945 132.073 289.182L130.427 290.318ZM133.046 292.807C134.041 293.417 135.085 293.923 136.178 294.325L136.868 292.448C135.9 292.092 134.974 291.643 134.091 291.102L133.046 292.807ZM136.19 294.329C137.241 294.7 138.214 295.004 139.109 295.24L139.618 293.306C138.786 293.087 137.866 292.8 136.856 292.443L136.19 294.329ZM139.104 295.238L143.831 296.511L144.351 294.58L139.624 293.307L139.104 295.238ZM143.837 296.513C145.008 296.82 146.323 297.248 147.783 297.799L148.49 295.928C146.98 295.358 145.598 294.907 144.345 294.578L143.837 296.513ZM147.786 297.8C149.201 298.329 150.556 299.052 151.852 299.974L153.011 298.344C151.58 297.326 150.071 296.519 148.486 295.927L147.786 297.8ZM151.863 299.981C153.119 300.851 154.158 301.971 154.982 303.353L156.7 302.329C155.736 300.711 154.502 299.376 153.001 298.337L151.863 299.981ZM154.982 303.353C155.763 304.664 156.182 306.317 156.182 308.364H158.182C158.182 306.046 157.707 304.018 156.7 302.329L154.982 303.353ZM156.182 308.364C156.182 310.693 155.574 312.776 154.366 314.637L156.043 315.726C157.471 313.527 158.182 311.064 158.182 308.364H156.182ZM154.363 314.642C153.175 316.492 151.421 317.99 149.048 319.12L149.907 320.926C152.564 319.661 154.628 317.932 156.046 315.722L154.363 314.642ZM149.045 319.121C146.713 320.237 143.832 320.818 140.364 320.818V322.818C144.047 322.818 147.241 322.202 149.909 320.925L149.045 319.121ZM140.364 320.818C137.136 320.818 134.393 320.297 132.108 319.29L131.301 321.12C133.895 322.264 136.925 322.818 140.364 322.818V320.818ZM132.11 319.29C129.828 318.278 128.066 316.883 126.787 315.118L125.167 316.291C126.677 318.374 128.733 319.98 131.299 321.119L132.11 319.29ZM126.79 315.122C125.527 313.36 124.804 311.305 124.634 308.929L122.639 309.071C122.833 311.786 123.67 314.201 125.164 316.287L126.79 315.122ZM123.636 310H129.455V308H123.636V310ZM128.458 309.086C128.626 311.027 129.287 312.695 130.482 314.03L131.973 312.697C131.107 311.729 130.587 310.488 130.451 308.914L128.458 309.086ZM130.491 314.041C131.658 315.308 133.119 316.242 134.849 316.852L135.514 314.966C134.063 314.455 132.888 313.692 131.963 312.687L130.491 314.041ZM134.86 316.856C136.579 317.44 138.416 317.727 140.364 317.727V315.727C138.615 315.727 136.997 315.469 135.503 314.962L134.86 316.856ZM140.364 317.727C142.624 317.727 144.686 317.361 146.536 316.608L145.782 314.756C144.208 315.397 142.407 315.727 140.364 315.727V317.727ZM146.543 316.605C148.387 315.838 149.889 314.759 151.01 313.35L149.445 312.105C148.565 313.211 147.355 314.101 145.775 314.758L146.543 316.605ZM151.014 313.345C152.159 311.887 152.727 310.182 152.727 308.273H150.727C150.727 309.757 150.295 311.022 149.441 312.109L151.014 313.345ZM152.727 308.273C152.727 306.531 152.235 305.021 151.179 303.835L149.685 305.165C150.356 305.918 150.727 306.923 150.727 308.273H152.727ZM151.179 303.835C150.202 302.738 148.937 301.871 147.418 301.218L146.628 303.055C147.926 303.614 148.935 304.323 149.685 305.165L151.179 303.835ZM147.418 301.218C145.963 300.592 144.397 300.047 142.722 299.582L142.187 301.509C143.784 301.953 145.264 302.469 146.628 303.055L147.418 301.218ZM142.729 299.584L137.002 297.948L136.453 299.871L142.18 301.507L142.729 299.584ZM137.004 297.948C133.47 296.932 130.743 295.502 128.766 293.694L127.416 295.17C129.681 297.241 132.711 298.795 136.451 299.87L137.004 297.948ZM128.766 293.694C126.872 291.962 125.909 289.702 125.909 286.818H123.909C123.909 290.207 125.068 293.023 127.416 295.17L128.766 293.694ZM125.909 286.818C125.909 284.404 126.558 282.341 127.832 280.588L126.214 279.412C124.67 281.538 123.909 284.02 123.909 286.818H125.909ZM127.831 280.589C129.144 278.787 130.911 277.377 133.16 276.367L132.34 274.542C129.801 275.683 127.75 277.304 126.215 279.411L127.831 280.589ZM133.163 276.365C135.427 275.34 137.973 274.818 140.818 274.818V272.818C137.724 272.818 134.891 273.387 132.337 274.544L133.163 276.365ZM140.818 274.818C143.698 274.818 146.218 275.334 148.399 276.34L149.237 274.524C146.752 273.378 143.939 272.818 140.818 272.818V274.818ZM148.404 276.342C150.601 277.341 152.308 278.693 153.559 280.389L155.168 279.202C153.692 277.201 151.702 275.644 149.232 274.521L148.404 276.342ZM153.562 280.393C154.816 282.075 155.477 283.975 155.546 286.123L157.545 286.059C157.463 283.51 156.669 281.213 155.165 279.198L153.562 280.393ZM156.545 285.091H151.091V287.091H156.545V285.091ZM166.449 321H165.449V322H166.449V321ZM166.449 274.455V273.455H165.449V274.455H166.449ZM172.085 274.455H173.085V273.455H172.085V274.455ZM172.085 295.182H171.085V296.182H172.085V295.182ZM196.903 295.182V296.182H197.903V295.182H196.903ZM196.903 274.455V273.455H195.903V274.455H196.903ZM202.54 274.455H203.54V273.455H202.54V274.455ZM202.54 321V322H203.54V321H202.54ZM196.903 321H195.903V322H196.903V321ZM196.903 300.182H197.903V299.182H196.903V300.182ZM172.085 300.182V299.182H171.085V300.182H172.085ZM172.085 321V322H173.085V321H172.085ZM167.449 321V274.455H165.449V321H167.449ZM166.449 275.455H172.085V273.455H166.449V275.455ZM171.085 274.455V295.182H173.085V274.455H171.085ZM172.085 296.182H196.903V294.182H172.085V296.182ZM197.903 295.182V274.455H195.903V295.182H197.903ZM196.903 275.455H202.54V273.455H196.903V275.455ZM201.54 274.455V321H203.54V274.455H201.54ZM202.54 320H196.903V322H202.54V320ZM197.903 321V300.182H195.903V321H197.903ZM196.903 299.182H172.085V301.182H196.903V299.182ZM171.085 300.182V321H173.085V300.182H171.085ZM172.085 320H166.449V322H172.085V320Z" fill="black"/>
<path d="M276.909 297.727C276.909 302.636 276.023 306.879 274.25 310.455C272.477 314.03 270.045 316.788 266.955 318.727C263.864 320.667 260.333 321.636 256.364 321.636C252.394 321.636 248.864 320.667 245.773 318.727C242.682 316.788 240.25 314.03 238.477 310.455C236.705 306.879 235.818 302.636 235.818 297.727C235.818 292.818 236.705 288.576 238.477 285C240.25 281.424 242.682 278.667 245.773 276.727C248.864 274.788 252.394 273.818 256.364 273.818C260.333 273.818 263.864 274.788 266.955 276.727C270.045 278.667 272.477 281.424 274.25 285C276.023 288.576 276.909 292.818 276.909 297.727ZM271.455 297.727C271.455 293.697 270.78 290.295 269.432 287.523C268.098 284.75 266.288 282.652 264 281.227C261.727 279.803 259.182 279.091 256.364 279.091C253.545 279.091 250.992 279.803 248.705 281.227C246.432 282.652 244.621 284.75 243.273 287.523C241.939 290.295 241.273 293.697 241.273 297.727C241.273 301.758 241.939 305.159 243.273 307.932C244.621 310.705 246.432 312.803 248.705 314.227C250.992 315.652 253.545 316.364 256.364 316.364C259.182 316.364 261.727 315.652 264 314.227C266.288 312.803 268.098 310.705 269.432 307.932C270.78 305.159 271.455 301.758 271.455 297.727ZM286.386 321V274.455H302.114C305.765 274.455 308.75 275.114 311.068 276.432C313.402 277.735 315.129 279.5 316.25 281.727C317.371 283.955 317.932 286.439 317.932 289.182C317.932 291.924 317.371 294.417 316.25 296.659C315.144 298.902 313.432 300.689 311.114 302.023C308.795 303.341 305.826 304 302.205 304H290.932V299H302.023C304.523 299 306.53 298.568 308.045 297.705C309.561 296.841 310.659 295.674 311.341 294.205C312.038 292.72 312.386 291.045 312.386 289.182C312.386 287.318 312.038 285.652 311.341 284.182C310.659 282.712 309.553 281.561 308.023 280.727C306.492 279.879 304.462 279.455 301.932 279.455H292.023V321H286.386Z" fill="#373D2F"/>
<path d="M274.25 310.455L273.354 310.01L273.354 310.01L274.25 310.455ZM266.955 318.727L267.486 319.574L267.486 319.574L266.955 318.727ZM245.773 318.727L245.241 319.574L245.241 319.574L245.773 318.727ZM238.477 310.455L239.373 310.01L239.373 310.01L238.477 310.455ZM238.477 285L237.581 284.556L238.477 285ZM266.955 276.727L267.486 275.88L267.486 275.88L266.955 276.727ZM274.25 285L273.354 285.444L273.354 285.444L274.25 285ZM269.432 287.523L268.531 287.956L268.533 287.96L269.432 287.523ZM264 281.227L263.469 282.075L263.472 282.076L264 281.227ZM248.705 281.227L248.176 280.378L248.174 280.38L248.705 281.227ZM243.273 287.523L242.373 287.085L242.372 287.089L243.273 287.523ZM243.273 307.932L242.372 308.365L242.373 308.369L243.273 307.932ZM248.705 314.227L248.174 315.075L248.176 315.076L248.705 314.227ZM264 314.227L263.472 313.378L263.469 313.38L264 314.227ZM269.432 307.932L268.533 307.494L268.531 307.498L269.432 307.932ZM275.909 297.727C275.909 302.517 275.044 306.601 273.354 310.01L275.146 310.899C277.001 307.157 277.909 302.756 277.909 297.727H275.909ZM273.354 310.01C271.655 313.437 269.343 316.048 266.423 317.88L267.486 319.574C270.748 317.528 273.299 314.624 275.146 310.899L273.354 310.01ZM266.423 317.88C263.505 319.711 260.162 320.636 256.364 320.636V322.636C260.504 322.636 264.222 321.622 267.486 319.574L266.423 317.88ZM256.364 320.636C252.565 320.636 249.222 319.711 246.304 317.88L245.241 319.574C248.505 321.622 252.223 322.636 256.364 322.636V320.636ZM246.304 317.88C243.384 316.048 241.072 313.437 239.373 310.01L237.581 310.899C239.428 314.624 241.979 317.528 245.241 319.574L246.304 317.88ZM239.373 310.01C237.683 306.601 236.818 302.517 236.818 297.727H234.818C234.818 302.756 235.726 307.157 237.581 310.899L239.373 310.01ZM236.818 297.727C236.818 292.937 237.683 288.854 239.373 285.444L237.581 284.556C235.726 288.298 234.818 292.699 234.818 297.727H236.818ZM239.373 285.444C241.072 282.018 243.384 279.407 246.304 277.574L245.241 275.88C241.979 277.927 239.428 280.831 237.581 284.556L239.373 285.444ZM246.304 277.574C249.222 275.744 252.565 274.818 256.364 274.818V272.818C252.223 272.818 248.505 273.832 245.241 275.88L246.304 277.574ZM256.364 274.818C260.162 274.818 263.505 275.744 266.423 277.574L267.486 275.88C264.222 273.832 260.504 272.818 256.364 272.818V274.818ZM266.423 277.574C269.343 279.407 271.655 282.018 273.354 285.444L275.146 284.556C273.299 280.831 270.748 277.927 267.486 275.88L266.423 277.574ZM273.354 285.444C275.044 288.854 275.909 292.937 275.909 297.727H277.909C277.909 292.699 277.001 288.298 275.146 284.556L273.354 285.444ZM272.455 297.727C272.455 293.59 271.763 290.03 270.331 287.085L268.533 287.96C269.798 290.561 270.455 293.804 270.455 297.727H272.455ZM270.333 287.089C268.929 284.17 266.999 281.917 264.528 280.378L263.472 282.076C265.576 283.386 267.268 285.33 268.531 287.956L270.333 287.089ZM264.531 280.38C262.091 278.851 259.36 278.091 256.364 278.091V280.091C259.004 280.091 261.364 280.755 263.469 282.075L264.531 280.38ZM256.364 278.091C253.368 278.091 250.63 278.851 248.176 280.378L249.233 282.076C251.355 280.755 253.723 280.091 256.364 280.091V278.091ZM248.174 280.38C245.719 281.918 243.791 284.17 242.373 287.085L244.172 287.96C245.451 285.33 247.144 283.385 249.236 282.075L248.174 280.38ZM242.372 287.089C240.956 290.032 240.273 293.592 240.273 297.727H242.273C242.273 293.802 242.923 290.558 244.174 287.956L242.372 287.089ZM240.273 297.727C240.273 301.863 240.956 305.422 242.372 308.365L244.174 307.498C242.923 304.896 242.273 301.652 242.273 297.727H240.273ZM242.373 308.369C243.791 311.285 245.719 313.537 248.174 315.075L249.236 313.38C247.144 312.069 245.451 310.124 244.172 307.494L242.373 308.369ZM248.176 315.076C250.63 316.604 253.368 317.364 256.364 317.364V315.364C253.723 315.364 251.355 314.699 249.233 313.378L248.176 315.076ZM256.364 317.364C259.36 317.364 262.091 316.604 264.531 315.075L263.469 313.38C261.364 314.699 259.004 315.364 256.364 315.364V317.364ZM264.528 315.076C266.999 313.538 268.929 311.284 270.333 308.365L268.531 307.498C267.268 310.125 265.576 312.068 263.472 313.378L264.528 315.076ZM270.331 308.369C271.763 305.425 272.455 301.864 272.455 297.727H270.455C270.455 301.651 269.798 304.893 268.533 307.494L270.331 308.369ZM286.386 321H285.386V322H286.386V321ZM286.386 274.455V273.455H285.386V274.455H286.386ZM311.068 276.432L310.574 277.301L310.581 277.305L311.068 276.432ZM316.25 281.727L315.357 282.177L315.357 282.177L316.25 281.727ZM316.25 296.659L315.356 296.212L315.353 296.217L316.25 296.659ZM311.114 302.023L311.608 302.892L311.612 302.89L311.114 302.023ZM290.932 304H289.932V305H290.932V304ZM290.932 299V298H289.932V299H290.932ZM308.045 297.705L307.55 296.836L307.55 296.836L308.045 297.705ZM311.341 294.205L310.436 293.78L310.434 293.784L311.341 294.205ZM311.341 284.182L310.434 284.603L310.437 284.61L311.341 284.182ZM308.023 280.727L307.538 281.602L307.544 281.605L308.023 280.727ZM292.023 279.455V278.455H291.023V279.455H292.023ZM292.023 321V322H293.023V321H292.023ZM287.386 321V274.455H285.386V321H287.386ZM286.386 275.455H302.114V273.455H286.386V275.455ZM302.114 275.455C305.653 275.455 308.452 276.094 310.574 277.301L311.562 275.563C309.048 274.133 305.877 273.455 302.114 273.455V275.455ZM310.581 277.305C312.753 278.518 314.332 280.141 315.357 282.177L317.143 281.278C315.926 278.859 314.05 276.952 311.556 275.559L310.581 277.305ZM315.357 282.177C316.401 284.251 316.932 286.58 316.932 289.182H318.932C318.932 286.299 318.341 283.658 317.143 281.278L315.357 282.177ZM316.932 289.182C316.932 291.784 316.401 294.121 315.356 296.212L317.144 297.106C318.341 294.712 318.932 292.065 318.932 289.182H316.932ZM315.353 296.217C314.341 298.269 312.774 299.914 310.615 301.156L311.612 302.89C314.09 301.465 315.947 299.534 317.147 297.101L315.353 296.217ZM310.619 301.153C308.496 302.361 305.712 303 302.205 303V305C305.94 305 309.095 304.321 311.608 302.892L310.619 301.153ZM302.205 303H290.932V305H302.205V303ZM291.932 304V299H289.932V304H291.932ZM290.932 300H302.023V298H290.932V300ZM302.023 300C304.626 300 306.823 299.552 308.541 298.573L307.55 296.836C306.237 297.584 304.42 298 302.023 298V300ZM308.541 298.573C310.222 297.615 311.472 296.298 312.248 294.625L310.434 293.784C309.846 295.05 308.899 296.067 307.55 296.836L308.541 298.573ZM312.246 294.629C313.014 292.995 313.386 291.172 313.386 289.182H311.386C311.386 290.919 311.062 292.445 310.436 293.78L312.246 294.629ZM313.386 289.182C313.386 287.192 313.014 285.375 312.244 283.753L310.437 284.61C311.062 285.928 311.386 287.445 311.386 289.182H313.386ZM312.248 283.761C311.469 282.082 310.204 280.777 308.501 279.849L307.544 281.605C308.902 282.345 309.849 283.342 310.434 284.603L312.248 283.761ZM308.508 279.853C306.777 278.893 304.561 278.455 301.932 278.455V280.455C304.363 280.455 306.207 280.864 307.538 281.602L308.508 279.853ZM301.932 278.455H292.023V280.455H301.932V278.455ZM291.023 279.455V321H293.023V279.455H291.023ZM292.023 320H286.386V322H292.023V320Z" fill="black"/>
</svg>
