<svg width="43" height="49" viewBox="0 0 43 43" fill="none" xmlns="http://www.w3.org/2000/svg">
<path d="M13.699 5.375H8.76974C6.89488 5.375 5.375 6.89488 5.375 8.76974C5.375 24.7061 18.2939 37.625 34.2303 37.625C36.1051 37.625 37.625 36.1051 37.625 34.2303V29.301C37.625 27.8358 36.7329 26.5182 35.3725 25.974L30.6503 24.0851C29.4282 23.5963 28.0366 23.8168 27.0254 24.6593L25.8056 25.6759C24.3818 26.8624 22.2883 26.7674 20.9778 25.4569L17.5431 22.0222C16.2326 20.7117 16.1376 18.6182 17.3241 17.1944L18.3406 15.9746C19.1832 14.9634 19.4037 13.5718 18.9149 12.3497L17.026 7.62752C16.4818 6.26707 15.1642 5.375 13.699 5.375Z" stroke="#373D2F" stroke-width="3" stroke-linecap="round" stroke-linejoin="round"/>
</svg>
